<svg xmlns="http://www.w3.org/2000/svg" xmlns:xlink="http://www.w3.org/1999/xlink" width="108" height="108" viewBox="0 0 108 108">
  <defs>
    <filter id="Ellipse_12740" x="0" y="0" width="108" height="108" filterUnits="userSpaceOnUse">
      <feOffset dy="3" input="SourceAlpha"/>
      <feGaussianBlur stdDeviation="3" result="blur"/>
      <feFlood flood-opacity="0.161"/>
      <feComposite operator="in" in2="blur"/>
      <feComposite in="SourceGraphic"/>
    </filter>
    <clipPath id="clip-path">
      <rect id="Rectangle_411018" data-name="Rectangle 411018" width="58" height="68" transform="translate(-6848 -10740)" fill="#fff" stroke="#707070" stroke-width="1" opacity="0"/>
    </clipPath>
  </defs>
  <g id="Group_1204547" data-name="Group 1204547" transform="translate(6873.153 10761.937)">
    <g id="Group_1203657" data-name="Group 1203657" transform="translate(-6864.153 -10755.937)">
      <g transform="matrix(1, 0, 0, 1, -9, -6)" filter="url(#Ellipse_12740)">
        <g id="Ellipse_12740-2" data-name="Ellipse 12740" transform="translate(9 6)" fill="#5bd4dd" stroke="#3f939a" stroke-width="1">
          <circle cx="45" cy="45" r="45" stroke="none"/>
          <circle cx="45" cy="45" r="44.5" fill="none"/>
        </g>
      </g>
    </g>
    <g id="Mask_Group_1099457" data-name="Mask Group 1099457" clip-path="url(#clip-path)">
      <g id="filtrar" transform="translate(-6849.057 -10736.057)">
        <g id="Group_1204969" data-name="Group 1204969">
          <g id="Group_1204966" data-name="Group 1204966">
            <path id="Path_1245321" data-name="Path 1245321" d="M43.729,1.879H22.015l-5.63,5.63v29H43.729Z" fill="#f4f6f8" fill-rule="evenodd"/>
            <path id="Path_1245322" data-name="Path 1245322" d="M22.015,7.509V1.879l-5.63,5.63Z" fill="#e4e8eb" fill-rule="evenodd"/>
          </g>
          <g id="Group_1204967" data-name="Group 1204967">
            <path id="Path_1245323" data-name="Path 1245323" d="M26.759,47.529,6.62,27.379V20.666H53.493v6.713h0L33.59,47.294V58.234H26.759Z" fill="#4fc0e8" fill-rule="evenodd"/>
          </g>
          <g id="Group_1204968" data-name="Group 1204968">
            <path id="Path_1245324" data-name="Path 1245324" d="M49.733,38.3h5.333V52.074h3.168L52.4,58.234l-5.835-6.161h3.168Z" fill="#fdcd56" fill-rule="evenodd"/>
            <path id="Path_1245325" data-name="Path 1245325" d="M5.047,38.3H10.38V52.074h3.168L7.713,58.234,1.879,52.074H5.047Z" fill="#fdcd56" fill-rule="evenodd"/>
          </g>
        </g>
        <path id="Path_1245326" data-name="Path 1245326" d="M11.639,52.9H10.38a.824.824,0,0,1-.823-.822V39.127H5.866V52.074a.819.819,0,0,1-.818.822H3.789l3.922,4.143ZM14.3,51.749a.816.816,0,0,1-.16.89L8.308,58.8a.819.819,0,0,1-.6.257.828.828,0,0,1-.6-.257L1.281,52.639a.824.824,0,0,1,.6-1.387H4.225V38.3a.823.823,0,0,1,.823-.822H10.38a.823.823,0,0,1,.823.822V51.252h2.342a.818.818,0,0,1,.757.5ZM56.323,52.9H55.069a.82.82,0,0,1-.823-.822V39.127h-3.69V52.074a.824.824,0,0,1-.823.822H48.478L52.4,57.039Zm2.508-.257L53,58.8a.821.821,0,0,1-1.193,0L45.97,52.639a.82.82,0,0,1,.6-1.387h2.342V38.3a.823.823,0,0,1,.823-.822h5.337a.818.818,0,0,1,.818.822V51.252h2.348a.82.82,0,0,1,.6,1.387ZM51.511,28.2l-18.5,18.513a.821.821,0,0,0-.243.58v10.12H27.578V47.529a.816.816,0,0,0-.238-.581L8.606,28.2ZM7.441,21.488v5.069h45.23V21.488Zm9.768-1.644h25.7V2.7H22.838V7.508a.824.824,0,0,1-.823.822H17.208Zm1.16-13.158,2.823-2.824V6.686ZM54.074,27.96,34.412,47.634v10.6a.823.823,0,0,1-.823.822H26.76a.823.823,0,0,1-.823-.822V47.87L6.037,27.96a.815.815,0,0,1-.238-.581V20.667a.815.815,0,0,1,.238-.581.824.824,0,0,1,.586-.241h8.939V7.508a.826.826,0,0,1,.243-.581l5.63-5.63a.825.825,0,0,1,.58-.241H43.727a.823.823,0,0,1,.823.822V19.844h8.944a.818.818,0,0,1,.818.822v6.712a.814.814,0,0,1-.238.581ZM38.909,16.153a.822.822,0,1,1,0,1.644H21.2a.822.822,0,1,1,0-1.644Zm-7.8-7.226a.822.822,0,0,1,0-1.644h7.8a.822.822,0,1,1,0,1.644Zm8.618,3.613a.824.824,0,0,1-.823.822H21.2a.822.822,0,1,1,0-1.644H38.909A.823.823,0,0,1,39.732,12.54Z" fill-rule="evenodd"/>
      </g>
    </g>
  </g>
</svg>
