<svg xmlns="http://www.w3.org/2000/svg" xmlns:xlink="http://www.w3.org/1999/xlink" width="108" height="108" viewBox="0 0 108 108">
  <defs>
    <filter id="Ellipse_12740" x="0" y="0" width="108" height="108" filterUnits="userSpaceOnUse">
      <feOffset dy="3" input="SourceAlpha"/>
      <feGaussianBlur stdDeviation="3" result="blur"/>
      <feFlood flood-opacity="0.161"/>
      <feComposite operator="in" in2="blur"/>
      <feComposite in="SourceGraphic"/>
    </filter>
    <clipPath id="clip-path">
      <rect id="Rectangle_411018" data-name="Rectangle 411018" width="58" height="68" transform="translate(16.152 15.937)" fill="#fff" stroke="#707070" stroke-width="1" opacity="0"/>
    </clipPath>
  </defs>
  <g id="Group_1204638" data-name="Group 1204638" transform="translate(9 6)">
    <g id="Group_1203657" data-name="Group 1203657">
      <g transform="matrix(1, 0, 0, 1, -9, -6)" filter="url(#Ellipse_12740)">
        <g id="Ellipse_12740-2" data-name="Ellipse 12740" transform="translate(9 6)" fill="#5bd4dd" stroke="#3f939a" stroke-width="1">
          <circle cx="45" cy="45" r="45" stroke="none"/>
          <circle cx="45" cy="45" r="44.5" fill="none"/>
        </g>
      </g>
    </g>
    <g id="Mask_Group_1099461" data-name="Mask Group 1099461" clip-path="url(#clip-path)">
      <g id="presentacion" transform="translate(14.379 19.071)">
        <path id="Path_1245410" data-name="Path 1245410" d="M7.487,19.523a.241.241,0,1,0-.481,0v6.818H2.736V19.31a4.042,4.042,0,0,1,4.038-4.036h9.556a4.041,4.041,0,0,1,4.038,4.036v7.031H16.586V19.523a.238.238,0,1,0-.476,0v6.818H7.487Z" fill="#60b7ff" fill-rule="evenodd"/>
        <path id="Path_1245411" data-name="Path 1245411" d="M7.359,8.951a4.193,4.193,0,1,1,4.2,4.195A4.2,4.2,0,0,1,7.359,8.951Z" fill="#f6dccd" fill-rule="evenodd"/>
        <path id="Path_1245412" data-name="Path 1245412" d="M7.487,26.822h4.068V39.093H7.487Z" fill="#968996" fill-rule="evenodd"/>
        <path id="Path_1245413" data-name="Path 1245413" d="M12.036,26.822h4.073V39.093H12.036Z" fill="#968996" fill-rule="evenodd"/>
        <path id="Path_1245414" data-name="Path 1245414" d="M24.707,6.222a1.7,1.7,0,1,1,0-3.393H57.114a1.7,1.7,0,0,1,0,3.393Z" fill="#87d4ed" fill-rule="evenodd"/>
        <path id="Path_1245415" data-name="Path 1245415" d="M25.208,6.7h31.4V27.128h-31.4Z" fill="#f1f1f2" fill-rule="evenodd"/>
        <path id="Path_1245416" data-name="Path 1245416" d="M57.114,27.609a1.7,1.7,0,0,1,0,3.393H24.707a1.7,1.7,0,1,1,0-3.393Z" fill="#87d4ed" fill-rule="evenodd"/>
        <g id="Group_1204990" data-name="Group 1204990">
          <path id="Path_1245417" data-name="Path 1245417" d="M54.775,53.142a3.846,3.846,0,0,1,2.87,1.324,4.681,4.681,0,0,1,1.164,3.122v.564a.712.712,0,0,1-.663.748H48.575a.712.712,0,0,1-.663-.748v-.564a4.678,4.678,0,0,1,1.164-3.122,3.85,3.85,0,0,1,2.87-1.324Z" fill="#60b7ff" fill-rule="evenodd"/>
          <path id="Path_1245418" data-name="Path 1245418" d="M45.49,57.588v.564a.716.716,0,0,1-.663.748H35.256a.712.712,0,0,1-.663-.748v-.564a4.678,4.678,0,0,1,1.164-3.122,3.85,3.85,0,0,1,2.87-1.324h2.83a3.845,3.845,0,0,1,2.867,1.324,4.675,4.675,0,0,1,1.166,3.122Z" fill="#60b7ff" fill-rule="evenodd"/>
          <path id="Path_1245419" data-name="Path 1245419" d="M32.169,57.588v.564a.716.716,0,0,1-.663.748H21.931a.716.716,0,0,1-.663-.748v-.564a4.678,4.678,0,0,1,1.166-3.124,3.854,3.854,0,0,1,2.872-1.322h2.825A3.856,3.856,0,0,1,31,54.465,4.68,4.68,0,0,1,32.169,57.588Z" fill="#60b7ff" fill-rule="evenodd"/>
        </g>
        <path id="Path_1245420" data-name="Path 1245420" d="M26.721,52.287a2.467,2.467,0,0,1-2.342-1.617,4.768,4.768,0,0,1-.365-2.283,3.256,3.256,0,0,1,.662-1.846,2.518,2.518,0,0,1,2.043-.865,2.535,2.535,0,0,1,2.043.865,3.239,3.239,0,0,1,.658,1.847,4.778,4.778,0,0,1-.366,2.281,2.46,2.46,0,0,1-2.334,1.617Z" fill="#f6dccd" fill-rule="evenodd"/>
        <path id="Path_1245421" data-name="Path 1245421" d="M38,46.542a2.511,2.511,0,0,1,2.044-.865,2.538,2.538,0,0,1,2.044.865,3.267,3.267,0,0,1,.661,1.846,4.725,4.725,0,0,1-.365,2.283,2.5,2.5,0,0,1-4.682,0,4.752,4.752,0,0,1-.362-2.283A3.271,3.271,0,0,1,38,46.542Z" fill="#f6dccd" fill-rule="evenodd"/>
        <path id="Path_1245422" data-name="Path 1245422" d="M51.317,46.541a2.847,2.847,0,0,1,4.088,0,3.266,3.266,0,0,1,.659,1.846A4.752,4.752,0,0,1,55.7,50.67a2.5,2.5,0,0,1-4.682,0,4.73,4.73,0,0,1-.365-2.284A3.256,3.256,0,0,1,51.317,46.541Z" fill="#f6dccd" fill-rule="evenodd"/>
        <path id="Path_1245423" data-name="Path 1245423" d="M40.7,18.529H42.86v4.459H40.7Z" fill="#87d4ed" fill-rule="evenodd"/>
        <path id="Path_1245424" data-name="Path 1245424" d="M40.464,18.048a.241.241,0,0,0-.241.241v4.941a.241.241,0,0,0,.241.241H43.1a.241.241,0,0,0,.241-.241V18.288a.241.241,0,0,0-.241-.241Z" fill="#fe616c" fill-rule="evenodd"/>
        <path id="Path_1245425" data-name="Path 1245425" d="M37.052,17.3a4.789,4.789,0,1,1-5.528-5.524l.562-.1V16.5a.241.241,0,0,0,.241.241h4.819Z" fill="#87d4ed" fill-rule="evenodd"/>
        <path id="Path_1245426" data-name="Path 1245426" d="M32.573,11.453a.241.241,0,0,0-.226-.22h-.018A5.27,5.27,0,1,0,37.6,16.5a.24.24,0,0,0-.237-.239h-4.8V11.521c0-.023,0-.047,0-.069Z" fill="#60b7ff" fill-rule="evenodd"/>
        <path id="Path_1245427" data-name="Path 1245427" d="M38.985,14.418H34.411V9.843l.562.1a4.8,4.8,0,0,1,3.917,3.919Z" fill="#87d4ed" fill-rule="evenodd"/>
        <path id="Path_1245428" data-name="Path 1245428" d="M34.174,9.388h0a.241.241,0,0,0-.241.241v5.03a.241.241,0,0,0,.241.241H39.2a.236.236,0,0,0,.17-.072.247.247,0,0,0,.071-.171A5.274,5.274,0,0,0,34.174,9.388Z" fill="#fe616c" fill-rule="evenodd"/>
        <path id="Path_1245429" data-name="Path 1245429" d="M46.1,15.793h2.156v7.2H46.1Z" fill="#87d4ed" fill-rule="evenodd"/>
        <path id="Path_1245430" data-name="Path 1245430" d="M45.863,15.312a.241.241,0,0,0-.241.241v7.677a.241.241,0,0,0,.241.241H48.5a.241.241,0,0,0,.241-.241V15.552a.241.241,0,0,0-.241-.241Z" fill="#ffd064" fill-rule="evenodd"/>
        <path id="Path_1245431" data-name="Path 1245431" d="M51.508,13.047h2.156v9.941H51.508Z" fill="#87d4ed" fill-rule="evenodd"/>
        <path id="Path_1245432" data-name="Path 1245432" d="M51.027,23.229a.241.241,0,0,0,.241.241h2.639a.241.241,0,0,0,.241-.241V12.806a.241.241,0,0,0-.241-.241H51.268a.241.241,0,0,0-.241.241Z" fill="#60b7ff" fill-rule="evenodd"/>
        <path id="Path_1245433" data-name="Path 1245433" d="M51.99,13.528h1.194v8.979H51.99Zm-.722,10.423h2.639a.722.722,0,0,0,.722-.722V12.806a.723.723,0,0,0-.722-.722H51.268a.723.723,0,0,0-.722.722V23.229A.722.722,0,0,0,51.268,23.951Zm-4.682-7.677h1.194v6.233H46.586Zm-.723,7.677H48.5a.722.722,0,0,0,.722-.722V15.552a.723.723,0,0,0-.722-.722H45.863a.723.723,0,0,0-.722.722v7.677A.723.723,0,0,0,45.863,23.951Zm11.252,6.57H24.707a1.215,1.215,0,1,1,0-2.431H57.114a1.215,1.215,0,0,1,0,2.431Zm-33.625-26A1.217,1.217,0,0,1,24.708,3.31H57.116a1.215,1.215,0,0,1,0,2.431H24.707A1.217,1.217,0,0,1,23.489,4.525ZM56.131,7.185H25.69V26.646H56.131Zm1.445,19.5V7.144a2.659,2.659,0,0,0-.462-5.278H24.707a2.659,2.659,0,0,0-.462,5.278V26.687a2.659,2.659,0,0,0,.462,5.278H40.188V36.2l-4.083,4.081a.722.722,0,1,0,1.022,1.02l3.784-3.782L44.694,41.3a.707.707,0,0,0,.511.212.722.722,0,0,0,.511-1.232L41.633,36.2V31.965H57.114a2.659,2.659,0,0,0,.462-5.278ZM34.892,10.412a4.317,4.317,0,0,1,3.523,3.524H34.892Zm-.723,4.968a.723.723,0,0,1-.722-.722V9.629a.723.723,0,0,1,.722-.722h0a5.757,5.757,0,0,1,5.748,5.749.725.725,0,0,1-.723.724Zm-2.564-3.127V16.5a.723.723,0,0,0,.722.722h4.25a4.308,4.308,0,1,1-4.972-4.97Zm.722,10a5.751,5.751,0,0,1,0-11.5l.049,0a.724.724,0,0,1,.679.744.054.054,0,0,0,0,.026v4.257h4.309a.722.722,0,0,1,.722.721A5.758,5.758,0,0,1,32.327,22.251Zm8.858-3.24h1.194v3.5H41.186Zm-1.444,4.219V18.288a.723.723,0,0,1,.722-.722H43.1a.723.723,0,0,1,.722.722v4.941a.722.722,0,0,1-.722.722H40.464A.722.722,0,0,1,39.742,23.229ZM58.327,58.153c0,.153-.094.267-.182.267H48.575c-.088,0-.182-.114-.182-.267v-.564a3.779,3.779,0,0,1,3.552-3.965h2.83a3.779,3.779,0,0,1,3.552,3.965Zm-6.652-11.29a2.366,2.366,0,0,1,3.37,0,3.855,3.855,0,0,1,.217,3.611,2.023,2.023,0,0,1-3.8,0A3.848,3.848,0,0,1,51.676,46.863Zm4.073,5.421a4.009,4.009,0,0,0,.83-1.221,5.228,5.228,0,0,0-.457-5.163,3.81,3.81,0,0,0-5.523,0,5.228,5.228,0,0,0-.457,5.163,4.009,4.009,0,0,0,.83,1.221,5.328,5.328,0,0,0-4.024,5.305v.564a1.671,1.671,0,0,0,1.627,1.711h9.571a1.671,1.671,0,0,0,1.627-1.711v-.564A5.33,5.33,0,0,0,55.749,52.283Zm-10.74,5.87c0,.153-.1.267-.182.267H35.256c-.089,0-.182-.114-.182-.267v-.564a3.779,3.779,0,0,1,3.552-3.965h2.83a3.783,3.783,0,0,1,3.552,3.965Zm-6.653-11.29a2.034,2.034,0,0,1,1.686-.705,2.059,2.059,0,0,1,1.686.705,3.855,3.855,0,0,1,.217,3.611,2.023,2.023,0,0,1-3.8,0,3.852,3.852,0,0,1,.214-3.611Zm4.068,5.421a3.936,3.936,0,0,0,.835-1.221A5.228,5.228,0,0,0,42.8,45.9a3.81,3.81,0,0,0-5.523,0,5.228,5.228,0,0,0-.457,5.163,3.925,3.925,0,0,0,.83,1.221,5.328,5.328,0,0,0-4.024,5.305v.564a1.671,1.671,0,0,0,1.627,1.711h9.571a1.674,1.674,0,0,0,1.627-1.711v-.564a5.327,5.327,0,0,0-4.029-5.305Zm-10.736,5.87c0,.153-.1.267-.182.267H21.931c-.083,0-.182-.114-.182-.267v-.564a3.783,3.783,0,0,1,3.557-3.965h2.825a3.783,3.783,0,0,1,3.557,3.965Zm-6.652-11.29a2.034,2.034,0,0,1,1.686-.705,2.065,2.065,0,0,1,1.686.705,3.856,3.856,0,0,1,.212,3.611,2.019,2.019,0,0,1-3.8,0,3.832,3.832,0,0,1,.214-3.611ZM29.1,52.283a4.02,4.02,0,0,0,.835-1.221,5.24,5.24,0,0,0-.462-5.163,3.454,3.454,0,0,0-2.757-1.185A3.457,3.457,0,0,0,23.959,45.9a5.24,5.24,0,0,0-.462,5.163,4.02,4.02,0,0,0,.835,1.221,5.322,5.322,0,0,0-4.024,5.305v.564a1.67,1.67,0,0,0,1.621,1.711h9.576a1.674,1.674,0,0,0,1.627-1.711v-.564A5.325,5.325,0,0,0,29.1,52.283ZM15.628,38.612h-3.11V27.3h3.11ZM7.968,27.3h3.106V38.612H7.968ZM3.218,25.859V19.31a3.56,3.56,0,0,1,3.557-3.554h9.556a3.56,3.56,0,0,1,3.557,3.554v6.549h-2.82V19.523a.72.72,0,1,0-1.439,0v6.336H7.968V19.523a.722.722,0,0,0-1.444,0v6.336ZM20.61,27.3a.722.722,0,0,0,.722-.722V19.31a5.006,5.006,0,0,0-5-5H6.774a5.006,5.006,0,0,0-5,5v7.271a.722.722,0,0,0,.722.722H6.523v12.03a.722.722,0,0,0,.722.722h9.1a.718.718,0,0,0,.717-.722V27.3ZM11.555,5.238A3.713,3.713,0,1,1,7.84,8.951,3.716,3.716,0,0,1,11.555,5.238Zm0,8.871A5.157,5.157,0,1,0,6.4,8.951,5.163,5.163,0,0,0,11.555,14.108Z" fill-rule="evenodd"/>
      </g>
    </g>
  </g>
</svg>
