<svg xmlns="http://www.w3.org/2000/svg" xmlns:xlink="http://www.w3.org/1999/xlink" width="108" height="108" viewBox="0 0 108 108">
  <defs>
    <filter id="Ellipse_12740" x="0" y="0" width="108" height="108" filterUnits="userSpaceOnUse">
      <feOffset dy="3" input="SourceAlpha"/>
      <feGaussianBlur stdDeviation="3" result="blur"/>
      <feFlood flood-opacity="0.161"/>
      <feComposite operator="in" in2="blur"/>
      <feComposite in="SourceGraphic"/>
    </filter>
    <clipPath id="clip-path">
      <rect id="Rectangle_411018" data-name="Rectangle 411018" width="58" height="68" transform="translate(-6848 -10740)" fill="#fff" stroke="#707070" stroke-width="1" opacity="0"/>
    </clipPath>
  </defs>
  <g id="Group_1204548" data-name="Group 1204548" transform="translate(6873.153 10761.937)">
    <g id="Group_1203657" data-name="Group 1203657" transform="translate(-6864.153 -10755.937)">
      <g transform="matrix(1, 0, 0, 1, -9, -6)" filter="url(#Ellipse_12740)">
        <g id="Ellipse_12740-2" data-name="Ellipse 12740" transform="translate(9 6)" fill="#5bd4dd" stroke="#3f939a" stroke-width="1">
          <circle cx="45" cy="45" r="45" stroke="none"/>
          <circle cx="45" cy="45" r="44.5" fill="none"/>
        </g>
      </g>
    </g>
    <g id="Mask_Group_1099458" data-name="Mask Group 1099458" clip-path="url(#clip-path)">
      <g id="analista-de-la-red" transform="translate(-6849.934 -10736.934)">
        <path id="Path_1245327" data-name="Path 1245327" d="M58.967,51.4v5.462l-2.813-2.813L49.4,47.289a14.559,14.559,0,0,0,2.726-2.726Z" fill="#ff9478"/>
        <path id="Path_1245328" data-name="Path 1245328" d="M58.967,4.833V8.7H2.9V4.833A1.939,1.939,0,0,1,4.833,2.9h52.2a1.939,1.939,0,0,1,1.933,1.933Z" fill="#ffeb99"/>
        <path id="Path_1245329" data-name="Path 1245329" d="M58.967,51.4V8.7H2.9V57.033a1.939,1.939,0,0,0,1.933,1.933h52.2a1.939,1.939,0,0,0,1.933-1.933v-.174l-2.813-2.813L49.4,47.289a14.55,14.55,0,0,1-3,1.769v5.075H21.267V27.067h5.8v3.49a14.472,14.472,0,0,1,3.867-5.587V17.4h5.8v4.389a14.582,14.582,0,0,1,3.867-.522V13.533h5.8v8.951a14.486,14.486,0,0,1,5.723,22.079ZM11.6,54.133v-17.4h5.8v17.4Z" fill="#57a4ff"/>
        <path id="Path_1245330" data-name="Path 1245330" d="M46.4,49.058a14.527,14.527,0,0,1-19.333-8.081v-.01a14.473,14.473,0,0,1,0-10.4v-.01A14.508,14.508,0,0,1,46.4,22.475v.01a14.507,14.507,0,0,1,0,26.574Zm4.833-13.292A10.633,10.633,0,1,0,40.6,46.4,10.633,10.633,0,0,0,51.233,35.767Z" fill="#ffeb99"/>
        <circle id="Ellipse_13486" data-name="Ellipse 13486" cx="10.633" cy="10.633" r="10.633" transform="translate(29.967 25.133)" fill="#ff9478"/>
        <path id="Path_1245331" data-name="Path 1245331" d="M46.4,49.058v5.075H40.6V50.267a14.52,14.52,0,0,0,5.8-1.209Z" fill="#009698"/>
        <path id="Path_1245332" data-name="Path 1245332" d="M46.4,13.533v8.942a14.518,14.518,0,0,0-5.8-1.208V13.533Z" fill="#009698"/>
        <path id="Path_1245333" data-name="Path 1245333" d="M40.6,50.267v3.867H36.733V49.745A14.582,14.582,0,0,0,40.6,50.267Z" fill="#57a4ff"/>
        <path id="Path_1245334" data-name="Path 1245334" d="M36.733,49.745v4.389h-5.8V46.564a14.383,14.383,0,0,0,5.8,3.18Z" fill="#00d7df"/>
        <path id="Path_1245335" data-name="Path 1245335" d="M36.733,17.4v4.389a14.383,14.383,0,0,0-5.8,3.18V17.4Z" fill="#00d7df"/>
        <path id="Path_1245336" data-name="Path 1245336" d="M30.933,46.564v7.569H27.067V40.977A14.472,14.472,0,0,0,30.933,46.564Z" fill="#57a4ff"/>
        <path id="Path_1245337" data-name="Path 1245337" d="M27.067,40.977V54.133h-5.8V27.067h5.8v3.5a14.473,14.473,0,0,0,0,10.4Z" fill="#009698"/>
        <path id="Path_1245338" data-name="Path 1245338" d="M11.6,36.733h5.8v17.4H11.6Z" fill="#00d7df"/>
        <path id="Path_1245339" data-name="Path 1245339" d="M57.033,1.933H4.833a2.9,2.9,0,0,0-2.9,2.9v52.2a2.9,2.9,0,0,0,2.9,2.9h52.2a2.9,2.9,0,0,0,2.9-2.9V4.833a2.9,2.9,0,0,0-2.9-2.9ZM50.82,47.345a15.82,15.82,0,0,0,1.359-1.359L58,51.8v2.727ZM37.7,53.167V50.951a15.327,15.327,0,0,0,1.933.233v1.983Zm-9.667,0V44.749a15.66,15.66,0,0,0,1.933,2.223v6.194ZM26.1,30.435a15.184,15.184,0,0,0,0,10.662V53.167H22.233V28.033H26.1Zm9.667-9.352A15.421,15.421,0,0,0,31.9,22.989V18.367h3.867ZM40.6,22.233A13.533,13.533,0,1,1,27.067,35.767,13.533,13.533,0,0,1,40.6,22.233Zm4.833-1.149a15.37,15.37,0,0,0-3.867-.735V14.5h3.867ZM31.9,48.544a15.421,15.421,0,0,0,3.867,1.905v2.717H31.9Zm9.667,2.64a15.369,15.369,0,0,0,3.867-.735v2.717H41.567Zm5.8-1.531a15.557,15.557,0,0,0,1.925-1.1l4.616,4.616h-6.54ZM4.833,3.867h52.2A.967.967,0,0,1,58,4.833v2.9H3.867v-2.9A.967.967,0,0,1,4.833,3.867ZM57.033,58H4.833a.967.967,0,0,1-.967-.967V9.667H58v39.4l-4.615-4.609A15.429,15.429,0,0,0,47.367,21.88V13.533a.967.967,0,0,0-.967-.967H40.6a.967.967,0,0,0-.967.967v6.816a15.328,15.328,0,0,0-1.933.233V17.4a.967.967,0,0,0-.967-.967h-5.8a.967.967,0,0,0-.967.967v7.164a15.543,15.543,0,0,0-1.978,2.28.954.954,0,0,0-.922-.744h-5.8a.967.967,0,0,0-.967.967v26.1H18.367V36.733a.967.967,0,0,0-.967-.967H11.6a.967.967,0,0,0-.967.967V53.167H8.7V11.6H6.767V54.133a.967.967,0,0,0,.967.967H55.84l2.127,2.127a.954.954,0,0,1-.934.773Zm-40.6-4.833H12.567V37.7h3.867Z"/>
        <path id="Path_1245340" data-name="Path 1245340" d="M5.8,4.833H7.733V6.767H5.8Z"/>
        <path id="Path_1245341" data-name="Path 1245341" d="M9.667,4.833H11.6V6.767H9.667Z"/>
        <path id="Path_1245342" data-name="Path 1245342" d="M13.533,4.833h1.933V6.767H13.533Z"/>
        <path id="Path_1245343" data-name="Path 1245343" d="M40.6,47.367A11.6,11.6,0,1,0,29,35.767,11.6,11.6,0,0,0,40.6,47.367Zm0-21.267a9.667,9.667,0,1,1-9.667,9.667A9.667,9.667,0,0,1,40.6,26.1Z"/>
      </g>
    </g>
  </g>
</svg>
