<svg xmlns="http://www.w3.org/2000/svg" xmlns:xlink="http://www.w3.org/1999/xlink" width="72" height="72" viewBox="0 0 72 72">
  <defs>
    <clipPath id="clip-path">
      <rect id="Rectangle_411087" data-name="Rectangle 411087" width="47" height="47" transform="translate(233.051 6858)" fill="#fff" stroke="#707070" stroke-width="1"/>
    </clipPath>
  </defs>
  <g id="Group_1205033" data-name="Group 1205033" transform="translate(-215 -6662.688)">
    <g id="Group_1203761" data-name="Group 1203761" transform="translate(-6 -183)">
      <g id="Group_1203761-2" data-name="Group 1203761" transform="translate(-198 5724.688)">
        <path id="Path_824488" data-name="Path 824488" d="M36,0A36,36,0,1,1,0,36,36,36,0,0,1,36,0Z" transform="translate(419 1121)" fill="#bdedf1"/>
      </g>
    </g>
    <g id="Group_1205019" data-name="Group 1205019" transform="translate(-6 -183)">
      <g id="Mask_Group_1099456" data-name="Mask Group 1099456" clip-path="url(#clip-path)">
        <g id="pdf" transform="translate(233.051 6858)">
          <g id="Group_1205019-2" data-name="Group 1205019">
            <path id="Path_1245575" data-name="Path 1245575" d="M8.047,30.123H6.575A3.679,3.679,0,0,1,2.9,26.443,2.208,2.208,0,0,1,5.1,24.236H8.047Z" fill="#bd4150"/>
            <path id="Path_1245576" data-name="Path 1245576" d="M43.673,7.616l-6.5-6.5A1.472,1.472,0,0,0,36.136.689H8.783A1.472,1.472,0,0,0,7.311,2.16V25.152L8.783,46.312H42.632A1.472,1.472,0,0,0,44.1,44.84V8.657a1.471,1.471,0,0,0-.431-1.041Z" fill="#eceaec"/>
            <path id="Path_1245577" data-name="Path 1245577" d="M44.1,8.657a1.472,1.472,0,0,0-.431-1.041l-6.5-6.5A1.472,1.472,0,0,0,36.136.689H36.01V8.047a.736.736,0,0,0,.736.736H44.1Z" fill="#dad8db"/>
            <path id="Path_1245578" data-name="Path 1245578" d="M9.519,42.632V.688H8.783A1.472,1.472,0,0,0,7.311,2.16V44.84a1.472,1.472,0,0,0,1.472,1.472H42.632A1.472,1.472,0,0,0,44.1,44.84V44.1H10.99a1.473,1.473,0,0,1-1.472-1.472Z" fill="#dad8db"/>
            <path id="Path_1245579" data-name="Path 1245579" d="M27.915,28.651H5.1A2.208,2.208,0,0,1,2.9,26.443V39.689A2.208,2.208,0,0,0,5.1,41.9H27.915a1.472,1.472,0,0,0,1.472-1.472v-10.3a1.472,1.472,0,0,0-1.472-1.472Z" fill="#e15f78"/>
            <path id="Path_1245580" data-name="Path 1245580" d="M5.1,41.9H27.915a1.472,1.472,0,0,0,1.472-1.472v-.736H6.575A1.473,1.473,0,0,1,5.1,38.217V28.651A2.208,2.208,0,0,1,2.9,26.443V39.689A2.207,2.207,0,0,0,5.1,41.9Z" fill="#db4655"/>
          </g>
          <g id="Group_1205020" data-name="Group 1205020">
            <path id="Path_1245581" data-name="Path 1245581" d="M44.16,7.129l-6.5-6.5A2.146,2.146,0,0,0,36.136,0H8.783a2.163,2.163,0,0,0-2.16,2.16V23.547H5.1a2.9,2.9,0,0,0-2.9,2.9V39.689a2.9,2.9,0,0,0,2.9,2.9H27.915a2.163,2.163,0,0,0,2.16-2.16v-10.3a2.163,2.163,0,0,0-2.16-2.16H5.1a1.519,1.519,0,0,1,0-3.038H6.623v.783a.688.688,0,0,0,1.377,0V2.16a.784.784,0,0,1,.783-.783H35.321v6.67a1.426,1.426,0,0,0,1.424,1.424h6.67V44.84a.784.784,0,0,1-.783.783H8.783A.784.784,0,0,1,8,44.84a.688.688,0,0,0-1.377,0A2.163,2.163,0,0,0,8.783,47H42.632a2.163,2.163,0,0,0,2.16-2.16V8.657A2.146,2.146,0,0,0,44.16,7.129ZM5.1,29.339H27.915a.784.784,0,0,1,.783.783v10.3a.784.784,0,0,1-.783.783H5.1a1.521,1.521,0,0,1-1.519-1.519V28.908A2.877,2.877,0,0,0,5.1,29.339ZM36.7,8.047V1.615l6.48,6.479H36.745A.048.048,0,0,1,36.7,8.047Z"/>
            <path id="Path_1245582" data-name="Path 1245582" d="M21.716,38.884A.688.688,0,0,0,22.4,38.2V35.907H23.9a.688.688,0,0,0,0-1.377H22.4V33.04h1.68a.688.688,0,0,0,0-1.377H21.716a.688.688,0,0,0-.688.688V38.2a.689.689,0,0,0,.688.689Z"/>
            <path id="Path_1245583" data-name="Path 1245583" d="M14.48,38.619a.688.688,0,0,0,.485.2h0c.049,0,1.2,0,1.663-.013,1.7-.03,2.936-1.515,2.936-3.532,0-2.12-1.2-3.545-3-3.545H14.954a.689.689,0,0,0-.688.69v0h0v5.614a.968.968,0,0,0,.215.581Zm2.091-5.513c1.193,0,1.618,1.12,1.618,2.168,0,1.47-.8,2.142-1.583,2.155-.219,0-.61.007-.956.009,0-.675-.007-3.63-.008-4.332Z"/>
            <path id="Path_1245584" data-name="Path 1245584" d="M8.762,38.906a.688.688,0,0,0,.688-.688V36.345l.951,0a2.35,2.35,0,1,0,0-4.7H8.762a.688.688,0,0,0-.688.688h0v5.887a.688.688,0,0,0,.688.689ZM10.4,33.019a.973.973,0,1,1,0,1.946l-.943,0c0-.352,0-1.581-.006-1.949H10.4Z"/>
            <path id="Path_1245585" data-name="Path 1245585" d="M21.659,19.962a11.086,11.086,0,0,0-4.355,2.23,1.922,1.922,0,0,0-.38,2.512,1.643,1.643,0,0,0,1.391.834,1.831,1.831,0,0,0,.654-.128,6.621,6.621,0,0,0,2.671-2.691c.319-.485.642-1.023.964-1.606l.358-.1a34.342,34.342,0,0,1,6.07-1.1,8.421,8.421,0,0,0,3.428,2.265,1.922,1.922,0,0,0,2.417-1.395,1.43,1.43,0,0,0-.7-1.74,7.11,7.11,0,0,0-3.516-.591c-.352,0-.723.018-1.11.042A26.3,26.3,0,0,1,27.3,15.8a26.541,26.541,0,0,1-1.527-2.31q.071-.245.135-.482a10.484,10.484,0,0,0,.5-3.972c-.2-1.286-1.031-1.468-1.379-1.487a1.837,1.837,0,0,0-2.131,1.6,6.586,6.586,0,0,0,.844,3.455c.162.344.343.7.543,1.061q-.111.357-.242.744a39.559,39.559,0,0,1-2.38,5.559Zm-3.306,4.195c-.049.006-.132.017-.273-.2a.424.424,0,0,1-.023-.5,5.255,5.255,0,0,1,2.533-1.651c-1.06,1.644-1.852,2.3-2.237,2.348ZM33.581,20.3a.245.245,0,0,1-.011.047c-.172.525-.4.574-.8.482A4.978,4.978,0,0,1,31,19.823C32.845,19.837,33.487,20.169,33.581,20.3ZM24.258,9.338c.028-.2.06-.418.583-.418l.1,0c.157.191.237,1.041-.125,2.723a4.918,4.918,0,0,1-.563-2.308Zm.959,5.875c.3.464.627.933.972,1.4.494.671,1.053,1.368,1.643,2.034-.683.082-1.388.189-2.093.317-.477.087-1.309.25-2.282.493q.324-.672.637-1.389c.414-.948.795-1.918,1.123-2.856Z"/>
          </g>
        </g>
      </g>
    </g>
  </g>
</svg>
