<svg xmlns="http://www.w3.org/2000/svg" xmlns:xlink="http://www.w3.org/1999/xlink" width="108" height="108" viewBox="0 0 108 108">
  <defs>
    <filter id="Ellipse_12740" x="0" y="0" width="108" height="108" filterUnits="userSpaceOnUse">
      <feOffset dy="3" input="SourceAlpha"/>
      <feGaussianBlur stdDeviation="3" result="blur"/>
      <feFlood flood-opacity="0.161"/>
      <feComposite operator="in" in2="blur"/>
      <feComposite in="SourceGraphic"/>
    </filter>
    <clipPath id="clip-path">
      <rect id="Rectangle_411018" data-name="Rectangle 411018" width="58" height="68" transform="translate(-6848 -10740)" fill="#fff" stroke="#707070" stroke-width="1" opacity="0"/>
    </clipPath>
  </defs>
  <g id="Group_1203868" data-name="Group 1203868" transform="translate(6873.153 10761.937)">
    <g id="Group_1203657" data-name="Group 1203657" transform="translate(-6864.153 -10755.937)">
      <g transform="matrix(1, 0, 0, 1, -9, -6)" filter="url(#Ellipse_12740)">
        <g id="Ellipse_12740-2" data-name="Ellipse 12740" transform="translate(9 6)" fill="#5bd4dd" stroke="#3f939a" stroke-width="1">
          <circle cx="45" cy="45" r="45" stroke="none"/>
          <circle cx="45" cy="45" r="44.5" fill="none"/>
        </g>
      </g>
    </g>
    <g id="Mask_Group_1099437" data-name="Mask Group 1099437" clip-path="url(#clip-path)">
      <g id="gestion-de-archivos" transform="translate(-6848.936 -10735.936)">
        <g id="Group_1204930" data-name="Group 1204930">
          <g id="Group_1204928" data-name="Group 1204928">
            <path id="Path_1245003" data-name="Path 1245003" d="M44,4.35h7.039a2.329,2.329,0,0,1,2.323,2.323v7.039a2.329,2.329,0,0,1-2.323,2.323H44a2.329,2.329,0,0,1-2.323-2.323V6.672A2.329,2.329,0,0,1,44,4.35Z" fill="#fe646f" fill-rule="evenodd"/>
            <path id="Path_1245004" data-name="Path 1245004" d="M44,24.091h7.039a2.329,2.329,0,0,1,2.323,2.323v7.039a2.329,2.329,0,0,1-2.323,2.323H44a2.329,2.329,0,0,1-2.323-2.323V26.414A2.329,2.329,0,0,1,44,24.091Z" fill="#ffe177" fill-rule="evenodd"/>
            <path id="Path_1245005" data-name="Path 1245005" d="M44,43.833h7.039a2.329,2.329,0,0,1,2.323,2.323v7.039a2.329,2.329,0,0,1-2.323,2.323H44a2.329,2.329,0,0,1-2.323-2.323V46.156A2.329,2.329,0,0,1,44,43.833Z" fill="#6cf5c2" fill-rule="evenodd"/>
          </g>
          <g id="Group_1204929" data-name="Group 1204929">
            <path id="Path_1245006" data-name="Path 1245006" d="M27.012,48.079H3.04A1.172,1.172,0,0,1,1.87,46.909V11.637A1.172,1.172,0,0,1,3.04,10.468H20.225a1.13,1.13,0,0,1,.844.36l6.787,7.084a1.129,1.129,0,0,1,.325.809V46.909a1.172,1.172,0,0,1-1.169,1.169Z" fill="#eceff1" fill-rule="evenodd"/>
            <path id="Path_1245007" data-name="Path 1245007" d="M3.6,48.079H3.04A1.172,1.172,0,0,1,1.87,46.909V11.637A1.172,1.172,0,0,1,3.04,10.468H3.6Z" fill="#d1d1d6" fill-rule="evenodd"/>
            <path id="Path_1245008" data-name="Path 1245008" d="M20.4,10.48a1.125,1.125,0,0,1,.672.349l6.787,7.084a1.17,1.17,0,0,1,.23.339h-7.1a.586.586,0,0,1-.585-.585Z" fill="#a79ba7" fill-rule="evenodd"/>
          </g>
        </g>
        <path id="Path_1245009" data-name="Path 1245009" d="M42.612,53.2A1.388,1.388,0,0,0,44,54.584h7.04A1.388,1.388,0,0,0,52.425,53.2V50.227l-2.1,1.9a.934.934,0,0,1-1.289-.031L45.62,48.681a.936.936,0,1,1,1.323-1.323l2.786,2.787L52.425,47.7V46.158a1.388,1.388,0,0,0-1.387-1.387H44a1.388,1.388,0,0,0-1.386,1.387V53.2ZM27.246,47.145V19.189H20.4a.935.935,0,0,1-.935-.936V11.406H2.807V47.144h24.44ZM21.334,12.458l4.657,4.86H21.334Zm21.278,1.255A1.388,1.388,0,0,0,44,15.1h7.04a1.388,1.388,0,0,0,1.387-1.387V10.744l-2.1,1.9a.934.934,0,0,1-1.289-.031L45.62,9.2a.936.936,0,1,1,1.323-1.323l2.786,2.787,2.694-2.444V6.674a1.388,1.388,0,0,0-1.387-1.387H44a1.388,1.388,0,0,0-1.386,1.387v7.039Zm0,19.742A1.388,1.388,0,0,0,44,34.842h7.04a1.388,1.388,0,0,0,1.387-1.387V30.486l-2.1,1.9a.935.935,0,0,1-1.289-.031L45.62,28.939a.936.936,0,1,1,1.323-1.323L49.73,30.4l2.694-2.444V26.416a1.388,1.388,0,0,0-1.387-1.387H44a1.388,1.388,0,0,0-1.386,1.387v7.039Zm-1.871,0V30.866l-5.413-.027v17.9h5.413V46.158A3.262,3.262,0,0,1,44,42.9h7.04a3.263,3.263,0,0,1,3.255,3.107l3.079-2.8A.936.936,0,0,1,58.629,44.6L54.3,48.53V53.2a3.262,3.262,0,0,1-3.258,3.258H44A3.262,3.262,0,0,1,40.741,53.2V50.613H34.392a.935.935,0,0,1-.936-.935V30.83l-4.34-.022V48.08a.935.935,0,0,1-.935.936H1.871a.935.935,0,0,1-.935-.936V10.47a.936.936,0,0,1,.935-.936H20.725a.933.933,0,0,1,.675.288l7.458,7.783a.938.938,0,0,1,.259.647V28.936l4.34.022V10.193a.935.935,0,0,1,.936-.935h6.349V6.674A3.262,3.262,0,0,1,44,3.416h7.04a3.263,3.263,0,0,1,3.255,3.107l3.079-2.8A.936.936,0,0,1,58.63,5.113L54.3,9.046v4.667a3.262,3.262,0,0,1-3.258,3.258H44a3.262,3.262,0,0,1-3.257-3.258V11.129H35.328V28.968l5.413.027V26.416A3.262,3.262,0,0,1,44,23.158h7.04a3.263,3.263,0,0,1,3.255,3.107l3.079-2.8a.936.936,0,0,1,1.259,1.385L54.3,28.787v4.667a3.262,3.262,0,0,1-3.258,3.258H44a3.262,3.262,0,0,1-3.257-3.258ZM23.395,38.185a.935.935,0,0,1,0,1.87H6.659a.935.935,0,1,1,0-1.87Zm0-6.564a.935.935,0,0,1,0,1.87H6.659a.935.935,0,1,1,0-1.87Zm0-6.564a.936.936,0,0,1,0,1.871H6.659a.936.936,0,0,1,0-1.871ZM5.723,19.43a.935.935,0,0,1,.936-.936h9.736a.936.936,0,0,1,0,1.871H6.659a.935.935,0,0,1-.936-.936Z" fill-rule="evenodd"/>
      </g>
    </g>
  </g>
</svg>
