<svg xmlns="http://www.w3.org/2000/svg" xmlns:xlink="http://www.w3.org/1999/xlink" width="108" height="108" viewBox="0 0 108 108">
  <defs>
    <filter id="Ellipse_12740" x="0" y="0" width="108" height="108" filterUnits="userSpaceOnUse">
      <feOffset dy="3" input="SourceAlpha"/>
      <feGaussianBlur stdDeviation="3" result="blur"/>
      <feFlood flood-opacity="0.161"/>
      <feComposite operator="in" in2="blur"/>
      <feComposite in="SourceGraphic"/>
    </filter>
    <clipPath id="clip-path">
      <rect id="Rectangle_411018" data-name="Rectangle 411018" width="58" height="68" transform="translate(-6848 -10740)" fill="#fff" stroke="#707070" stroke-width="1" opacity="0"/>
    </clipPath>
  </defs>
  <g id="Group_1203866" data-name="Group 1203866" transform="translate(6873.153 10761.937)">
    <g id="Group_1203657" data-name="Group 1203657" transform="translate(-6864.153 -10755.937)">
      <g transform="matrix(1, 0, 0, 1, -9, -6)" filter="url(#Ellipse_12740)">
        <g id="Ellipse_12740-2" data-name="Ellipse 12740" transform="translate(9 6)" fill="#5bd4dd" stroke="#3f939a" stroke-width="1">
          <circle cx="45" cy="45" r="45" stroke="none"/>
          <circle cx="45" cy="45" r="44.5" fill="none"/>
        </g>
      </g>
    </g>
    <g id="Mask_Group_1099436" data-name="Mask Group 1099436" clip-path="url(#clip-path)">
      <g id="carpeta" transform="translate(-6849.938 -10736.938)">
        <path id="Path_1244981" data-name="Path 1244981" d="M46.437,33.844H29.8a1.937,1.937,0,0,1-1.37-.568L25.976,30.82a2.906,2.906,0,0,0-2.055-.851H15.438a2.906,2.906,0,0,0-2.906,2.906V58.062a2.906,2.906,0,0,0,2.906,2.906h31a2.906,2.906,0,0,0,2.906-2.906V36.75a2.906,2.906,0,0,0-2.906-2.906Z" fill="#ffe09f"/>
        <path id="Path_1244982" data-name="Path 1244982" d="M49.166,58.062H20.281a4.849,4.849,0,0,1-4.844-4.844V29.969a2.906,2.906,0,0,0-2.906,2.906V58.062a2.906,2.906,0,0,0,2.906,2.906h31a2.906,2.906,0,0,0,2.906-2.906h-.178Z" fill="#f6d190"/>
        <path id="Path_1244983" data-name="Path 1244983" d="M50.006,58.981l6.663-19.988a.969.969,0,0,0-.919-1.275H22.376a2.906,2.906,0,0,0-2.757,1.987l-6.634,19.9a2.9,2.9,0,0,0,2.453,1.36H47.249A2.907,2.907,0,0,0,50.006,58.981Z" fill="#ecbd83"/>
        <path id="Path_1244984" data-name="Path 1244984" d="M11.563.906H3.813a.969.969,0,0,0-.969.969v15.5a.969.969,0,0,0,.969.969H15.438a.969.969,0,0,0,.969-.969V5.75Z" fill="#eceaec"/>
        <circle id="Ellipse_13453" data-name="Ellipse 13453" cx="1.937" cy="1.937" r="1.937" transform="translate(29 22.219)" fill="#b6b1b7"/>
        <path id="Path_1244985" data-name="Path 1244985" d="M5.75,12.531V.906H3.813a.969.969,0,0,0-.969.969v15.5a.969.969,0,0,0,.969.969H15.438a.969.969,0,0,0,.969-.969V15.438H8.656A2.906,2.906,0,0,1,5.75,12.531Z" fill="#dad8db"/>
        <path id="Path_1244986" data-name="Path 1244986" d="M11.563,4.781a.969.969,0,0,0,.969.969h3.875L11.563.906Z" fill="#dad8db"/>
        <path id="Path_1244987" data-name="Path 1244987" d="M20.281,58.062a4.849,4.849,0,0,1-4.844-4.844V52.25l-2.453,7.358a2.9,2.9,0,0,0,2.453,1.36H47.249a2.906,2.906,0,0,0,2.757-1.987l.306-.919Z" fill="#e2a975"/>
        <path id="Path_1244988" data-name="Path 1244988" d="M32.875.906h-7.75a.969.969,0,0,0-.969.969v15.5a.969.969,0,0,0,.969.969H36.75a.969.969,0,0,0,.969-.969V5.75Z" fill="#eceaec"/>
        <path id="Path_1244989" data-name="Path 1244989" d="M27.062,12.531V.906H25.125a.969.969,0,0,0-.969.969v15.5a.969.969,0,0,0,.969.969H36.75a.969.969,0,0,0,.969-.969V15.438h-7.75a2.906,2.906,0,0,1-2.906-2.906Z" fill="#dad8db"/>
        <path id="Path_1244990" data-name="Path 1244990" d="M32.875,4.781a.969.969,0,0,0,.969.969h3.875L32.875.906Z" fill="#dad8db"/>
        <path id="Path_1244991" data-name="Path 1244991" d="M54.187.906h-7.75a.969.969,0,0,0-.969.969v15.5a.969.969,0,0,0,.969.969H58.062a.969.969,0,0,0,.969-.969V5.75Z" fill="#eceaec"/>
        <path id="Path_1244992" data-name="Path 1244992" d="M48.375,12.531V.906H46.437a.969.969,0,0,0-.969.969v15.5a.969.969,0,0,0,.969.969H58.062a.969.969,0,0,0,.969-.969V15.438h-7.75A2.906,2.906,0,0,1,48.375,12.531Z" fill="#dad8db"/>
        <path id="Path_1244993" data-name="Path 1244993" d="M54.187,4.781a.969.969,0,0,0,.969.969h3.875L54.187.906Z" fill="#dad8db"/>
        <path id="Path_1244994" data-name="Path 1244994" d="M45.469,55.218H38.687a.906.906,0,0,0,0,1.813h6.781a.906.906,0,0,0,0-1.813Z"/>
        <path id="Path_1244995" data-name="Path 1244995" d="M47.406,51.343H40.625a.906.906,0,1,0,0,1.813h6.781a.906.906,0,1,0,0-1.813Z"/>
        <path id="Path_1244996" data-name="Path 1244996" d="M6.719,10.531h4.844a.906.906,0,1,0,0-1.813H6.719a.906.906,0,1,0,0,1.813Z"/>
        <path id="Path_1244997" data-name="Path 1244997" d="M12.469,13.5a.906.906,0,0,0-.906-.906H6.719a.906.906,0,1,0,0,1.813h4.844A.906.906,0,0,0,12.469,13.5Z"/>
        <path id="Path_1244998" data-name="Path 1244998" d="M28.031,10.531h4.844a.906.906,0,1,0,0-1.813H28.031a.906.906,0,1,0,0,1.813Z"/>
        <path id="Path_1244999" data-name="Path 1244999" d="M33.781,13.5a.906.906,0,0,0-.906-.906H28.031a.906.906,0,1,0,0,1.813h4.844A.906.906,0,0,0,33.781,13.5Z"/>
        <path id="Path_1245000" data-name="Path 1245000" d="M59.672,5.109,54.828.266A.906.906,0,0,0,54.187,0h-7.75a1.877,1.877,0,0,0-1.875,1.875v15.5a1.877,1.877,0,0,0,1.875,1.875h4.906v2.969a1.032,1.032,0,0,1-1.031,1.031H33.632a2.857,2.857,0,0,0-1.789-1.789V19.25H36.75a1.877,1.877,0,0,0,1.875-1.875V5.75a.906.906,0,0,0-.266-.641L33.516.266A.906.906,0,0,0,32.875,0h-7.75A1.877,1.877,0,0,0,23.25,1.875v15.5a1.877,1.877,0,0,0,1.875,1.875h4.906v2.211a2.856,2.856,0,0,0-1.789,1.789H11.563a1.032,1.032,0,0,1-1.031-1.031V19.25h4.906a1.877,1.877,0,0,0,1.875-1.875V5.75a.906.906,0,0,0-.266-.641L12.2.266A.906.906,0,0,0,11.563,0H3.813A1.877,1.877,0,0,0,1.937,1.875v15.5A1.877,1.877,0,0,0,3.813,19.25H8.719v2.969a2.847,2.847,0,0,0,2.844,2.844h16.68a2.856,2.856,0,0,0,1.789,1.789v6.078a1.983,1.983,0,0,1-1.241-.577l-2.173-2.173a3.788,3.788,0,0,0-2.7-1.117H15.437a3.817,3.817,0,0,0-3.813,3.813V58.062a3.817,3.817,0,0,0,3.812,3.813H47.249a3.808,3.808,0,0,0,3.617-2.607L57.528,39.28a1.875,1.875,0,0,0-1.779-2.468h-5.5V36.75a3.817,3.817,0,0,0-3.813-3.813H34.812a.906.906,0,1,0,0,1.813H46.437a2,2,0,0,1,2,2v.062H31.844V26.851a2.856,2.856,0,0,0,1.789-1.789h16.68a2.847,2.847,0,0,0,2.844-2.844V19.25h4.906a1.877,1.877,0,0,0,1.875-1.875V5.75a.906.906,0,0,0-.266-.641ZM33.781,3.094,35.53,4.844H33.844a.062.062,0,0,1-.062-.062ZM25.063,17.375V1.875a.062.062,0,0,1,.062-.062h6.844V4.781a1.877,1.877,0,0,0,1.875,1.875h2.969V17.375a.062.062,0,0,1-.062.062H25.125a.062.062,0,0,1-.062-.062ZM12.469,3.094l1.749,1.749H12.531a.062.062,0,0,1-.062-.062ZM3.75,17.375V1.875a.062.062,0,0,1,.062-.062h6.844V4.781a1.877,1.877,0,0,0,1.875,1.875H15.5V17.375a.062.062,0,0,1-.062.062H3.813a.062.062,0,0,1-.062-.062Zm27.187,5.75a1.032,1.032,0,0,1,1.031,1.029v0a1.031,1.031,0,1,1-1.031-1.033ZM55.8,38.651a.057.057,0,0,1,.009.056L49.146,58.695a2,2,0,0,1-1.9,1.367H15.438a1.993,1.993,0,0,1-1.443-.618l6.484-19.451a2,2,0,0,1,1.9-1.367H55.75a.057.057,0,0,1,.051.026ZM22.376,36.812a3.808,3.808,0,0,0-3.617,2.607L13.438,55.383V32.875a2,2,0,0,1,2-2h8.484a1.986,1.986,0,0,1,1.414.586l2.173,2.173a3.785,3.785,0,0,0,2.523,1.113v2.066ZM55.094,3.094l1.749,1.749H55.156a.062.062,0,0,1-.062-.062Zm2.969,14.343H46.437a.062.062,0,0,1-.062-.062V1.875a.062.062,0,0,1,.062-.062h6.844V4.781a1.877,1.877,0,0,0,1.875,1.875h2.969V17.375a.063.063,0,0,1-.062.062Z"/>
        <path id="Path_1245001" data-name="Path 1245001" d="M54.187,8.719H49.344a.906.906,0,1,0,0,1.813h4.844a.906.906,0,0,0,0-1.813Z"/>
        <path id="Path_1245002" data-name="Path 1245002" d="M54.187,12.594H49.344a.906.906,0,1,0,0,1.813h4.844a.906.906,0,0,0,0-1.813Z"/>
      </g>
    </g>
  </g>
</svg>
