<svg xmlns="http://www.w3.org/2000/svg" xmlns:xlink="http://www.w3.org/1999/xlink" width="76.345" height="76.345" viewBox="0 0 76.345 76.345">
  <defs>
    <clipPath id="clip-path">
      <rect id="Rectangle_411276" data-name="Rectangle 411276" width="50" height="50" transform="translate(1088.051 5419)" fill="#fff" stroke="#707070" stroke-width="1" opacity="0"/>
    </clipPath>
  </defs>
  <g id="Group_1204045" data-name="Group 1204045" transform="translate(-1075.118 -5405.655)">
    <g id="Group_1204046" data-name="Group 1204046" transform="translate(53.151 2313)">
      <g id="Group_1200255" data-name="Group 1200255">
        <g id="Group_1187152" data-name="Group 1187152">
          <g id="Group_1185946" data-name="Group 1185946" transform="translate(-3.07)">
            <g id="Group_1184280" data-name="Group 1184280">
              <g id="Group_1182168" data-name="Group 1182168">
                <g id="Group_1178877" data-name="Group 1178877">
                  <g id="Group_1111311" data-name="Group 1111311">
                    <g id="Group_1098742" data-name="Group 1098742" transform="translate(1025.482 3093.101)">
                      <g id="Rectangle_400898" data-name="Rectangle 400898" transform="translate(-0.445 -0.445)" fill="#fadebd" stroke="#aa783f" stroke-width="1" opacity="0.859">
                        <rect width="76.345" height="76.345" rx="38.172" stroke="none"/>
                        <rect x="0.5" y="0.5" width="75.345" height="75.345" rx="37.672" fill="none"/>
                      </g>
                      <g id="Rectangle_400907" data-name="Rectangle 400907" transform="translate(-0.446 -0.445)" fill="none" stroke="#aa783f" stroke-width="1">
                        <rect width="76.345" height="76.345" rx="38.172" stroke="none"/>
                        <rect x="0.5" y="0.5" width="75.345" height="75.345" rx="37.672" fill="none"/>
                      </g>
                    </g>
                  </g>
                </g>
              </g>
            </g>
          </g>
        </g>
      </g>
    </g>
    <g id="Mask_Group_1099449" data-name="Mask Group 1099449" clip-path="url(#clip-path)">
      <g id="Layer_x0020_1" transform="translate(1088.051 5419)">
        <path id="Path_1245182" data-name="Path 1245182" d="M18.915,24.734H6.281a.586.586,0,0,1,0-1.172H18.915a.586.586,0,0,1,0,1.172ZM47.479,8.554h-.1V32.841h.1A2.524,2.524,0,0,1,50,35.361V37.3a.586.586,0,0,1-.586.586h-10.3l3.643,7.194a.588.588,0,0,1,.063.238h1.73a.586.586,0,0,1,0,1.172H3.512a.586.586,0,1,1,0-1.172H7.179a.6.6,0,0,1,.063-.238l3.644-7.194H.586A.586.586,0,0,1,0,37.3V35.361a2.524,2.524,0,0,1,2.521-2.521h.1V8.554h-.1A2.524,2.524,0,0,1,0,6.033V4.1a.586.586,0,0,1,.586-.586H49.414A.586.586,0,0,1,50,4.1V6.033a2.524,2.524,0,0,1-2.521,2.521ZM1.172,4.685V6.033A1.35,1.35,0,0,0,2.521,7.382H47.479a1.35,1.35,0,0,0,1.349-1.349V4.685ZM46.207,32.841V8.554H3.793V32.841Zm-8.4,5.042H25.586v7.433h15.98Zm-13.389,0H12.2L8.435,45.315H24.414ZM1.172,36.711H48.828v-1.35a1.35,1.35,0,0,0-1.349-1.349H2.521a1.351,1.351,0,0,0-1.349,1.349Zm25.01-4.6H22.427a.585.585,0,0,1-.586-.586V25.831a.586.586,0,0,1,.586-.586H25.6V16.991a.586.586,0,0,1,.586-.586h3.755a.586.586,0,0,1,.586.586V19.7h2.583V11.223a.586.586,0,0,1,.586-.586h3.756a.586.586,0,0,1,.586.586v10.5H41.2a.586.586,0,0,1,.586.586v9.214a.586.586,0,0,1-.586.586H26.182Zm-3.169-1.172H25.6V26.417H23.013Zm7.51-10.065V30.938h2.583V20.873ZM26.768,30.938h2.583V17.577H26.768V30.938Zm7.51,0h2.584V11.809H34.277v19.13Zm3.756,0h2.583V22.9H38.033ZM18.915,12.1H6.281a.586.586,0,0,1,0-1.172H18.915a.586.586,0,0,1,0,1.172Zm0,3.158H6.281a.586.586,0,0,1,0-1.172H18.915a.586.586,0,0,1,0,1.172Zm0,3.159H6.281a.586.586,0,0,1,0-1.172H18.915a.586.586,0,0,1,0,1.172Zm0,3.158H6.281a.586.586,0,0,1,0-1.172H18.915a.586.586,0,0,1,0,1.172Z" fill-rule="evenodd"/>
        <path id="Path_1245183" data-name="Path 1245183" d="M3.207,7.382H47.479a1.35,1.35,0,0,0,1.349-1.349V4.685H1.172V6.033A1.35,1.35,0,0,0,2.521,7.382Z" fill="#b4b3b9" fill-rule="evenodd"/>
        <path id="Path_1245184" data-name="Path 1245184" d="M46.207,8.554H3.793V32.841H46.207ZM6.281,17.246H18.915a.586.586,0,0,1,0,1.172H6.281a.586.586,0,0,1,0-1.172Zm0,3.158H18.915a.586.586,0,0,1,0,1.172H6.281a.586.586,0,0,1,0-1.172Zm0,3.158H18.915a.586.586,0,0,1,0,1.172H6.281a.586.586,0,0,1,0-1.172Zm16.146,1.683H25.6V16.991a.586.586,0,0,1,.586-.586h3.755a.586.586,0,0,1,.586.586V19.7h2.583V11.223a.586.586,0,0,1,.586-.586h3.756a.586.586,0,0,1,.586.586v10.5H41.2a.586.586,0,0,1,.586.586v9.214a.586.586,0,0,1-.586.586H22.427a.585.585,0,0,1-.586-.586V25.831a.586.586,0,0,1,.586-.586ZM19.5,11.515a.586.586,0,0,1-.586.586H6.281a.586.586,0,0,1,0-1.172H18.915A.586.586,0,0,1,19.5,11.515ZM6.281,14.087H18.915a.586.586,0,0,1,0,1.172H6.281a.586.586,0,0,1,0-1.172Z" fill="#eaeaea" fill-rule="evenodd"/>
        <path id="Path_1245185" data-name="Path 1245185" d="M29.351,17.577H26.768V30.938h2.583V17.577Z" fill="#ce394f" fill-rule="evenodd"/>
        <path id="Path_1245186" data-name="Path 1245186" d="M25.6,26.417H23.013v4.521H25.6Z" fill="#faa940" fill-rule="evenodd"/>
        <path id="Path_1245187" data-name="Path 1245187" d="M30.522,20.873V30.938h2.583V20.873Z" fill="#7f493f" fill-rule="evenodd"/>
        <path id="Path_1245188" data-name="Path 1245188" d="M34.277,11.809v19.13h2.584V11.809Z" fill="#ffc614" fill-rule="evenodd"/>
        <path id="Path_1245189" data-name="Path 1245189" d="M38.033,22.9v8.042h2.583V22.9Z" fill="#f14f7e" fill-rule="evenodd"/>
        <g id="Group_1204941" data-name="Group 1204941">
          <path id="Path_1245190" data-name="Path 1245190" d="M37.8,37.883H25.586v7.433h15.98Z" fill="#b4b3b9" fill-rule="evenodd"/>
          <path id="Path_1245191" data-name="Path 1245191" d="M25,36.711H48.828v-1.35a1.35,1.35,0,0,0-1.349-1.349H2.521a1.351,1.351,0,0,0-1.349,1.349v1.35H25Z" fill="#b4b3b9" fill-rule="evenodd"/>
          <path id="Path_1245192" data-name="Path 1245192" d="M24.414,45.315V37.883H12.2L8.435,45.315Z" fill="#b4b3b9" fill-rule="evenodd"/>
        </g>
      </g>
    </g>
  </g>
</svg>
