<svg xmlns="http://www.w3.org/2000/svg" xmlns:xlink="http://www.w3.org/1999/xlink" width="108" height="108" viewBox="0 0 108 108">
  <defs>
    <filter id="Ellipse_12740" x="0" y="0" width="108" height="108" filterUnits="userSpaceOnUse">
      <feOffset dy="3" input="SourceAlpha"/>
      <feGaussianBlur stdDeviation="3" result="blur"/>
      <feFlood flood-opacity="0.161"/>
      <feComposite operator="in" in2="blur"/>
      <feComposite in="SourceGraphic"/>
    </filter>
    <clipPath id="clip-path">
      <rect id="Rectangle_411018" data-name="Rectangle 411018" width="58" height="68" transform="translate(-6848 -10740)" fill="#fff" stroke="#707070" stroke-width="1" opacity="0"/>
    </clipPath>
  </defs>
  <g id="Group_1204171" data-name="Group 1204171" transform="translate(6873.153 10761.937)">
    <g id="Group_1203657" data-name="Group 1203657" transform="translate(-6864.153 -10755.937)">
      <g transform="matrix(1, 0, 0, 1, -9, -6)" filter="url(#Ellipse_12740)">
        <g id="Ellipse_12740-2" data-name="Ellipse 12740" transform="translate(9 6)" fill="#5bd4dd" stroke="#3f939a" stroke-width="1">
          <circle cx="45" cy="45" r="45" stroke="none"/>
          <circle cx="45" cy="45" r="44.5" fill="none"/>
        </g>
      </g>
    </g>
    <g id="Mask_Group_1099450" data-name="Mask Group 1099450" clip-path="url(#clip-path)">
      <g id="cuota-de-mercado" transform="translate(-6850.048 -10737.048)">
        <g id="Group_1204942" data-name="Group 1204942">
          <path id="Path_1245193" data-name="Path 1245193" d="M28.892,34.283l18.3,18.3a25.873,25.873,0,1,1-18.3-44.169Z" fill="#60b7ff" fill-rule="evenodd"/>
          <path id="Path_1245194" data-name="Path 1245194" d="M28.892,34.283,44.757,50.148a22.437,22.437,0,1,1-15.866-38.3Z" fill="#8ac9fe" fill-rule="evenodd"/>
          <path id="Path_1245195" data-name="Path 1245195" d="M59.078,32.126H33.2l18.3,18.3a25.792,25.792,0,0,0,7.578-18.3Z" fill="#fd4755" fill-rule="evenodd"/>
          <path id="Path_1245196" data-name="Path 1245196" d="M55.642,32.126H33.2L49.07,47.992A22.367,22.367,0,0,0,55.642,32.126Z" fill="#fe646f" fill-rule="evenodd"/>
          <path id="Path_1245197" data-name="Path 1245197" d="M33.2,1.941A25.873,25.873,0,0,1,59.078,27.814H33.2Z" fill="#ffd064" fill-rule="evenodd"/>
          <path id="Path_1245198" data-name="Path 1245198" d="M55.642,27.814H33.2V5.377A22.437,22.437,0,0,1,55.642,27.814Z" fill="#ffe177" fill-rule="evenodd"/>
        </g>
        <path id="Path_1245199" data-name="Path 1245199" d="M34.175,2.929A24.939,24.939,0,0,1,58.09,26.844H34.175ZM33.2,28.784H59.078a.97.97,0,0,0,.971-.97A26.845,26.845,0,0,0,33.2.97a.97.97,0,0,0-.971.97V27.814A.97.97,0,0,0,33.2,28.784ZM51.487,49.037,35.547,33.1H58.09A24.712,24.712,0,0,1,51.487,49.037Zm7.591-17.88H33.2a.97.97,0,0,0-.686,1.657L50.813,51.108a.969.969,0,0,0,1.372,0,26.666,26.666,0,0,0,7.863-18.981A.97.97,0,0,0,59.078,31.156ZM28.892,59.185A24.728,24.728,0,0,0,45.8,52.564l-17.6-17.6a.969.969,0,0,1-.284-.686V9.4a24.9,24.9,0,0,0,.97,49.788Zm.97-25.3V8.409a.97.97,0,0,0-.97-.97A26.844,26.844,0,0,0,9.911,53.264a26.843,26.843,0,0,0,37.963,0,.971.971,0,0,0,0-1.372Z" fill-rule="evenodd"/>
      </g>
    </g>
  </g>
</svg>
