<svg xmlns="http://www.w3.org/2000/svg" xmlns:xlink="http://www.w3.org/1999/xlink" width="76.345" height="76.345" viewBox="0 0 76.345 76.345">
  <defs>
    <clipPath id="clip-path">
      <rect id="Rectangle_411276" data-name="Rectangle 411276" width="50" height="50" transform="translate(1088.051 5419)" fill="#fff" stroke="#707070" stroke-width="1" opacity="0"/>
    </clipPath>
  </defs>
  <g id="Group_1204208" data-name="Group 1204208" transform="translate(-1075.118 -5405.655)">
    <g id="Group_1204046" data-name="Group 1204046" transform="translate(53.151 2313)">
      <g id="Group_1200255" data-name="Group 1200255">
        <g id="Group_1187152" data-name="Group 1187152">
          <g id="Group_1185946" data-name="Group 1185946" transform="translate(-3.07)">
            <g id="Group_1184280" data-name="Group 1184280">
              <g id="Group_1182168" data-name="Group 1182168">
                <g id="Group_1178877" data-name="Group 1178877">
                  <g id="Group_1111311" data-name="Group 1111311">
                    <g id="Group_1098742" data-name="Group 1098742" transform="translate(1025.482 3093.101)">
                      <g id="Rectangle_400898" data-name="Rectangle 400898" transform="translate(-0.445 -0.445)" fill="#fadebd" stroke="#aa783f" stroke-width="1" opacity="0.859">
                        <rect width="76.345" height="76.345" rx="38.172" stroke="none"/>
                        <rect x="0.5" y="0.5" width="75.345" height="75.345" rx="37.672" fill="none"/>
                      </g>
                      <g id="Rectangle_400907" data-name="Rectangle 400907" transform="translate(-0.446 -0.445)" fill="none" stroke="#aa783f" stroke-width="1">
                        <rect width="76.345" height="76.345" rx="38.172" stroke="none"/>
                        <rect x="0.5" y="0.5" width="75.345" height="75.345" rx="37.672" fill="none"/>
                      </g>
                    </g>
                  </g>
                </g>
              </g>
            </g>
          </g>
        </g>
      </g>
    </g>
    <g id="Mask_Group_1099455" data-name="Mask Group 1099455" clip-path="url(#clip-path)">
      <g id="vigilancia" transform="translate(1086.384 5417.334)">
        <path id="Path_1245275" data-name="Path 1245275" d="M8.333,4.167A1.667,1.667,0,0,1,10,2.5H49.167a1.667,1.667,0,0,1,1.667,1.667v27.5a1.667,1.667,0,0,1-1.667,1.667H8.333Z" fill="#548aff"/>
        <path id="Path_1245276" data-name="Path 1245276" d="M44.167,47.5l5-10.833h-12.5l-5,10.833Z" fill="#8be0e8"/>
        <path id="Path_1245277" data-name="Path 1245277" d="M25,47.5H44.167v1.667A1.667,1.667,0,0,1,42.5,50.833H26.667A1.667,1.667,0,0,1,25,49.167Z" fill="#548aff"/>
        <path id="Path_1245278" data-name="Path 1245278" d="M6.667,29.167H12.4v7.5H6.667Z" fill="#ffceb6"/>
        <path id="Path_1245279" data-name="Path 1245279" d="M14.167,25v6.566a1.768,1.768,0,0,1-3.018,1.25L10,31.667V25Z" fill="#ffceb6"/>
        <path id="Path_1245280" data-name="Path 1245280" d="M6.667,31.667,4.725,28.43a3.915,3.915,0,0,1-.558-2.014h0A3.915,3.915,0,0,1,8.082,22.5h6.085a1.667,1.667,0,1,1,0,3.333h-2.5L10,28.333v3.333Z" fill="#c47220"/>
        <path id="Path_1245281" data-name="Path 1245281" d="M28.333,49.167H21.485a3.333,3.333,0,0,1-2.478-1.1l-3.174-3.526v7.13H2.5V40a5,5,0,0,1,5-5h5.569a5.833,5.833,0,0,1,4.515,2.139l5.75,7.027h5Z" fill="#ffb401"/>
        <path id="Path_1245282" data-name="Path 1245282" d="M28.333,49.167v-5H30l3.333-.833,3.714,2.228a.933.933,0,0,1-.663,1.715l-3.05-.61-2.889,2.167a1.667,1.667,0,0,1-1,.333Z" fill="#ffceb6"/>
        <path id="Path_1245283" data-name="Path 1245283" d="M42.5,50.833H36.667A1.667,1.667,0,0,1,35,49.167V47.5h9.167v1.667A1.667,1.667,0,0,1,42.5,50.833Z" fill="#4367e0"/>
        <path id="Path_1245284" data-name="Path 1245284" d="M20,25.833h5V30H20Z" fill="#ffa100"/>
        <path id="Path_1245285" data-name="Path 1245285" d="M25,22.5h5V30H25Z" fill="#ffb401"/>
        <path id="Path_1245286" data-name="Path 1245286" d="M30,18.333h5V30H30Z" fill="#ffc431"/>
        <path id="Path_1245287" data-name="Path 1245287" d="M35,14.167h5V30H35Z" fill="#ffcc4d"/>
        <path id="Path_1245288" data-name="Path 1245288" d="M40,10.833h5V30H40Z" fill="#ffd873"/>
        <g id="Group_1204965" data-name="Group 1204965">
          <circle id="Ellipse_13480" data-name="Ellipse 13480" cx="1.667" cy="1.667" r="1.667" transform="translate(19.167 17.5)" fill="#c5dafa"/>
          <circle id="Ellipse_13481" data-name="Ellipse 13481" cx="1.667" cy="1.667" r="1.667" transform="translate(27.5 11.667)" fill="#c5dafa"/>
          <circle id="Ellipse_13482" data-name="Ellipse 13482" cx="1.667" cy="1.667" r="1.667" transform="translate(35 5.833)" fill="#c5dafa"/>
        </g>
        <path id="Path_1245289" data-name="Path 1245289" d="M49.167,35.833h-12.5a.833.833,0,0,0-.757.484l-2.876,6.232-3.136.784H23.728l-5.5-6.722a6.639,6.639,0,0,0-5-2.441v-.142A2.605,2.605,0,0,0,15,31.566V26.523a2.5,2.5,0,0,0-.833-4.857H8.082A4.749,4.749,0,0,0,4.01,28.859L5.833,31.9v2.513A5.843,5.843,0,0,0,1.667,40V51.667H3.333V40A4.171,4.171,0,0,1,7.5,35.833h5.569a4.982,4.982,0,0,1,3.87,1.834l5.75,7.027a.833.833,0,0,0,.645.306H27.5v3.333H21.485a2.5,2.5,0,0,1-1.858-.828l-6.507-7.23-1.239,1.115L15,44.857v6.81h1.667V46.709l1.721,1.912A4.173,4.173,0,0,0,21.485,50H24.31a2.5,2.5,0,0,0,2.357,1.667H42.5a2.5,2.5,0,0,0,2.5-2.5V47.683l4.923-10.667a.833.833,0,0,0-.757-1.183ZM12.4,32.5a.928.928,0,0,1-.661-.274l-.9-.9V28.586l1.279-1.919h1.221v4.9a.936.936,0,0,1-.934.934ZM5,26.416a3.086,3.086,0,0,1,3.082-3.082h6.085a.833.833,0,0,1,0,1.667h-2.5a.833.833,0,0,0-.693.371l-1.667,2.5a.833.833,0,0,0-.14.462v2.5H7.138L5.439,28A3.083,3.083,0,0,1,5,26.416ZM7.5,32.5H9.655l.9.9a2.59,2.59,0,0,0,1.006.625v.136H7.5ZM29.167,45H30a.831.831,0,0,0,.2-.025l3-.75,3.418,2.051a.1.1,0,0,1-.071.183l-3.05-.61a.834.834,0,0,0-.663.15l-2.889,2.167a.838.838,0,0,1-.5.167h-.278Zm1.778,4.5L32.5,48.333h1.667v.833A2.488,2.488,0,0,0,34.31,50H29.444a2.516,2.516,0,0,0,1.5-.5Zm12.389-.333A.834.834,0,0,1,42.5,50H36.667a.834.834,0,0,1-.833-.833v-.833h7.5Zm.3-2.5H38.3a1.746,1.746,0,0,0-.829-1.82L34.6,43.124,37.2,37.5H47.864Z"/>
        <path id="Path_1245290" data-name="Path 1245290" d="M49.167,1.667H10a2.5,2.5,0,0,0-2.5,2.5V20H9.167V4.167A.834.834,0,0,1,10,3.333H49.167A.834.834,0,0,1,50,4.167v27.5a.834.834,0,0,1-.833.833h-32.5v1.667h32.5a2.5,2.5,0,0,0,2.5-2.5V4.167a2.5,2.5,0,0,0-2.5-2.5Z"/>
        <circle id="Ellipse_13483" data-name="Ellipse 13483" cx="0.833" cy="0.833" r="0.833" transform="translate(10 4.167)"/>
        <circle id="Ellipse_13484" data-name="Ellipse 13484" cx="0.833" cy="0.833" r="0.833" transform="translate(12.5 4.167)"/>
        <circle id="Ellipse_13485" data-name="Ellipse 13485" cx="0.833" cy="0.833" r="0.833" transform="translate(15 4.167)"/>
        <path id="Path_1245291" data-name="Path 1245291" d="M45,10H40a.833.833,0,0,0-.833.833v2.5H35a.833.833,0,0,0-.833.833V17.5H30a.833.833,0,0,0-.833.833v3.333H25a.833.833,0,0,0-.833.833V25H20a.833.833,0,0,0-.833.833v3.333H17.5v1.667h30V29.167H45.833V10.833A.833.833,0,0,0,45,10ZM20.833,26.667h3.333v2.5H20.833Zm5-3.333h3.333v5.833H25.833Zm5-4.167h3.333v10H30.833Zm5-4.167h3.333V29.167H35.833Zm8.333,14.167H40.833v-17.5h3.333Z"/>
        <path id="Path_1245292" data-name="Path 1245292" d="M15,20h3.477a2.5,2.5,0,0,0,4.748-1.561l4.334-3.193a2.5,2.5,0,0,0,3.912-2.882l3.793-2.8a2.5,2.5,0,0,0,3.759-1.235h5.143V6.667H39.023a2.5,2.5,0,0,0-4.748,1.561l-3.935,2.9A2.5,2.5,0,0,0,26.711,13.8l-4.475,3.3a2.5,2.5,0,0,0-3.759,1.235H15ZM36.667,6.667a.833.833,0,1,1-.833.833A.833.833,0,0,1,36.667,6.667Zm-7.5,5.833a.833.833,0,1,1-.833.833.833.833,0,0,1,.833-.833Zm-8.333,5.833a.833.833,0,1,1-.833.833A.833.833,0,0,1,20.833,18.333Z"/>
        <path id="Path_1245293" data-name="Path 1245293" d="M45.833,6.667H47.5V8.333H45.833Z"/>
        <path id="Path_1245294" data-name="Path 1245294" d="M11.667,18.333h1.667V20H11.667Z"/>
      </g>
    </g>
  </g>
</svg>
