<svg xmlns="http://www.w3.org/2000/svg" xmlns:xlink="http://www.w3.org/1999/xlink" width="108" height="108" viewBox="0 0 108 108">
  <defs>
    <filter id="Ellipse_12740" x="0" y="0" width="108" height="108" filterUnits="userSpaceOnUse">
      <feOffset dy="3" input="SourceAlpha"/>
      <feGaussianBlur stdDeviation="3" result="blur"/>
      <feFlood flood-opacity="0.161"/>
      <feComposite operator="in" in2="blur"/>
      <feComposite in="SourceGraphic"/>
    </filter>
    <clipPath id="clip-path">
      <rect id="Rectangle_411018" data-name="Rectangle 411018" width="58" height="68" transform="translate(-6848 -10740)" fill="#fff" stroke="#707070" stroke-width="1" opacity="0"/>
    </clipPath>
  </defs>
  <g id="Group_1204549" data-name="Group 1204549" transform="translate(6873.153 10761.937)">
    <g id="Group_1203657" data-name="Group 1203657" transform="translate(-6864.153 -10755.937)">
      <g transform="matrix(1, 0, 0, 1, -9, -6)" filter="url(#Ellipse_12740)">
        <g id="Ellipse_12740-2" data-name="Ellipse 12740" transform="translate(9 6)" fill="#5bd4dd" stroke="#3f939a" stroke-width="1">
          <circle cx="45" cy="45" r="45" stroke="none"/>
          <circle cx="45" cy="45" r="44.5" fill="none"/>
        </g>
      </g>
    </g>
    <g id="Mask_Group_1099459" data-name="Mask Group 1099459" clip-path="url(#clip-path)">
      <g id="analisis-de-mercado" transform="translate(-6848 -10735)">
        <path id="Path_1245344" data-name="Path 1245344" d="M4.833,8.7H53.167a3.867,3.867,0,0,1,3.867,3.867V45.433A3.867,3.867,0,0,1,53.167,49.3H4.833A3.867,3.867,0,0,1,.967,45.433V12.567A3.867,3.867,0,0,1,4.833,8.7Zm0,0" fill="#e0e0de"/>
        <path id="Path_1245345" data-name="Path 1245345" d="M5.8,8.7H52.2V49.3H5.8Zm0,0" fill="#60d1e0"/>
        <path id="Path_1245346" data-name="Path 1245346" d="M52.2,15.95,18.85,49.3H52.2Zm0,0" fill="#5ac6d4"/>
        <path id="Path_1245347" data-name="Path 1245347" d="M39.633,11.6h1.933v1.933H39.633Zm0,0" fill="#3fb7c7"/>
        <path id="Path_1245348" data-name="Path 1245348" d="M43.5,11.6h1.933v1.933H43.5Zm0,0" fill="#3fb7c7"/>
        <path id="Path_1245349" data-name="Path 1245349" d="M47.367,11.6H49.3v1.933H47.367Zm0,0" fill="#3fb7c7"/>
        <path id="Path_1245350" data-name="Path 1245350" d="M38.57,19.43,29,29l9.57,9.57a13.533,13.533,0,0,0,0-19.14Zm0,0" fill="#7eb457"/>
        <path id="Path_1245351" data-name="Path 1245351" d="M29,29l-9.57,9.57a13.533,13.533,0,0,0,19.14,0Zm0,0" fill="#f35244"/>
        <path id="Path_1245352" data-name="Path 1245352" d="M29,15.467A13.533,13.533,0,0,0,15.467,29H29l9.57-9.57A13.493,13.493,0,0,0,29,15.467Zm0,0" fill="#ffb531"/>
        <path id="Path_1245353" data-name="Path 1245353" d="M15.467,29a13.493,13.493,0,0,0,3.963,9.57L29,29Zm0,0" fill="#348fd9"/>
        <g id="Group_1204970" data-name="Group 1204970">
          <path id="Path_1245354" data-name="Path 1245354" d="M44.467,21.267H49.3V23.2H44.467Zm0,0" fill="#3fb7c7"/>
          <path id="Path_1245355" data-name="Path 1245355" d="M8.7,17.4h5.8v1.933H8.7Zm0,0" fill="#3fb7c7"/>
          <path id="Path_1245356" data-name="Path 1245356" d="M8.7,21.267h4.833V23.2H8.7Zm0,0" fill="#3fb7c7"/>
          <path id="Path_1245357" data-name="Path 1245357" d="M8.7,37.7h4.833v1.933H8.7Zm0,0" fill="#3fb7c7"/>
          <path id="Path_1245358" data-name="Path 1245358" d="M8.7,41.567h6.767V43.5H8.7Zm0,0" fill="#3fb7c7"/>
          <path id="Path_1245359" data-name="Path 1245359" d="M42.533,17.4H49.3v1.933H42.533Zm0,0" fill="#3fb7c7"/>
          <path id="Path_1245360" data-name="Path 1245360" d="M44.467,35.767H49.3V37.7H44.467Zm0,0" fill="#3fb7c7"/>
          <path id="Path_1245361" data-name="Path 1245361" d="M42.533,39.633H49.3v1.933H42.533Zm0,0" fill="#3fb7c7"/>
        </g>
        <path id="Path_1245362" data-name="Path 1245362" d="M28.033,12.567h-5.8L24.167,20.3,17.4,12.567H12.567a2.9,2.9,0,0,1-2.9-2.9v-5.8a2.9,2.9,0,0,1,2.9-2.9H28.033a2.9,2.9,0,0,1,2.9,2.9v5.8A2.9,2.9,0,0,1,28.033,12.567Zm0,0" fill="#348fd9"/>
        <path id="Path_1245363" data-name="Path 1245363" d="M12.567,3.867H14.5V5.8H12.567Zm0,0" fill="#2a71ad"/>
        <path id="Path_1245364" data-name="Path 1245364" d="M16.433,3.867h11.6V5.8h-11.6Zm0,0" fill="#2a71ad"/>
        <path id="Path_1245365" data-name="Path 1245365" d="M12.567,7.733H28.033V9.667H12.567Zm0,0" fill="#2a71ad"/>
        <path id="Path_1245366" data-name="Path 1245366" d="M46.725,44.493A1.934,1.934,0,0,0,44.467,46.4a1.933,1.933,0,1,0-3.867,0,1.933,1.933,0,0,0-3.867,0V38.77a2.006,2.006,0,0,0-1.609-2.011,1.934,1.934,0,0,0-2.258,1.907V52.2l-4.03-2.417a1.7,1.7,0,0,0-1.644-.064l-.152.076a1.707,1.707,0,0,0-.228,2.914l6.053,4.323H48.333V46.5a2.006,2.006,0,0,0-1.609-2.011Zm0,0" fill="#fec9a3"/>
        <path id="Path_1245367" data-name="Path 1245367" d="M46.725,44.493a2.03,2.03,0,0,0-.422-.021C43.04,50.316,37.6,54.5,33.509,57.033H48.333V46.5a2.006,2.006,0,0,0-1.609-2.011Zm0,0" fill="#fec093"/>
        <path id="Path_1245368" data-name="Path 1245368" d="M53.167,7.733H33.833V9.667h17.4v40.6h1.933A4.839,4.839,0,0,0,58,45.433V12.567A4.839,4.839,0,0,0,53.167,7.733Zm2.9,37.7a2.9,2.9,0,0,1-2.9,2.9V9.667a2.9,2.9,0,0,1,2.9,2.9Zm0,0"/>
        <path id="Path_1245369" data-name="Path 1245369" d="M6.767,9.667V7.733H4.833A4.839,4.839,0,0,0,0,12.567V45.433a4.839,4.839,0,0,0,4.833,4.833H23.2V48.333H6.767ZM1.933,45.433V12.567a2.9,2.9,0,0,1,2.9-2.9V48.333A2.9,2.9,0,0,1,1.933,45.433Zm0,0"/>
        <path id="Path_1245370" data-name="Path 1245370" d="M12.567,3.867H14.5V5.8H12.567Zm0,0"/>
        <path id="Path_1245371" data-name="Path 1245371" d="M16.433,3.867h11.6V5.8h-11.6Zm0,0"/>
        <path id="Path_1245372" data-name="Path 1245372" d="M12.567,7.733H28.033V9.667H12.567Zm0,0"/>
        <path id="Path_1245373" data-name="Path 1245373" d="M39.633,11.6h1.933v1.933H39.633Zm0,0"/>
        <path id="Path_1245374" data-name="Path 1245374" d="M43.5,11.6h1.933v1.933H43.5Zm0,0"/>
        <path id="Path_1245375" data-name="Path 1245375" d="M47.367,11.6H49.3v1.933H47.367Zm0,0"/>
        <path id="Path_1245376" data-name="Path 1245376" d="M8.7,17.4h5.8v1.933H8.7Zm0,0"/>
        <path id="Path_1245377" data-name="Path 1245377" d="M8.7,21.267h4.833V23.2H8.7Zm0,0"/>
        <path id="Path_1245378" data-name="Path 1245378" d="M8.7,37.7h4.833v1.933H8.7Zm0,0"/>
        <path id="Path_1245379" data-name="Path 1245379" d="M8.7,41.567h6.767V43.5H8.7Zm0,0"/>
        <path id="Path_1245380" data-name="Path 1245380" d="M42.533,17.4H49.3v1.933H42.533Zm0,0"/>
        <path id="Path_1245381" data-name="Path 1245381" d="M44.467,21.267H49.3V23.2H44.467Zm0,0"/>
        <path id="Path_1245382" data-name="Path 1245382" d="M44.467,35.767H49.3V37.7H44.467Zm0,0"/>
        <path id="Path_1245383" data-name="Path 1245383" d="M42.533,39.633H49.3v1.933H42.533Zm0,0"/>
        <path id="Path_1245384" data-name="Path 1245384" d="M46.883,43.539a2.909,2.909,0,0,0-2.358.651c-.019.016-.038.032-.057.05a2.894,2.894,0,0,0-3.867,0,3.012,3.012,0,0,0-2.9-.575V40.582a14.719,14.719,0,0,0,1.553-1.329l0-.007a14.5,14.5,0,0,0,0-20.494l-.006-.007a14.446,14.446,0,0,0-15.31-3.324l-.473-1.889h4.562A3.867,3.867,0,0,0,31.9,9.667v-5.8A3.867,3.867,0,0,0,28.033,0H12.567A3.867,3.867,0,0,0,8.7,3.867v5.8a3.867,3.867,0,0,0,3.867,3.867h4.394l3.383,3.861a14.474,14.474,0,0,0-1.6,21.852l.006.007A14.474,14.474,0,0,0,31.9,43.2v7.289l-2.565-1.539a2.655,2.655,0,0,0-2.571-.1l-.153.076a2.675,2.675,0,0,0-.357,4.568L32.3,57.822a.966.966,0,0,0,.562.178H48.333a.967.967,0,0,0,.967-.967V46.5a2.981,2.981,0,0,0-2.417-2.965Zm-8.337-6.362L30.367,29l8.177-8.177a12.567,12.567,0,0,1,0,16.354ZM17.4,11.6H12.567a1.933,1.933,0,0,1-1.933-1.933v-5.8a1.933,1.933,0,0,1,1.933-1.933H28.033a1.933,1.933,0,0,1,1.933,1.933v5.8A1.933,1.933,0,0,1,28.033,11.6h-5.8a.966.966,0,0,0-.938,1.2l.962,3.85-4.13-4.721a.967.967,0,0,0-.728-.33Zm2.714,8.514a12.309,12.309,0,0,1,1.5-1.257l1.821,2.082a.967.967,0,0,0,1.666-.87l-.689-2.752a12.5,12.5,0,0,1,12.76,2.141L28.6,28.033H16.47a12.463,12.463,0,0,1,3.643-7.919Zm6.553,9.852-7.21,7.21a12.448,12.448,0,0,1-2.986-7.21ZM29,41.567a12.483,12.483,0,0,1-8.177-3.022L29,30.367,34.437,35.8A2.894,2.894,0,0,0,31.9,38.667v2.56A12.528,12.528,0,0,1,29,41.567Zm18.367,14.5H33.176l-5.8-4.142a.741.741,0,0,1,.1-1.265l.152-.075a.731.731,0,0,1,.71.027l4.03,2.417a.967.967,0,0,0,1.468-.827V38.667a.967.967,0,0,1,1.933,0V46.4a.967.967,0,1,0,1.933,0,.967.967,0,0,1,1.933,0,.967.967,0,0,0,1.933,0,.967.967,0,1,1,1.933,0,.967.967,0,0,0,1.933,0,.967.967,0,0,1,1.136-.952,1.047,1.047,0,0,1,.8,1.055Zm0,0"/>
      </g>
    </g>
  </g>
</svg>
