<svg xmlns="http://www.w3.org/2000/svg" xmlns:xlink="http://www.w3.org/1999/xlink" width="108" height="108" viewBox="0 0 108 108">
  <defs>
    <filter id="Ellipse_12740" x="0" y="0" width="108" height="108" filterUnits="userSpaceOnUse">
      <feOffset dy="3" input="SourceAlpha"/>
      <feGaussianBlur stdDeviation="3" result="blur"/>
      <feFlood flood-opacity="0.161"/>
      <feComposite operator="in" in2="blur"/>
      <feComposite in="SourceGraphic"/>
    </filter>
    <clipPath id="clip-path">
      <rect id="Rectangle_411018" data-name="Rectangle 411018" width="58" height="68" transform="translate(-6848 -10740)" fill="#fff" stroke="#707070" stroke-width="1" opacity="0"/>
    </clipPath>
  </defs>
  <g id="Group_1203749" data-name="Group 1203749" transform="translate(6873.153 10761.937)">
    <g id="Group_1203657" data-name="Group 1203657" transform="translate(-6864.153 -10755.937)">
      <g transform="matrix(1, 0, 0, 1, -9, -6)" filter="url(#Ellipse_12740)">
        <g id="Ellipse_12740-2" data-name="Ellipse 12740" transform="translate(9 6)" fill="#5bd4dd" stroke="#3f939a" stroke-width="1">
          <circle cx="45" cy="45" r="45" stroke="none"/>
          <circle cx="45" cy="45" r="44.5" fill="none"/>
        </g>
      </g>
    </g>
    <g id="Mask_Group_1099445" data-name="Mask Group 1099445" clip-path="url(#clip-path)">
      <g id="recopilacion-de-datos" transform="translate(-6850.28 -10737.279)">
        <path id="Path_1245131" data-name="Path 1245131" d="M31.82,24.43v5.6H48.891a1.535,1.535,0,0,0,1.531-1.531V24.43H44.1a1.925,1.925,0,0,1-1.922-1.922V7.068h0c0-.011,0-.023,0-.034h0V7.017h0l0-.013V7h0l0-.015h0v0l0-.014h0v0l0-.013h0v0l0-.013h0v0l0-.008V6.916l0-.013v0l0-.012h0v0l0-.008v0l0,0h0l0-.008h0l0-.007h0l0-.008,0-.007h0l0-.008h0l0-.006h0l0-.008v0l0,0,0-.007,0-.007h0l0-.007h0l0-.005v0l0-.007h0l0-.007,0-.007.013-.021,0-.007.013-.02,0,0,.008-.011v0l.008-.011,0,0,.007-.01h0l.005-.006,0-.005h0l.005-.006,0,0,0,0,.021-.023.006-.006h0l.006-.006,4.446-4.446a.67.67,0,0,1,.057-.052l.007-.005.007-.005.027-.02.007,0,.007,0h0l.042-.025h0a.669.669,0,0,1,.327-.085H58.1a1.925,1.925,0,0,1,1.922,1.922V22.507A1.925,1.925,0,0,1,58.1,24.43h-6.33v4.064a2.879,2.879,0,0,1-2.874,2.875H31.821v4.257H33.8a9.368,9.368,0,0,1,.657-.733A9.294,9.294,0,0,1,48.822,46.539L50.3,48.013a.672.672,0,0,1,.555.173l8.584,7.728c.022.02.053.049.091.087a2.565,2.565,0,0,1,.746,1.844,2.784,2.784,0,0,1-.709,1.844c-.022.024-.054.057-.095.1s-.073.072-.1.1a2.786,2.786,0,0,1-1.841.718,2.562,2.562,0,0,1-1.845-.737c-.037-.037-.066-.067-.088-.091l-7.775-8.558a.669.669,0,0,1-.168-.545L46.177,49.2a9.243,9.243,0,0,1-1.5.808l-3.207,7.671A3.409,3.409,0,0,1,40.288,59.1a3.064,3.064,0,0,1-1.716.595H15.595a1.942,1.942,0,0,1-.753-.144,1.571,1.571,0,0,1-.732-.609,1.674,1.674,0,0,1-.254-.908c0-.036,0-.072,0-.108l.01-22.963A2.834,2.834,0,0,1,16.7,32.13h5.83a.669.669,0,0,1,.423.15l4.6,3.345h2.927V31.369H13.407a2.879,2.879,0,0,1-2.874-2.875V24.43H4.2A1.925,1.925,0,0,1,2.28,22.507V7.068h0c0-.011,0-.023,0-.034h0V7.017h0l0-.013V7h0l0-.015h0v0l0-.014h0v0l0-.014h0v0l0-.013h0v0l0-.008V6.916l0-.013v0l0-.012h0v0l0-.008v0l0,0h0l0-.008h0l0-.007h0l0-.008,0-.007h0l0-.008h0l0-.006h0l0-.008v0l0,0,0-.008,0-.006h0l0-.007h0l0-.005v0l0-.007h0l0-.007,0-.007.012-.021h0l0-.007.013-.02,0,0,.008-.011h0l0-.007,0,0v0l.005-.006,0,0v0l.005-.006,0-.005h0l.005-.006,0,0v0l.005-.006.005-.005h0l.011-.012.005-.006h0L2.483,6.6,6.928,2.159a.67.67,0,0,1,.057-.052L6.992,2.1,7,2.1l.027-.02.007,0,.007,0h0l.042-.025h0a.669.669,0,0,1,.327-.085H18.2a1.925,1.925,0,0,1,1.922,1.922V22.508A1.925,1.925,0,0,1,18.2,24.43H11.875v4.064a1.535,1.535,0,0,0,1.531,1.531H30.477v-5.6H24.149a1.925,1.925,0,0,1-1.922-1.922V7.068h0c0-.011,0-.023,0-.034h0V7.017h0l0-.013V7h0l0-.015h0v0l0-.014h0v0l0-.013h0v0l0-.013h0v0l0-.008V6.916l0-.013v0l0-.012h0v0l0-.008v0l0,0h0l0-.008h0l0-.007h0l0-.008,0-.007h0l0-.008h0l0-.006h0l0-.008v0l0,0,0-.007,0-.007h0l0-.007h0l0-.005v0l0-.007h0l0-.007,0-.007.013-.021,0-.007.013-.02,0,0,.008-.011v0l.008-.011,0,0,.007-.01h0l.005-.006,0-.005h0l.005-.006,0,0,0,0,.021-.023.005-.006h0L22.43,6.6l4.446-4.446a.67.67,0,0,1,.057-.052l.007-.005.007-.005.027-.02.007,0,.007,0h0l.042-.025h0a.669.669,0,0,1,.327-.085H38.149a1.925,1.925,0,0,1,1.922,1.922V22.507a1.925,1.925,0,0,1-1.922,1.922H31.821Z" fill-rule="evenodd"/>
        <path id="Path_1245132" data-name="Path 1245132" d="M33.29,39.665a7.956,7.956,0,0,0,12.16,8.4,1.305,1.305,0,0,1,1.651.16l1.147,1.142a3.4,3.4,0,0,1,.757-.758l-1.149-1.143a1.3,1.3,0,0,1-.169-1.651,7.955,7.955,0,1,0-14.4-6.152Zm3.2-2.754A6.425,6.425,0,1,1,36.511,46a6.43,6.43,0,0,1-.021-9.086Z" fill="#258b9b" fill-rule="evenodd"/>
        <path id="Path_1245133" data-name="Path 1245133" d="M31.829,40.243h-8.1a2.068,2.068,0,0,0-1.656,1.19l-6.79,16.239c-.154.369-.132.676.315.676H38.569a2.068,2.068,0,0,0,1.656-1.19L43,50.529A9.3,9.3,0,0,1,31.829,40.243Z" fill="#fabc57" fill-rule="evenodd"/>
        <path id="Path_1245134" data-name="Path 1245134" d="M44.464,6.41H46.05a.581.581,0,0,0,.579-.579V4.245L44.464,6.41Z" fill="#e5bfbd" fill-rule="evenodd"/>
        <path id="Path_1245135" data-name="Path 1245135" d="M47.973,3.3V5.831A1.925,1.925,0,0,1,46.05,7.753H43.515V22.5a.581.581,0,0,0,.579.579h14a.581.581,0,0,0,.579-.579V3.875a.582.582,0,0,0-.579-.579H47.972Zm5.753,12.251,3.608,2.885a2.251,2.251,0,0,1-1.567,3.9,1.962,1.962,0,0,1-1.595-.734l-2.885-3.608a5.04,5.04,0,1,1,2.439-2.438Z" fill="#f1f1f3" fill-rule="evenodd"/>
        <path id="Path_1245136" data-name="Path 1245136" d="M4.57,6.41H6.155a.581.581,0,0,0,.579-.579V4.245L4.57,6.41Z" fill="#e5bfbd" fill-rule="evenodd"/>
        <path id="Path_1245137" data-name="Path 1245137" d="M8.078,3.3V5.831A1.925,1.925,0,0,1,6.155,7.753H3.62V22.5a.581.581,0,0,0,.579.579h14a.581.581,0,0,0,.579-.579V3.875A.582.582,0,0,0,18.2,3.3H8.078Zm4.405,6.151a.671.671,0,0,1,.346-1.3l2.254.6a.671.671,0,0,1,.475.821l-.6,2.254a.671.671,0,0,1-1.3-.346l.185-.692L6.584,14.983a.67.67,0,1,1-.672-1.16l7.261-4.192Zm2.995,2.934a.672.672,0,0,1,1.343,0v9.691a.672.672,0,1,1-1.343,0Zm-3.3,1.91a.672.672,0,0,1,1.343,0v7.782a.672.672,0,1,1-1.343,0Zm-3.3,1.905a.672.672,0,1,1,1.343,0v5.876a.672.672,0,1,1-1.343,0ZM5.577,18.1a.672.672,0,1,1,1.343,0v3.971a.672.672,0,1,1-1.343,0Z" fill="#f1f1f3" fill-rule="evenodd"/>
        <path id="Path_1245138" data-name="Path 1245138" d="M24.517,6.41H26.1a.581.581,0,0,0,.579-.579V4.245L24.517,6.41Z" fill="#e5bfbd" fill-rule="evenodd"/>
        <path id="Path_1245139" data-name="Path 1245139" d="M28.025,3.3V5.831A1.925,1.925,0,0,1,26.1,7.753H23.567V22.5a.581.581,0,0,0,.579.579h14a.581.581,0,0,0,.579-.579V3.875a.582.582,0,0,0-.579-.579H28.025Zm1.68,3.522a.672.672,0,1,1,0-1.343h6.353a.672.672,0,1,1,0,1.343Zm2.445,3.522A.672.672,0,0,1,32.15,9h3.908a.672.672,0,1,1,0,1.343Zm-5.915,0a.672.672,0,0,1,0-1.343h3.115a.672.672,0,1,1,0,1.343Zm0,3.522a.672.672,0,0,1,0-1.343h9.824a.672.672,0,1,1,0,1.343Zm7.871,3.522a.672.672,0,0,1,0-1.343h1.952a.672.672,0,1,1,0,1.343Zm-7.871,0a.672.672,0,0,1,0-1.343h5.071a.672.672,0,1,1,0,1.343Zm0,3.522a.672.672,0,0,1,0-1.343h7.56a.672.672,0,0,1,0,1.343Z" fill="#f1f1f3" fill-rule="evenodd"/>
        <path id="Path_1245140" data-name="Path 1245140" d="M41.029,36.358a5.086,5.086,0,1,0,3.6,1.481,5.053,5.053,0,0,0-3.6-1.481Z" fill="#a5eeff" fill-rule="evenodd"/>
        <path id="Path_1245141" data-name="Path 1245141" d="M50.841,49.975l-.594-.535A2.116,2.116,0,0,0,49.083,50.6l.543.6a2.583,2.583,0,0,0,1.216-1.227Z" fill="#afb6bb" fill-rule="evenodd"/>
        <path id="Path_1245142" data-name="Path 1245142" d="M58.542,56.907,51.865,50.9a3.887,3.887,0,0,1-1.314,1.324l6.04,6.648a1.394,1.394,0,0,0,2.348-1.032,1.219,1.219,0,0,0-.4-.929Z" fill="#5c5b61" fill-rule="evenodd"/>
        <path id="Path_1245143" data-name="Path 1245143" d="M32.9,36.965H27.331a.668.668,0,0,1-.393-.128L22.309,33.47H16.7A1.5,1.5,0,0,0,15.2,34.959L15.2,54.393l5.633-13.474A3.4,3.4,0,0,1,23.724,38.9H32.1a9.232,9.232,0,0,1,.794-1.935Z" fill="#e79a4c" fill-rule="evenodd"/>
        <path id="Path_1245144" data-name="Path 1245144" d="M46.542,10.8a3.7,3.7,0,1,0,5.228,0,3.7,3.7,0,0,0-5.228,0Zm1.969,1.5a.67.67,0,1,1-.672-1.16,2.631,2.631,0,0,1,3.908,1.846.67.67,0,1,1-1.322.215,1.29,1.29,0,0,0-1.914-.9Z" fill="#258b9b" fill-rule="evenodd"/>
        <path id="Path_1245145" data-name="Path 1245145" d="M52.416,17.26l2.845,3.545a.936.936,0,0,0,1.468-.789.683.683,0,0,0-.183-.5L53,16.677Z" fill="#5c5b61" fill-rule="evenodd"/>
      </g>
    </g>
  </g>
</svg>
