<svg xmlns="http://www.w3.org/2000/svg" xmlns:xlink="http://www.w3.org/1999/xlink" width="108" height="108" viewBox="0 0 108 108">
  <defs>
    <filter id="Ellipse_12740" x="0" y="0" width="108" height="108" filterUnits="userSpaceOnUse">
      <feOffset dy="3" input="SourceAlpha"/>
      <feGaussianBlur stdDeviation="3" result="blur"/>
      <feFlood flood-opacity="0.161"/>
      <feComposite operator="in" in2="blur"/>
      <feComposite in="SourceGraphic"/>
    </filter>
    <clipPath id="clip-path">
      <rect id="Rectangle_411018" data-name="Rectangle 411018" width="58" height="68" transform="translate(-6848 -10740)" fill="#fff" stroke="#707070" stroke-width="1" opacity="0"/>
    </clipPath>
  </defs>
  <g id="Group_1203750" data-name="Group 1203750" transform="translate(6873.153 10761.937)">
    <g id="Group_1203657" data-name="Group 1203657" transform="translate(-6864.153 -10755.937)">
      <g transform="matrix(1, 0, 0, 1, -9, -6)" filter="url(#Ellipse_12740)">
        <g id="Ellipse_12740-2" data-name="Ellipse 12740" transform="translate(9 6)" fill="#5bd4dd" stroke="#3f939a" stroke-width="1">
          <circle cx="45" cy="45" r="45" stroke="none"/>
          <circle cx="45" cy="45" r="44.5" fill="none"/>
        </g>
      </g>
    </g>
    <g id="Mask_Group_1099446" data-name="Mask Group 1099446" clip-path="url(#clip-path)">
      <g id="_10._numbers_Numbers_-_Apple_" data-name="10. numbers (Numbers - Apple)" transform="translate(-6859.296 -10746.296)">
        <path id="Path_1245146" data-name="Path 1245146" d="M17.63,10.074V70.519a2.519,2.519,0,0,1,2.519,2.519h40.3a2.519,2.519,0,0,1,2.519-2.519V10.074a2.519,2.519,0,0,1-2.519-2.519h-40.3A2.519,2.519,0,0,1,17.63,10.074Z" fill="#fff"/>
        <path id="Path_1245147" data-name="Path 1245147" d="M17.63,52.889H62.963v2.519H17.63Z" fill="#c1c1c1"/>
        <rect id="Rectangle_411919" data-name="Rectangle 411919" width="55.407" height="22.667" rx="2.519" transform="translate(12.593 28.963)" fill="#009245"/>
        <path id="Path_1245148" data-name="Path 1245148" d="M65.481,27.7H64.222V10.074a1.259,1.259,0,0,0-1.259-1.259A1.259,1.259,0,0,1,61.7,7.556,1.259,1.259,0,0,0,60.444,6.3h-40.3a1.259,1.259,0,0,0-1.259,1.259A1.259,1.259,0,0,1,17.63,8.815a1.259,1.259,0,0,0-1.259,1.259V27.7H15.111a3.778,3.778,0,0,0-3.778,3.778v17.63a3.778,3.778,0,0,0,3.778,3.778H16.37v17.63a1.259,1.259,0,0,0,1.259,1.259,1.259,1.259,0,0,1,1.259,1.259A1.259,1.259,0,0,0,20.148,74.3h40.3A1.259,1.259,0,0,0,61.7,73.037a1.259,1.259,0,0,1,1.259-1.259,1.259,1.259,0,0,0,1.259-1.259V52.889h1.259a3.778,3.778,0,0,0,3.778-3.778V31.481A3.778,3.778,0,0,0,65.481,27.7Zm-46.593-16.6a3.7,3.7,0,0,0,2.292-2.292H59.412A3.7,3.7,0,0,0,61.7,11.107V27.7H18.889ZM61.7,69.486a3.7,3.7,0,0,0-2.292,2.292H21.181a3.7,3.7,0,0,0-2.292-2.292v-16.6H61.7Zm5.037-20.375a1.259,1.259,0,0,1-1.259,1.259H15.111a1.259,1.259,0,0,1-1.259-1.259V31.481a1.259,1.259,0,0,1,1.259-1.259h50.37a1.259,1.259,0,0,1,1.259,1.259Z"/>
        <path id="Path_1245149" data-name="Path 1245149" d="M57.926,13.852H22.667a1.259,1.259,0,1,0,0,2.519H57.926a1.259,1.259,0,0,0,0-2.519Z"/>
        <path id="Path_1245150" data-name="Path 1245150" d="M55.407,18.889H25.185a1.259,1.259,0,1,0,0,2.519H55.407a1.259,1.259,0,0,0,0-2.519Z"/>
        <path id="Path_1245151" data-name="Path 1245151" d="M22.667,61.7H57.926a1.259,1.259,0,1,0,0-2.519H22.667a1.259,1.259,0,1,0,0,2.519Z"/>
        <path id="Path_1245152" data-name="Path 1245152" d="M52.889,64.222H27.7a1.259,1.259,0,1,0,0,2.519H52.889a1.259,1.259,0,1,0,0-2.519Z"/>
        <g id="Group_1204939" data-name="Group 1204939">
          <path id="Path_1245153" data-name="Path 1245153" d="M28.963,32.741A1.259,1.259,0,0,0,27.7,34v8.034L22.49,33.345A1.259,1.259,0,0,0,20.148,34V46.593a1.259,1.259,0,1,0,2.519,0V38.559l5.213,8.689a1.284,1.284,0,0,0,1.083.6h.327a1.259,1.259,0,0,0,.932-1.259V34A1.259,1.259,0,0,0,28.963,32.741Z" fill="#fff"/>
          <path id="Path_1245154" data-name="Path 1245154" d="M41.556,32.741A1.259,1.259,0,0,0,40.3,34v8.815a2.519,2.519,0,1,1-5.037,0V34a1.259,1.259,0,1,0-2.519,0v8.815a5.037,5.037,0,1,0,10.074,0V34A1.259,1.259,0,0,0,41.556,32.741Z" fill="#fff"/>
          <path id="Path_1245155" data-name="Path 1245155" d="M56.742,32.741a1.209,1.209,0,0,0-1.259.856l-2.519,7.757L50.446,33.6a1.234,1.234,0,0,0-1.259-.856,1.259,1.259,0,0,0-1.159,1.007L45.51,46.341a1.284,1.284,0,0,0,2.519.5l1.587-7.959,2.292,6.85a1.284,1.284,0,0,0,2.367,0l2.292-6.85,1.36,7.959a1.259,1.259,0,0,0,1.234,1.007h.252a1.259,1.259,0,0,0,1.033-1.511L57.926,33.748a1.259,1.259,0,0,0-1.184-1.007Z" fill="#fff"/>
        </g>
      </g>
    </g>
  </g>
</svg>
