<svg xmlns="http://www.w3.org/2000/svg" xmlns:xlink="http://www.w3.org/1999/xlink" width="108" height="108" viewBox="0 0 108 108">
  <defs>
    <filter id="Ellipse_12740" x="0" y="0" width="108" height="108" filterUnits="userSpaceOnUse">
      <feOffset dy="3" input="SourceAlpha"/>
      <feGaussianBlur stdDeviation="3" result="blur"/>
      <feFlood flood-opacity="0.161"/>
      <feComposite operator="in" in2="blur"/>
      <feComposite in="SourceGraphic"/>
    </filter>
    <clipPath id="clip-path">
      <rect id="Rectangle_411018" data-name="Rectangle 411018" width="58" height="68" transform="translate(-6848 -10740)" fill="#fff" stroke="#707070" stroke-width="1" opacity="0"/>
    </clipPath>
  </defs>
  <g id="Group_1203748" data-name="Group 1203748" transform="translate(6873.153 10761.937)">
    <g id="Group_1203657" data-name="Group 1203657" transform="translate(-6864.153 -10755.937)">
      <g transform="matrix(1, 0, 0, 1, -9, -6)" filter="url(#Ellipse_12740)">
        <g id="Ellipse_12740-2" data-name="Ellipse 12740" transform="translate(9 6)" fill="#5bd4dd" stroke="#3f939a" stroke-width="1">
          <circle cx="45" cy="45" r="45" stroke="none"/>
          <circle cx="45" cy="45" r="44.5" fill="none"/>
        </g>
      </g>
    </g>
    <g id="Mask_Group_1099443" data-name="Mask Group 1099443" clip-path="url(#clip-path)">
      <g id="Page-1" transform="translate(-6848 -10734.99)">
        <g id="_036---Repair-PC-Tower" data-name="036---Repair-PC-Tower">
          <path id="Path" d="M33.833,3.867v24.3a15.467,15.467,0,0,0-4.34,23.065H3.867a2.9,2.9,0,0,1-2.9-2.9V3.867a2.9,2.9,0,0,1,2.9-2.9H30.933a2.9,2.9,0,0,1,2.9,2.9Z" fill="#9e9e9e" fill-rule="evenodd"/>
          <path id="Path-2" data-name="Path" d="M30.933.967h-2.9a2.9,2.9,0,0,1,2.9,2.9v24.3a15.467,15.467,0,0,0-4.34,23.065h2.9a15.467,15.467,0,0,1,4.34-23.065V3.867a2.9,2.9,0,0,0-2.9-2.9Z" fill="#707070" fill-rule="evenodd"/>
          <rect id="Rectangle" width="25.133" height="23.2" rx="2.9" transform="translate(4.833 4.833)" fill="#7f8e94"/>
          <path id="Path-3" data-name="Path" d="M27.067,4.833h-2.9a2.9,2.9,0,0,1,2.9,2.9v17.4a2.9,2.9,0,0,1-2.9,2.9h2.9a2.9,2.9,0,0,0,2.9-2.9V7.733A2.9,2.9,0,0,0,27.067,4.833Z" fill="#545c60" fill-rule="evenodd"/>
          <path id="Path-4" data-name="Path" d="M12.567,51.233v1.933A1.939,1.939,0,0,1,10.633,55.1H5.8a1.939,1.939,0,0,1-1.933-1.933V51.233Z" fill="#545c60" fill-rule="evenodd"/>
          <path id="Path-5" data-name="Path" d="M30.933,52.8v.367A1.939,1.939,0,0,1,29,55.1H24.167a1.939,1.939,0,0,1-1.933-1.933V51.233h7.26A14.79,14.79,0,0,0,30.933,52.8Z" fill="#545c60" fill-rule="evenodd"/>
          <path id="Path-6" data-name="Path" d="M57.033,41.567A15.467,15.467,0,0,1,30.933,52.8a14.79,14.79,0,0,1-1.44-1.566,15.467,15.467,0,1,1,27.54-9.667Z" fill="#ef314c" fill-rule="evenodd"/>
          <path id="Path-7" data-name="Path" d="M41.567,26.1c-.483,0-.967.03-1.436.073a15.461,15.461,0,0,1-.042,30.788c.483.045.979.072,1.478.072a15.467,15.467,0,1,0,0-30.933Z" fill="#bb193b" fill-rule="evenodd"/>
          <path id="Path-8" data-name="Path" d="M44.689,45.443l1.218,10.972a15.294,15.294,0,0,1-4.34.619,15.646,15.646,0,0,1-4.34-.619l1.208-10.962a.96.96,0,0,0-.522-.947,7.72,7.72,0,0,1-.232-13.485.664.664,0,0,1,.986.58v3.838a.979.979,0,0,0,.435.812l1.933,1.286a.931.931,0,0,0,1.063,0l1.943-1.3a.96.96,0,0,0,.425-.793V31.6a.664.664,0,0,1,.986-.58,7.727,7.727,0,0,1-.251,13.5.942.942,0,0,0-.512.918Z" fill="#9e9e9e" fill-rule="evenodd"/>
          <path id="Path-9" data-name="Path" d="M45.2,44.525a7.727,7.727,0,0,0,.251-13.5.664.664,0,0,0-.986.58v1.017A7.7,7.7,0,0,1,42.3,44.525a.942.942,0,0,0-.512.918l1.218,10.972a15.111,15.111,0,0,1-2.881.543c.474.044.957.075,1.44.075a15.294,15.294,0,0,0,4.34-.619L44.689,45.443a.942.942,0,0,1,.512-.918Z" fill="#707070" fill-rule="evenodd"/>
          <g id="Group_1204937" data-name="Group 1204937">
            <path id="Shape" d="M7.733,29H27.067a3.867,3.867,0,0,0,3.867-3.867V7.733a3.867,3.867,0,0,0-3.867-3.867H7.733A3.867,3.867,0,0,0,3.867,7.733v17.4A3.867,3.867,0,0,0,7.733,29ZM29,19.333H5.8v-5.8H29Zm-1.933,7.733H7.733A1.933,1.933,0,0,1,5.8,25.133V21.267H29v3.867A1.933,1.933,0,0,1,27.067,27.067ZM7.733,5.8H27.067A1.933,1.933,0,0,1,29,7.733V11.6H5.8V7.733A1.933,1.933,0,0,1,7.733,5.8Z"/>
            <path id="Path-10" data-name="Path" d="M14.5,9.667h5.8a.967.967,0,0,0,0-1.933H14.5a.967.967,0,1,0,0,1.933Z" fill-rule="evenodd"/>
            <path id="Path-11" data-name="Path" d="M14.5,17.4h5.8a.967.967,0,0,0,0-1.933H14.5a.967.967,0,1,0,0,1.933Z" fill-rule="evenodd"/>
            <path id="Path-12" data-name="Path" d="M20.3,23.2H14.5a.967.967,0,1,0,0,1.933h5.8a.967.967,0,0,0,0-1.933Z" fill-rule="evenodd"/>
            <path id="Path-13" data-name="Path" d="M20.687,38.86a.967.967,0,0,0-.193,1.353,3.822,3.822,0,0,1,.773,2.32,3.867,3.867,0,1,1-7.733,0,3.822,3.822,0,0,1,.773-2.32.967.967,0,1,0-1.547-1.16,5.8,5.8,0,1,0,9.28,0,.967.967,0,0,0-1.353-.193Z" fill-rule="evenodd"/>
            <path id="Path-14" data-name="Path" d="M17.4,43.5a.967.967,0,0,0,.967-.967V37.7a.967.967,0,0,0-1.933,0v4.833A.967.967,0,0,0,17.4,43.5Z" fill-rule="evenodd"/>
            <circle id="Oval" cx="0.967" cy="0.967" r="0.967" transform="translate(14.5 31.9)"/>
            <circle id="Oval-2" data-name="Oval" cx="0.967" cy="0.967" r="0.967" transform="translate(10.633 31.9)"/>
            <circle id="Oval-3" data-name="Oval" cx="0.967" cy="0.967" r="0.967" transform="translate(18.367 31.9)"/>
            <circle id="Oval-4" data-name="Oval" cx="0.967" cy="0.967" r="0.967" transform="translate(22.233 31.9)"/>
            <path id="Shape-2" data-name="Shape" d="M41.567,25.133A16.315,16.315,0,0,0,34.8,26.609V3.867A3.867,3.867,0,0,0,30.933,0H3.867A3.867,3.867,0,0,0,0,3.867V48.333a3.867,3.867,0,0,0,2.9,3.729v1.1a2.9,2.9,0,0,0,2.9,2.9h4.833a2.9,2.9,0,0,0,2.9-2.9V52.2h7.733v.967a2.9,2.9,0,0,0,2.9,2.9H29a2.888,2.888,0,0,0,2.532-1.515A16.424,16.424,0,1,0,41.567,25.133ZM1.933,48.333V3.867A1.933,1.933,0,0,1,3.867,1.933H30.933a1.933,1.933,0,0,1,1.933,1.933v23.78a16.355,16.355,0,0,0-5.22,22.62H3.867A1.933,1.933,0,0,1,1.933,48.333ZM11.6,53.167a.967.967,0,0,1-.967.967H5.8a.967.967,0,0,1-.967-.967V52.2H11.6Zm17.4.967H24.167a.967.967,0,0,1-.967-.967V52.2h5.86c.29.34.586.677.9.991A.967.967,0,0,1,29,54.133Zm9.28,1.547L39.4,45.565a1.933,1.933,0,0,0-1.023-1.909,6.753,6.753,0,0,1-.677-11.5v3.287a1.933,1.933,0,0,0,.87,1.616l1.917,1.273a1.894,1.894,0,0,0,2.151.012l1.942-1.294a1.915,1.915,0,0,0,.854-1.6V32.154a6.761,6.761,0,0,1-.691,11.522,1.888,1.888,0,0,0-1.012,1.871L44.853,55.68a14.05,14.05,0,0,1-6.573,0Zm8.453-.58L45.65,45.385a8.7,8.7,0,0,0,.29-15.2,1.6,1.6,0,0,0-1.617,0A1.643,1.643,0,0,0,43.5,31.6l0,3.836-1.938,1.3-1.933-1.291V31.6a1.643,1.643,0,0,0-.823-1.418,1.6,1.6,0,0,0-1.614,0,8.715,8.715,0,0,0-4.253,8.651,8.6,8.6,0,0,0,4.537,6.515L36.4,55.1a14.5,14.5,0,1,1,10.335,0Z"/>
            <path id="Path-15" data-name="Path" d="M41.567,48.333a.967.967,0,0,0-.967.967v3.867a.967.967,0,1,0,1.933,0V49.3A.967.967,0,0,0,41.567,48.333Z" fill-rule="evenodd"/>
          </g>
        </g>
      </g>
    </g>
  </g>
</svg>
