<svg xmlns="http://www.w3.org/2000/svg" xmlns:xlink="http://www.w3.org/1999/xlink" width="108" height="108" viewBox="0 0 108 108">
  <defs>
    <filter id="Ellipse_12740" x="0" y="0" width="108" height="108" filterUnits="userSpaceOnUse">
      <feOffset dy="3" input="SourceAlpha"/>
      <feGaussianBlur stdDeviation="3" result="blur"/>
      <feFlood flood-opacity="0.161"/>
      <feComposite operator="in" in2="blur"/>
      <feComposite in="SourceGraphic"/>
    </filter>
    <clipPath id="clip-path">
      <rect id="Rectangle_411018" data-name="Rectangle 411018" width="58" height="68" transform="translate(-6848 -10740)" fill="#fff" stroke="#707070" stroke-width="1" opacity="0"/>
    </clipPath>
  </defs>
  <g id="Group_1203747" data-name="Group 1203747" transform="translate(6873.153 10761.937)">
    <g id="Group_1203657" data-name="Group 1203657" transform="translate(-6864.153 -10755.937)">
      <g transform="matrix(1, 0, 0, 1, -9, -6)" filter="url(#Ellipse_12740)">
        <g id="Ellipse_12740-2" data-name="Ellipse 12740" transform="translate(9 6)" fill="#5bd4dd" stroke="#3f939a" stroke-width="1">
          <circle cx="45" cy="45" r="45" stroke="none"/>
          <circle cx="45" cy="45" r="44.5" fill="none"/>
        </g>
      </g>
    </g>
    <g id="Mask_Group_1099444" data-name="Mask Group 1099444" clip-path="url(#clip-path)">
      <g id="compartir-datos" transform="translate(-6848 -10735)">
        <path id="Path_1245103" data-name="Path 1245103" d="M37.156,39.875H20.844V18.125H31.719l5.438,5.438Zm0,0" fill="#00c3ff"/>
        <path id="Path_1245104" data-name="Path 1245104" d="M.906.906H11.781v21.75H.906Zm0,0" fill="#91e8ed"/>
        <path id="Path_1245105" data-name="Path 1245105" d="M.906,35.344H11.781v21.75H.906Zm0,0" fill="#91e8ed"/>
        <path id="Path_1245106" data-name="Path 1245106" d="M46.219.906H57.094v21.75H46.219Zm0,0" fill="#91e8ed"/>
        <path id="Path_1245107" data-name="Path 1245107" d="M46.219,35.344H57.094v21.75H46.219Zm0,0" fill="#91e8ed"/>
        <path id="Path_1245108" data-name="Path 1245108" d="M24.469,22.656h3.625v3.625H24.469Zm0,0" fill="#ffea00"/>
        <path id="Path_1245109" data-name="Path 1245109" d="M31.719,18.125v5.438h5.438Zm0,0" fill="#ffea00"/>
        <g id="Group_1204938" data-name="Group 1204938">
          <path id="Path_1245110" data-name="Path 1245110" d="M5.438,18.125H7.25v1.813H5.438Zm0,0" fill="#fff"/>
          <path id="Path_1245111" data-name="Path 1245111" d="M5.438,14.5H7.25v1.813H5.438Zm0,0" fill="#fff"/>
          <path id="Path_1245112" data-name="Path 1245112" d="M5.438,52.563H7.25v1.813H5.438Zm0,0" fill="#fff"/>
          <path id="Path_1245113" data-name="Path 1245113" d="M5.438,48.938H7.25V50.75H5.438Zm0,0" fill="#fff"/>
          <path id="Path_1245114" data-name="Path 1245114" d="M50.75,18.125h1.813v1.813H50.75Zm0,0" fill="#fff"/>
          <path id="Path_1245115" data-name="Path 1245115" d="M50.75,14.5h1.813v1.813H50.75Zm0,0" fill="#fff"/>
          <path id="Path_1245116" data-name="Path 1245116" d="M50.75,52.563h1.813v1.813H50.75Zm0,0" fill="#fff"/>
          <path id="Path_1245117" data-name="Path 1245117" d="M50.75,48.938h1.813V50.75H50.75Zm0,0" fill="#fff"/>
          <path id="Path_1245118" data-name="Path 1245118" d="M23.563,29.906H34.438v1.813H23.563Zm0,0" fill="#fff"/>
          <path id="Path_1245119" data-name="Path 1245119" d="M23.563,34.438h7.25V36.25h-7.25Zm0,0" fill="#fff"/>
          <path id="Path_1245120" data-name="Path 1245120" d="M32.625,34.438h1.813V36.25H32.625Zm0,0" fill="#fff"/>
        </g>
        <path id="Path_1245121" data-name="Path 1245121" d="M3.625,3.625H9.063V5.438H3.625Zm0,0"/>
        <path id="Path_1245122" data-name="Path 1245122" d="M3.625,7.25H9.063V9.063H3.625Zm0,0"/>
        <path id="Path_1245123" data-name="Path 1245123" d="M3.625,38.063H9.063v1.813H3.625Zm0,0"/>
        <path id="Path_1245124" data-name="Path 1245124" d="M3.625,41.688H9.063V43.5H3.625Zm0,0"/>
        <path id="Path_1245125" data-name="Path 1245125" d="M58,23.563V0H45.313V9.063H34.438v10.5l-2.344-2.344H29.906V0H28.094V17.219H23.563V9.063H12.688V0H0V23.563H12.688V10.875H21.75v6.344H19.938V40.781H21.75v6.344H12.688V34.438H0V58H12.688V48.938H23.563V40.781h4.531V58h1.813V40.781h4.531v8.156H45.313V58H58V34.438H45.313V47.125H36.25V40.781h1.813V23.187L36.25,21.375v-10.5h9.063V23.562ZM47.125,1.813h9.063V21.75H47.125ZM10.875,21.75H1.813V1.813h9.063Zm0,34.438H1.813V36.25h9.063ZM47.125,36.25h9.063V56.188H47.125Zm-14.5-15.937,2.344,2.344H32.625ZM36.25,38.969H21.75V19.031h9.063v5.438H36.25Zm0,0"/>
        <path id="Path_1245126" data-name="Path 1245126" d="M48.938,3.625h5.438V5.438H48.938Zm0,0"/>
        <path id="Path_1245127" data-name="Path 1245127" d="M48.938,7.25h5.438V9.063H48.938Zm0,0"/>
        <path id="Path_1245128" data-name="Path 1245128" d="M48.938,38.063h5.438v1.813H48.938Zm0,0"/>
        <path id="Path_1245129" data-name="Path 1245129" d="M48.938,41.688h5.438V43.5H48.938Zm0,0"/>
        <path id="Path_1245130" data-name="Path 1245130" d="M23.563,27.188H29V21.75H23.563Zm1.813-3.625h1.813v1.813H25.375Zm0,0"/>
      </g>
    </g>
  </g>
</svg>
