<svg xmlns="http://www.w3.org/2000/svg" xmlns:xlink="http://www.w3.org/1999/xlink" width="108" height="108" viewBox="0 0 108 108">
  <defs>
    <filter id="Ellipse_12740" x="0" y="0" width="108" height="108" filterUnits="userSpaceOnUse">
      <feOffset dy="3" input="SourceAlpha"/>
      <feGaussianBlur stdDeviation="3" result="blur"/>
      <feFlood flood-opacity="0.161"/>
      <feComposite operator="in" in2="blur"/>
      <feComposite in="SourceGraphic"/>
    </filter>
    <clipPath id="clip-path">
      <rect id="Rectangle_411018" data-name="Rectangle 411018" width="58" height="68" transform="translate(-6848 -10740)" fill="#fff" stroke="#707070" stroke-width="1" opacity="0"/>
    </clipPath>
  </defs>
  <g id="Group_1203657" data-name="Group 1203657" transform="translate(6873.153 10761.937)">
    <g id="Group_1203657-2" data-name="Group 1203657" transform="translate(-6864.153 -10755.937)">
      <g transform="matrix(1, 0, 0, 1, -9, -6)" filter="url(#Ellipse_12740)">
        <g id="Ellipse_12740-2" data-name="Ellipse 12740" transform="translate(9 6)" fill="#5bd4dd" stroke="#3f939a" stroke-width="1">
          <circle cx="45" cy="45" r="45" stroke="none"/>
          <circle cx="45" cy="45" r="44.5" fill="none"/>
        </g>
      </g>
    </g>
    <g id="Mask_Group_1099431" data-name="Mask Group 1099431" clip-path="url(#clip-path)">
      <g id="sitio-web" transform="translate(-6848 -10735)">
        <path id="Path_1244919" data-name="Path 1244919" d="M46.175,19.823l2.647-2.647L48.1,15.9h8.962v7.484h-13.1V18.756c.065-.028.122-.056.187-.084Zm0,0" fill="#b4dd7f"/>
        <path id="Path_1244920" data-name="Path 1244920" d="M34.276,19.823l2.02-1.151c.066.028.122.056.187.084v4.631H.935V15.9H32.349l-.72,1.272Zm0,0" fill="#b4dd7f"/>
        <path id="Path_1244921" data-name="Path 1244921" d="M.935,23.387H36.484v8.419l3.742,5.613,3.742-5.613V23.387h13.1V57.065H.935Zm0,0" fill="#e6e9ed"/>
        <g id="Group_1204923" data-name="Group 1204923">
          <path id="Path_1244922" data-name="Path 1244922" d="M50.516,9.355V13.1l-2.245.618a8.814,8.814,0,0,1-.6,1.441l.421.748H48.1l.72,1.272-2.647,2.647-2.02-1.151c-.066.028-.122.056-.187.084v.889H36.484v-.889c-.065-.028-.122-.056-.187-.084l-2.02,1.151-2.647-2.647.72-1.272h.009l.421-.748a8.815,8.815,0,0,1-.6-1.441L29.936,13.1V9.355l2.245-.618a8.815,8.815,0,0,1,.6-1.441l-1.151-2.02,2.647-2.647L36.3,3.779a8.814,8.814,0,0,1,1.441-.6L38.355.935H42.1l.618,2.245a8.815,8.815,0,0,1,1.441.6l2.02-1.151,2.647,2.647L47.672,7.3a8.815,8.815,0,0,1,.6,1.441ZM44.9,11.226A4.677,4.677,0,1,0,40.226,15.9,4.679,4.679,0,0,0,44.9,11.226Zm0,0" fill="#fcd770"/>
          <path id="Path_1244923" data-name="Path 1244923" d="M40.226,19.645V31.806H36.484V19.645Zm0,0" fill="#fcd770"/>
          <path id="Path_1244924" data-name="Path 1244924" d="M43.968,23.387v8.419H40.226V19.645h3.742Zm0,0" fill="#fcd770"/>
        </g>
        <path id="Path_1244925" data-name="Path 1244925" d="M43.968,31.806l-3.742,5.613-3.742-5.613Zm0,0" fill="#969faa"/>
        <path id="Path_1244926" data-name="Path 1244926" d="M34.613,42.1H45.839V53.323H34.613Zm0,0" fill="#fcd770"/>
        <path id="Path_1244927" data-name="Path 1244927" d="M20.581,31.432V42.1H9.355V30.871H20.581Zm0,0" fill="#ff826e"/>
        <path id="Path_1244928" data-name="Path 1244928" d="M40.226,16.839a5.613,5.613,0,1,0-5.613-5.613A5.618,5.618,0,0,0,40.226,16.839Zm0-9.355a3.742,3.742,0,1,1-3.742,3.742A3.746,3.746,0,0,1,40.226,7.484Zm0,0"/>
        <path id="Path_1244929" data-name="Path 1244929" d="M48.793,14.968c.071-.161.142-.323.2-.486l2.456-.671V8.641L49,7.969c-.08-.215-.17-.429-.267-.641l1.263-2.212L46.337,1.46,44.124,2.723q-.317-.146-.641-.267L42.812,0H37.641l-.671,2.456c-.215.08-.429.17-.641.267L34.116,1.459,30.46,5.115l1.263,2.213q-.146.317-.267.641L29,8.64v5.171l2.456.671c.061.163.132.324.2.486H0V58H58V14.968Zm7.336,7.484H44.9V20.174l1.432.818,3.656-3.656-.283-.5h6.421ZM42.22,32.742l-1.994,2.991-1.994-2.991Zm.812-1.871H41.161V20.581h1.871ZM30.871,12.382V10.069l2.051-.562.151-.49a7.5,7.5,0,0,1,.534-1.281l.243-.454L32.793,5.429l1.635-1.635L36.28,4.851l.454-.243a7.424,7.424,0,0,1,1.281-.534l.49-.151.564-2.052h2.313l.562,2.051.49.151a7.5,7.5,0,0,1,1.281.534l.454.243,1.852-1.057,1.635,1.635L46.6,7.28l.243.454a7.424,7.424,0,0,1,.534,1.281l.151.49,2.052.564v2.313l-2.051.562-.151.49a7.443,7.443,0,0,1-.535,1.282l-.242.454,1.057,1.852-1.635,1.635-1.406-.8-.5-.233-1.09.56v.526H37.419v-.526L36.281,17.6l-1.852,1.057-1.635-1.635,1.057-1.853-.242-.454a7.372,7.372,0,0,1-.535-1.282l-.151-.49Zm-.127,4.457-.283.5,3.656,3.656,1.432-.818v2.278H1.871V16.839ZM1.871,56.129V24.323H37.419V20.581H39.29v10.29H37.419V26.194H35.548v5.9l4.677,7.016L44.9,32.09V24.323H56.129V56.129Zm0,0"/>
        <path id="Path_1244930" data-name="Path 1244930" d="M3.742,18.71H5.613v1.871H3.742Zm0,0"/>
        <path id="Path_1244931" data-name="Path 1244931" d="M7.484,18.71H9.355v1.871H7.484Zm0,0"/>
        <path id="Path_1244932" data-name="Path 1244932" d="M11.226,18.71H13.1v1.871H11.226Zm0,0"/>
        <path id="Path_1244933" data-name="Path 1244933" d="M21.516,31.731l3.567-4.994L23.561,25.65,20.5,29.935H8.419v13.1h13.1ZM10.29,41.161V31.806h8.873l-4.315,6.041-2.025-2.025L11.5,37.145l3.588,3.588,4.558-6.381v6.809Zm0,0"/>
        <path id="Path_1244934" data-name="Path 1244934" d="M33.677,54.258h13.1v-13.1h-13.1Zm1.871-11.226H44.9v9.355H35.548Zm0,0"/>
        <path id="Path_1244935" data-name="Path 1244935" d="M42.371,44.242l-2.145,2.145-2.145-2.145-1.323,1.323L38.9,47.71l-2.145,2.145,1.323,1.323,2.145-2.145,2.145,2.145,1.323-1.323L41.549,47.71l2.145-2.145Zm0,0"/>
        <path id="Path_1244936" data-name="Path 1244936" d="M3.742,44.9H5.613v1.871H3.742Zm0,0"/>
        <path id="Path_1244937" data-name="Path 1244937" d="M7.484,44.9h18.71v1.871H7.484Zm0,0"/>
        <path id="Path_1244938" data-name="Path 1244938" d="M3.742,48.645H26.194v1.871H3.742Zm0,0"/>
        <path id="Path_1244939" data-name="Path 1244939" d="M3.742,52.387h18.71v1.871H3.742Zm0,0"/>
        <path id="Path_1244940" data-name="Path 1244940" d="M24.323,52.387h1.871v1.871H24.323Zm0,0"/>
      </g>
    </g>
  </g>
</svg>
