<svg xmlns="http://www.w3.org/2000/svg" xmlns:xlink="http://www.w3.org/1999/xlink" width="108" height="108" viewBox="0 0 108 108">
  <defs>
    <filter id="Ellipse_12740" x="0" y="0" width="108" height="108" filterUnits="userSpaceOnUse">
      <feOffset dy="3" input="SourceAlpha"/>
      <feGaussianBlur stdDeviation="3" result="blur"/>
      <feFlood flood-opacity="0.161"/>
      <feComposite operator="in" in2="blur"/>
      <feComposite in="SourceGraphic"/>
    </filter>
    <clipPath id="clip-path">
      <rect id="Rectangle_411018" data-name="Rectangle 411018" width="58" height="68" transform="translate(-6848 -10740)" fill="#fff" stroke="#707070" stroke-width="1" opacity="0"/>
    </clipPath>
  </defs>
  <g id="Group_1203752" data-name="Group 1203752" transform="translate(6873.153 10761.937)">
    <g id="Group_1203657" data-name="Group 1203657" transform="translate(-6864.153 -10755.937)">
      <g transform="matrix(1, 0, 0, 1, -9, -6)" filter="url(#Ellipse_12740)">
        <g id="Ellipse_12740-2" data-name="Ellipse 12740" transform="translate(9 6)" fill="#5bd4dd" stroke="#3f939a" stroke-width="1">
          <circle cx="45" cy="45" r="45" stroke="none"/>
          <circle cx="45" cy="45" r="44.5" fill="none"/>
        </g>
      </g>
    </g>
    <g id="Mask_Group_1099448" data-name="Mask Group 1099448" clip-path="url(#clip-path)">
      <g id="conexion_1_" data-name="conexion (1)" transform="translate(-6848 -10735)">
        <path id="Path_1245156" data-name="Path 1245156" d="M42.1,15.9A13.1,13.1,0,1,1,29,2.806,13.1,13.1,0,0,1,42.1,15.9Zm0,0" fill="#e6e9ed"/>
        <path id="Path_1245157" data-name="Path 1245157" d="M57.065,42.1A13.1,13.1,0,1,1,43.968,29,13.1,13.1,0,0,1,57.065,42.1Zm0,0" fill="#e6e9ed"/>
        <path id="Path_1245158" data-name="Path 1245158" d="M27.129,42.1A13.1,13.1,0,1,1,14.032,29,13.1,13.1,0,0,1,27.129,42.1Zm0,0" fill="#e6e9ed"/>
        <g id="Group_1204940" data-name="Group 1204940">
          <path id="Path_1245159" data-name="Path 1245159" d="M10.29.935a1.876,1.876,0,0,1,1.871,1.871,1.421,1.421,0,0,1-.028.28,1.83,1.83,0,0,1-1.151,1.45,1.73,1.73,0,0,1-.692.14A1.846,1.846,0,0,1,9.2,4.322,1.87,1.87,0,0,1,10.29.935Zm0,0" fill="#fcd770"/>
          <path id="Path_1245160" data-name="Path 1245160" d="M3.9,11.581A1.878,1.878,0,0,1,4.677,13.1a1.837,1.837,0,0,1-.075.514A1.873,1.873,0,0,1,3.283,14.9a1.592,1.592,0,0,1-.477.065,1.871,1.871,0,1,1,0-3.742,1.846,1.846,0,0,1,1.094.355Zm0,0" fill="#fcd770"/>
          <path id="Path_1245161" data-name="Path 1245161" d="M9.121,29.963a1.868,1.868,0,0,1-3.228,1.881,1.82,1.82,0,0,1-.28-.973,1.875,1.875,0,0,1,1.394-1.806A1.592,1.592,0,0,1,7.484,29a1.78,1.78,0,0,1,.963.271,1.842,1.842,0,0,1,.674.692Zm0,0" fill="#fcd770"/>
          <path id="Path_1245162" data-name="Path 1245162" d="M15.95,14.968a1.869,1.869,0,0,1,.253,3.714,1.544,1.544,0,0,1-.3.028,1.881,1.881,0,0,1-1.871-1.871,1.876,1.876,0,0,1,1.178-1.731,1.73,1.73,0,0,1,.692-.14Zm0,0" fill="#fcd770"/>
          <path id="Path_1245163" data-name="Path 1245163" d="M24.089,3.77A1.868,1.868,0,0,1,20.861,5.65a1.82,1.82,0,0,1-.28-.973,1.421,1.421,0,0,1,.028-.28,1.865,1.865,0,0,1,1.843-1.591,1.892,1.892,0,0,1,1.637.963Zm0,0" fill="#fcd770"/>
          <path id="Path_1245164" data-name="Path 1245164" d="M39.468,8.054a1.846,1.846,0,0,1-1.113.365,1.876,1.876,0,0,1-1.871-1.871,1.846,1.846,0,0,1,.365-1.113,1.873,1.873,0,0,1,3.349.786,1.853,1.853,0,0,1,.028.328,1.88,1.88,0,0,1-.15.729,1.97,1.97,0,0,1-.608.777Zm0,0" fill="#fcd770"/>
          <path id="Path_1245165" data-name="Path 1245165" d="M53.369,3.218a2,2,0,0,1-.047-.412,1.871,1.871,0,1,1,1.871,1.871h-.037a1.88,1.88,0,0,1-1.787-1.459Zm0,0" fill="#fcd770"/>
          <path id="Path_1245166" data-name="Path 1245166" d="M55.016,11.235a1.1,1.1,0,0,1,.178-.009,1.871,1.871,0,1,1-1.478,3.012,1.816,1.816,0,0,1-.393-1.141,1.876,1.876,0,0,1,1.693-1.862Zm0,0" fill="#fcd770"/>
          <path id="Path_1245167" data-name="Path 1245167" d="M48.243,18.495a1.849,1.849,0,0,1,.4,1.151,1.871,1.871,0,1,1-1.871-1.871,1.842,1.842,0,0,1,1.469.72Zm0,0" fill="#fcd770"/>
          <path id="Path_1245168" data-name="Path 1245168" d="M53.594,33.238a1.872,1.872,0,0,1-3.078-1.431,1.806,1.806,0,0,1,.234-.9,1.887,1.887,0,0,1,1.637-.973,1.872,1.872,0,0,1,1.207,3.3Zm0,0" fill="#fcd770"/>
          <path id="Path_1245169" data-name="Path 1245169" d="M45.839,55.194a1.871,1.871,0,1,1-3.742,0,.777.777,0,0,1,.009-.15,1.868,1.868,0,0,1,3.724,0,.777.777,0,0,1,.009.15Zm0,0" fill="#fcd770"/>
          <path id="Path_1245170" data-name="Path 1245170" d="M28.411,53.425a1.776,1.776,0,0,1,.589-.1,1.9,1.9,0,1,1-.589.1Zm0,0" fill="#fcd770"/>
          <path id="Path_1245171" data-name="Path 1245171" d="M26.792,45.006a1.87,1.87,0,0,1,1.272,1.768,1.89,1.89,0,0,1-1.282,1.777,2.039,2.039,0,0,1-.589.094,1.93,1.93,0,0,1-.739-.15,1.872,1.872,0,0,1,.739-3.592,1.834,1.834,0,0,1,.6.1Zm0,0" fill="#fcd770"/>
        </g>
        <path id="Path_1245172" data-name="Path 1245172" d="M52.387,47.953v4.163a13.047,13.047,0,0,1-6.558,2.928,1.868,1.868,0,0,0-3.724,0,13.047,13.047,0,0,1-6.558-2.928V47.953a2.8,2.8,0,0,1,2.04-2.694L42.1,43.968l1.871,1.871,1.871-1.871,4.509,1.291A2.8,2.8,0,0,1,52.387,47.953Zm0,0" fill="#b4dd7f"/>
        <path id="Path_1245173" data-name="Path 1245173" d="M45.839,41.592v2.376l-1.871,1.871L42.1,43.968V41.592a3.717,3.717,0,0,0,3.742,0Zm0,0" fill="#f0d0b4"/>
        <path id="Path_1245174" data-name="Path 1245174" d="M45.839,41.592a3.742,3.742,0,0,1-5.613-3.237V36.484a3.742,3.742,0,1,1,7.484,0v1.871A3.723,3.723,0,0,1,45.839,41.592Zm0,0" fill="#f0d0b4"/>
        <path id="Path_1245175" data-name="Path 1245175" d="M22.452,47.953v4.154a13.04,13.04,0,0,1-16.839.009V47.953a2.8,2.8,0,0,1,2.04-2.694l4.509-1.291,1.871,1.871L15.9,43.968l4.509,1.291a2.8,2.8,0,0,1,2.04,2.694Zm0,0" fill="#69d6f4"/>
        <path id="Path_1245176" data-name="Path 1245176" d="M15.9,41.592v2.376l-1.871,1.871-1.871-1.871V41.592a3.717,3.717,0,0,0,3.742,0Zm0,0" fill="#f0d0b4"/>
        <path id="Path_1245177" data-name="Path 1245177" d="M15.9,41.592a3.742,3.742,0,0,1-5.613-3.237V36.484a3.742,3.742,0,1,1,7.484,0v1.871A3.723,3.723,0,0,1,15.9,41.592Zm0,0" fill="#f0d0b4"/>
        <path id="Path_1245178" data-name="Path 1245178" d="M37.419,21.759v4.163a13.07,13.07,0,0,1-16.839.01V21.759a2.8,2.8,0,0,1,2.04-2.694l4.509-1.291L29,19.645l1.871-1.871,4.509,1.291A2.8,2.8,0,0,1,37.419,21.759Zm0,0" fill="#ff826e"/>
        <path id="Path_1245179" data-name="Path 1245179" d="M30.871,15.4v2.376L29,19.645l-1.871-1.871V15.4a3.717,3.717,0,0,0,3.742,0Zm0,0" fill="#f0d0b4"/>
        <path id="Path_1245180" data-name="Path 1245180" d="M27.129,15.4a3.723,3.723,0,0,1-1.871-3.237V10.29a3.742,3.742,0,1,1,7.484,0v1.871A3.737,3.737,0,0,1,27.129,15.4Zm0,0" fill="#f0d0b4"/>
        <path id="Path_1245181" data-name="Path 1245181" d="M55.194,15.9a2.8,2.8,0,0,0,.776-5.49l.1-4.955A2.8,2.8,0,1,0,52.42,2.479L40.767,5.136a2.785,2.785,0,0,0-4-.894A13.844,13.844,0,0,0,24.4,2.663a2.783,2.783,0,0,0-4.405.689L13.044,2.283a2.8,2.8,0,1,0-5.065,2.11L3.6,10.419a2.749,2.749,0,0,0-.793-.128,2.8,2.8,0,0,0-.236,5.59L5.906,28.553a2.742,2.742,0,0,0-1.125,3.034A14.013,14.013,0,1,0,25.906,49.552c.079.008.154.022.235.023l1.14,3.417a2.8,2.8,0,1,0,4.354,3.137h9.7a2.794,2.794,0,0,0,5.36-.3,13.971,13.971,0,0,0,8.1-22.615,2.774,2.774,0,0,0,.4-1.412A2.81,2.81,0,0,0,52.387,29c-.087,0-.169.018-.254.025l-3.4-7.374a2.793,2.793,0,0,0,.851-2.006,2.76,2.76,0,0,0-.154-.878l4.259-3.312a2.781,2.781,0,0,0,1.509.448ZM54.2,5.423,54.1,10.515a2.8,2.8,0,0,0-1.016.756L41.693,6.843,52.829,4.3A2.808,2.808,0,0,0,54.2,5.423Zm.991,8.609a.935.935,0,1,1,.935-.935A.937.937,0,0,1,55.194,14.032Zm0-12.161a.935.935,0,1,1-.935.935A.937.937,0,0,1,55.194,1.871ZM38.355,5.613a.935.935,0,1,1-.935.935A.937.937,0,0,1,38.355,5.613Zm-2.68.149a2.778,2.778,0,0,0-.126.787,2.81,2.81,0,0,0,2.806,2.806,2.778,2.778,0,0,0,.787-.126,12.088,12.088,0,0,1-.787,14.434v-1.9a3.76,3.76,0,0,0-2.714-3.6l-3.835-1.094v-1.19a4.659,4.659,0,0,0,1.871-3.718V10.29a4.677,4.677,0,0,0-9.355,0v1.871a4.656,4.656,0,0,0,1.871,3.718v1.19l-3.835,1.094a3.758,3.758,0,0,0-2.714,3.6v1.873a12.066,12.066,0,0,1-2.325-4.387,2.794,2.794,0,0,0-.339-5,12.2,12.2,0,0,1,3.832-7.3,2.8,2.8,0,0,0,4.445-2.268,2.812,2.812,0,0,0-.033-.325A12.014,12.014,0,0,1,35.674,5.762ZM29,14.968a2.81,2.81,0,0,1-2.806-2.806V10.29a2.806,2.806,0,0,1,5.613,0v1.871A2.81,2.81,0,0,1,29,14.968Zm0,1.871a4.682,4.682,0,0,0,.935-.095v.643L29,18.322l-.935-.935v-.643A4.682,4.682,0,0,0,29,16.839Zm-2.143,1.986L29,20.968l2.143-2.143,3.983,1.138a1.879,1.879,0,0,1,1.358,1.8V25.47a12.068,12.068,0,0,1-14.968-.011v-3.7a1.879,1.879,0,0,1,1.357-1.8ZM7.484,29.935a.935.935,0,1,1-.935.935A.937.937,0,0,1,7.484,29.935Zm.236-1.848L4.385,15.415a2.83,2.83,0,0,0,.7-.694l8.028,2.294a2.78,2.78,0,0,0,.632,1.6l-5.7,9.508a3.117,3.117,0,0,0-.323-.033ZM10.29,5.613c.038,0,.073-.009.111-.011l3.657,9.14a2.858,2.858,0,0,0-.434.473L5.6,12.92a2.784,2.784,0,0,0-.478-1.411L9.5,5.485a2.738,2.738,0,0,0,.792.128Zm2.458-1.482L19.7,5.2c.012.066.033.128.051.193a14.071,14.071,0,0,0-4.42,7.492L12.136,4.9a2.79,2.79,0,0,0,.613-.773ZM15.9,15.9a.935.935,0,1,1-.935.935A.937.937,0,0,1,15.9,15.9ZM22.452,3.742a.935.935,0,1,1-.935.935A.937.937,0,0,1,22.452,3.742ZM10.29,1.871a.935.935,0,1,1-.935.935A.937.937,0,0,1,10.29,1.871ZM1.871,13.1a.935.935,0,1,1,.935.935A.937.937,0,0,1,1.871,13.1ZM6.548,51.663V47.956a1.879,1.879,0,0,1,1.357-1.8l3.984-1.138,2.143,2.143,2.143-2.143,3.983,1.138a1.879,1.879,0,0,1,1.358,1.8v3.716a12.106,12.106,0,0,1-14.968-.009Zm7.484-10.5a2.81,2.81,0,0,1-2.806-2.806V36.484a2.806,2.806,0,0,1,5.613,0v1.871A2.81,2.81,0,0,1,14.032,41.161Zm0,1.871a4.682,4.682,0,0,0,.935-.095v.643l-.935.935L13.1,43.58v-.643A4.682,4.682,0,0,0,14.032,43.032Zm9.355,6.816V47.955a3.76,3.76,0,0,0-2.714-3.6l-3.835-1.094v-1.19a4.659,4.659,0,0,0,1.871-3.718V36.484a4.677,4.677,0,0,0-9.355,0v1.871a4.656,4.656,0,0,0,1.871,3.718v1.19L7.391,44.357a3.758,3.758,0,0,0-2.714,3.6v1.9A12.1,12.1,0,0,1,5.846,33.14a2.8,2.8,0,0,0,4.444-2.269,2.7,2.7,0,0,0-.032-.319,12.032,12.032,0,0,1,3.774-.617A12.175,12.175,0,0,1,26.194,42.1a11.933,11.933,0,0,1-.173,1.889A2.795,2.795,0,0,0,24.2,48.751a12.177,12.177,0,0,1-.818,1.1Zm2.806-4.01a.935.935,0,1,1-.935.935A.937.937,0,0,1,26.194,45.839ZM29,56.129a.935.935,0,1,1,.935-.935A.937.937,0,0,1,29,56.129ZM43.968,41.161a2.81,2.81,0,0,1-2.806-2.806V36.484a2.806,2.806,0,0,1,5.613,0v1.871A2.81,2.81,0,0,1,43.968,41.161Zm0,1.871a4.682,4.682,0,0,0,.935-.095v.643l-.935.935-.935-.935v-.643A4.682,4.682,0,0,0,43.968,43.032Zm-2.143,1.986,2.143,2.143,2.143-2.143,3.983,1.138a1.879,1.879,0,0,1,1.358,1.8v3.689a12.055,12.055,0,0,1-4.969,2.325,2.788,2.788,0,0,0-5.029,0,12.055,12.055,0,0,1-4.969-2.325V47.956a1.879,1.879,0,0,1,1.357-1.8Zm2.143,11.111a.935.935,0,1,1,.935-.935A.937.937,0,0,1,43.968,56.129Zm9.355-6.313V47.955a3.76,3.76,0,0,0-2.714-3.6l-3.835-1.094v-1.19a4.659,4.659,0,0,0,1.871-3.718V36.484a4.677,4.677,0,1,0-9.355,0v1.871a4.656,4.656,0,0,0,1.871,3.718v1.19l-3.835,1.094a3.758,3.758,0,0,0-2.714,3.6v1.861A12.129,12.129,0,0,1,49.626,31.351a2.76,2.76,0,0,0,2.761,3.262,2.768,2.768,0,0,0,.983-.187,12.032,12.032,0,0,1-.047,15.391Zm0-18.01a.935.935,0,1,1-.935-.935A.937.937,0,0,1,53.323,31.806Zm-2.979-2.194A14.011,14.011,0,0,0,37.022,54.258H31.634a2.8,2.8,0,0,0-2.582-1.865l-1.14-3.417a2.781,2.781,0,0,0-.085-4.474,13.983,13.983,0,0,0-17.954-15.8l5.47-9.117c.044.01.092.006.136.014a14.023,14.023,0,0,0,27.552-3.7,13.866,13.866,0,0,0-2.1-7.348L52.4,13.013c0,.028-.008.055-.008.084a2.759,2.759,0,0,0,.154.878l-4.259,3.312a2.781,2.781,0,0,0-1.509-.448,2.806,2.806,0,0,0,0,5.613c.087,0,.169-.018.253-.025Zm-3.57-9.032a.935.935,0,1,1,.935-.935A.937.937,0,0,1,46.774,20.581Zm0,0"/>
      </g>
    </g>
  </g>
</svg>
