<svg xmlns="http://www.w3.org/2000/svg" xmlns:xlink="http://www.w3.org/1999/xlink" width="108" height="108" viewBox="0 0 108 108">
  <defs>
    <filter id="Ellipse_12740" x="0" y="0" width="108" height="108" filterUnits="userSpaceOnUse">
      <feOffset dy="3" input="SourceAlpha"/>
      <feGaussianBlur stdDeviation="3" result="blur"/>
      <feFlood flood-opacity="0.161"/>
      <feComposite operator="in" in2="blur"/>
      <feComposite in="SourceGraphic"/>
    </filter>
    <clipPath id="clip-path">
      <rect id="Rectangle_411018" data-name="Rectangle 411018" width="58" height="68" transform="translate(-6848 -10740)" fill="#fff" stroke="#707070" stroke-width="1" opacity="0"/>
    </clipPath>
  </defs>
  <g id="Group_1203870" data-name="Group 1203870" transform="translate(6873.153 10761.937)">
    <g id="Group_1203657" data-name="Group 1203657" transform="translate(-6864.153 -10755.937)">
      <g transform="matrix(1, 0, 0, 1, -9, -6)" filter="url(#Ellipse_12740)">
        <g id="Ellipse_12740-2" data-name="Ellipse 12740" transform="translate(9 6)" fill="#5bd4dd" stroke="#3f939a" stroke-width="1">
          <circle cx="45" cy="45" r="45" stroke="none"/>
          <circle cx="45" cy="45" r="44.5" fill="none"/>
        </g>
      </g>
    </g>
    <g id="Mask_Group_1099439" data-name="Mask Group 1099439" clip-path="url(#clip-path)">
      <g id="crecimiento-economico_2_" data-name="crecimiento-economico (2)" transform="translate(-6848.818 -10735.818)">
        <g id="Group_1204932" data-name="Group 1204932">
          <path id="Path_1245038" data-name="Path 1245038" d="M39.31,11.06H34.136a1.132,1.132,0,0,0-1.13,1.13V52.526a1.135,1.135,0,0,0,1.13,1.134H39.31a1.135,1.135,0,0,0,1.13-1.134V12.191a1.132,1.132,0,0,0-1.13-1.13Z" fill="#6cf5c2" fill-rule="evenodd"/>
          <path id="Path_1245039" data-name="Path 1245039" d="M39.31,11.06H37.046a1.132,1.132,0,0,1,1.13,1.13V52.526a1.135,1.135,0,0,1-1.13,1.134H39.31a1.135,1.135,0,0,0,1.13-1.134V12.191a1.132,1.132,0,0,0-1.13-1.13Z" fill="#00e499" fill-rule="evenodd"/>
          <path id="Path_1245040" data-name="Path 1245040" d="M25.5,18.718H20.327a1.132,1.132,0,0,0-1.13,1.13V52.526a1.135,1.135,0,0,0,1.13,1.134H25.5a1.135,1.135,0,0,0,1.13-1.134V19.849a1.132,1.132,0,0,0-1.13-1.13Z" fill="#ffe177" fill-rule="evenodd"/>
          <path id="Path_1245041" data-name="Path 1245041" d="M25.5,18.718H23.237a1.135,1.135,0,0,1,1.134,1.13V52.526a1.137,1.137,0,0,1-1.134,1.134H25.5a1.135,1.135,0,0,0,1.13-1.134V19.849a1.132,1.132,0,0,0-1.13-1.13Z" fill="#ffd064" fill-rule="evenodd"/>
          <path id="Path_1245042" data-name="Path 1245042" d="M47.945,3.949H53.12a1.132,1.132,0,0,1,1.13,1.13V52.526a1.135,1.135,0,0,1-1.13,1.134H47.945a1.137,1.137,0,0,1-1.134-1.134V5.079a1.135,1.135,0,0,1,1.134-1.13Z" fill="#8ac9fe" fill-rule="evenodd"/>
          <path id="Path_1245043" data-name="Path 1245043" d="M50.856,3.949H53.12a1.132,1.132,0,0,1,1.13,1.13V52.526a1.135,1.135,0,0,1-1.13,1.134H50.856a1.135,1.135,0,0,0,1.13-1.134V5.079a1.132,1.132,0,0,0-1.13-1.13Z" fill="#60b7ff" fill-rule="evenodd"/>
          <path id="Path_1245044" data-name="Path 1245044" d="M6.521,26.079h5.171a1.135,1.135,0,0,1,1.134,1.13V52.526a1.137,1.137,0,0,1-1.134,1.134H6.521a1.137,1.137,0,0,1-1.134-1.134V27.209a1.135,1.135,0,0,1,1.134-1.13Z" fill="#fe646f" fill-rule="evenodd"/>
          <path id="Path_1245045" data-name="Path 1245045" d="M9.428,26.079h2.264a1.135,1.135,0,0,1,1.134,1.13V52.526a1.137,1.137,0,0,1-1.134,1.134H9.428a1.137,1.137,0,0,0,1.134-1.134V27.209a1.135,1.135,0,0,0-1.134-1.13Z" fill="#fd4755" fill-rule="evenodd"/>
          <path id="Path_1245046" data-name="Path 1245046" d="M46.813,26.085A33.547,33.547,0,0,1,34.579,37.547c-7.876,4.4-16.491,5.406-23.452,3.4a32.242,32.242,0,0,0,16.448-4.385,44.51,44.51,0,0,0,14.419-13.71l-2.7-1.813a.329.329,0,0,1-.146-.328.323.323,0,0,1,.232-.275l9.3-3.01a.326.326,0,0,1,.292.04.331.331,0,0,1,.152.252l.825,9.805a.336.336,0,0,1-.169.322.332.332,0,0,1-.361-.01Z" fill="#ffe177" fill-rule="evenodd"/>
          <path id="Path_1245047" data-name="Path 1245047" d="M46.813,26.085A33.547,33.547,0,0,1,34.579,37.547c-7.876,4.4-16.491,5.406-23.452,3.4.08,0,.159,0,.239,0h.116c6.54,1.256,15.122-.457,21.317-3.915A32.285,32.285,0,0,0,45.279,25.2Zm.58-8.244.769,9.152,1.256.842a.332.332,0,0,0,.361.01.336.336,0,0,0,.169-.322l-.825-9.805a.331.331,0,0,0-.152-.252.326.326,0,0,0-.292-.04Z" fill="#ffd064" fill-rule="evenodd"/>
          <path id="Path_1245048" data-name="Path 1245048" d="M2.884,52.881H56.753a1.132,1.132,0,0,1,1.13,1.13v.547a1.132,1.132,0,0,1-1.13,1.13H2.884a1.132,1.132,0,0,1-1.13-1.13v-.547a1.132,1.132,0,0,1,1.13-1.13Z" fill="#a79ba7" fill-rule="evenodd"/>
          <path id="Path_1245049" data-name="Path 1245049" d="M57.883,54.283v.275a1.132,1.132,0,0,1-1.13,1.13H2.884a1.132,1.132,0,0,1-1.13-1.13v-.275Z" fill="#837683" fill-rule="evenodd"/>
        </g>
        <path id="Path_1245050" data-name="Path 1245050" d="M55.184,52.084h2.7a.935.935,0,0,1,.935.935v2.81a.936.936,0,0,1-.935.935H1.754a.936.936,0,0,1-.935-.935V53.02a.935.935,0,0,1,.935-.935h2.7V26.111a.936.936,0,0,1,.935-.935h7.436a.936.936,0,0,1,.935.935V39.295a.935.935,0,1,1-1.871,0V27.046H6.324V52.084h5.565V45.005a.935.935,0,1,1,1.871,0v7.079h4.5V45.346a.935.935,0,0,1,1.871,0v6.738H25.7V44.292a.935.935,0,1,1,1.871,0v7.793h4.5V41.812a.935.935,0,0,1,1.871,0V52.084h5.568v-14.9a.935.935,0,1,1,1.871,0v14.9h4.5V30.372a.935.935,0,0,1,1.871,0V52.084h5.565V4.743H47.749v9.882a.935.935,0,0,1-1.871,0V3.808a.936.936,0,0,1,.935-.935h7.436a.936.936,0,0,1,.935.935ZM2.69,54.894H56.948v-.939H2.69ZM41.378,17.107a.935.935,0,1,1-1.871,0V11.765H33.939v17.8a.935.935,0,0,1-1.871,0V10.829A.935.935,0,0,1,33,9.894h7.439a.936.936,0,0,1,.935.935ZM27.569,34.468a.935.935,0,0,1-1.871,0v-14.9H20.133V37.721a.935.935,0,0,1-1.871,0V18.634A.935.935,0,0,1,19.2,17.7h7.435a.935.935,0,0,1,.935.935Zm19.7-7.071A36.759,36.759,0,0,1,34.493,39.048h0c-8.583,4.786-17.976,5.869-25.562,3.685A.936.936,0,0,1,9.2,40.9a33.284,33.284,0,0,0,16.961-4.528A46.637,46.637,0,0,0,40.611,22.93l-2.72-1.822a.935.935,0,0,1,.2-1.657l10.7-3.875a.936.936,0,0,1,1.249.781l1.268,11.9a.935.935,0,0,1-1.451.876Zm.249-2.086,1.722,1.155-.929-8.724-7.843,2.839,1.946,1.3a.935.935,0,0,1,.276,1.267A48.206,48.206,0,0,1,27.07,38,37.556,37.556,0,0,1,17,41.944a34.638,34.638,0,0,0,16.577-4.53A34.638,34.638,0,0,0,46.2,25.6a.935.935,0,0,1,1.316-.284Z" fill-rule="evenodd"/>
      </g>
    </g>
  </g>
</svg>
