<svg xmlns="http://www.w3.org/2000/svg" xmlns:xlink="http://www.w3.org/1999/xlink" width="108" height="108" viewBox="0 0 108 108">
  <defs>
    <filter id="Ellipse_12740" x="0" y="0" width="108" height="108" filterUnits="userSpaceOnUse">
      <feOffset dy="3" input="SourceAlpha"/>
      <feGaussianBlur stdDeviation="3" result="blur"/>
      <feFlood flood-opacity="0.161"/>
      <feComposite operator="in" in2="blur"/>
      <feComposite in="SourceGraphic"/>
    </filter>
    <clipPath id="clip-path">
      <rect id="Rectangle_411018" data-name="Rectangle 411018" width="58" height="68" transform="translate(-6848 -10740)" fill="#fff" stroke="#707070" stroke-width="1" opacity="0"/>
    </clipPath>
  </defs>
  <g id="Group_1203658" data-name="Group 1203658" transform="translate(6873.153 10761.937)">
    <g id="Group_1203657" data-name="Group 1203657" transform="translate(-6864.153 -10755.937)">
      <g transform="matrix(1, 0, 0, 1, -9, -6)" filter="url(#Ellipse_12740)">
        <g id="Ellipse_12740-2" data-name="Ellipse 12740" transform="translate(9 6)" fill="#5bd4dd" stroke="#3f939a" stroke-width="1">
          <circle cx="45" cy="45" r="45" stroke="none"/>
          <circle cx="45" cy="45" r="44.5" fill="none"/>
        </g>
      </g>
    </g>
    <g id="Mask_Group_1099432" data-name="Mask Group 1099432" clip-path="url(#clip-path)">
      <g id="regla" transform="translate(-6849.241 -10736.241)">
        <g id="Group_1204925" data-name="Group 1204925">
          <path id="Path_1244941" data-name="Path 1244941" d="M12.254,3.185H52.7l.141,11.531-4.856-.058v37.98a4.673,4.673,0,0,1-4.66,4.66H7.594V7.844a4.673,4.673,0,0,1,4.66-4.66Z" fill="#e6e6e6" fill-rule="evenodd"/>
          <path id="Path_1244942" data-name="Path 1244942" d="M52.008,3.185h2.559c2.214,0,4.025,2.594,4.025,5.765v6.994H47.983V8.95c0-3.171,1.811-5.765,4.025-5.765Z" fill="gray" fill-rule="evenodd"/>
          <path id="Path_1244943" data-name="Path 1244943" d="M7.594,57.3H43.324a5.787,5.787,0,0,1-5.7-4.929H1.89A5.786,5.786,0,0,0,7.594,57.3Z" fill="gray" fill-rule="evenodd"/>
          <path id="Path_1244944" data-name="Path 1244944" d="M23.481,46.606H35.325v2.881H23.481Z" fill="#c49a6c" fill-rule="evenodd"/>
          <path id="Path_1244945" data-name="Path 1244945" d="M21.187,49.488H37.62v2.881H21.187Z" fill="#967654" fill-rule="evenodd"/>
          <path id="Path_1244946" data-name="Path 1244946" d="M48.324,33.952h5.225v16.4H48.324Z" transform="translate(-14.891 48.371) rotate(-45)" fill="#967654" fill-rule="evenodd"/>
          <path id="Path_1244947" data-name="Path 1244947" d="M51.008,40.433h5.225v8.812H51.008Z" transform="translate(-16.003 51.056) rotate(-45)" fill="#c49a6c" fill-rule="evenodd"/>
          <path id="Path_1244948" data-name="Path 1244948" d="M33.5,27.4H50.423V38.959H33.5Z" transform="translate(-11.172 39.393) rotate(-45)" fill="#c49a6c" fill-rule="evenodd"/>
          <g id="Group_1204924" data-name="Group 1204924">
            <path id="Path_1244949" data-name="Path 1244949" d="M34.094,32.091h3.762V46.232H34.094Z" transform="translate(-17.157 36.914) rotate(-45)" fill="#967654" fill-rule="evenodd"/>
            <path id="Path_1244950" data-name="Path 1244950" d="M46.063,20.122h3.762V34.263H46.063Z" transform="translate(-5.186 41.872) rotate(-45)" fill="#967654" fill-rule="evenodd"/>
            <path id="Path_1244951" data-name="Path 1244951" d="M36.4,30.572,40.29,26.68A2.752,2.752,0,0,1,36.4,30.572Z" fill="#967654" fill-rule="evenodd"/>
          </g>
          <path id="Path_1244952" data-name="Path 1244952" d="M14.676,8.855h7.147V16H14.676Z" fill="#a8e73d" fill-rule="evenodd"/>
          <path id="Path_1244953" data-name="Path 1244953" d="M14.676,19.811h7.147v7.147H14.676Z" fill="#a8e73d" fill-rule="evenodd"/>
        </g>
        <path id="Path_1244954" data-name="Path 1244954" d="M48.632,14.658v.637h9.31V8.95a6.525,6.525,0,0,0-1.063-3.7,2.917,2.917,0,0,0-2.312-1.414H52.007a2.917,2.917,0,0,0-2.312,1.414,6.526,6.526,0,0,0-1.063,3.7v5.708Zm-33.957,22.7a.65.65,0,1,1,0-1.3h.249a.65.65,0,1,1,0,1.3Zm3.263,0a.65.65,0,1,1,0-1.3h9.17a.65.65,0,1,1,0,1.3Zm-3.263-4.208a.65.65,0,1,1,0-1.3h.249a.65.65,0,1,1,0,1.3Zm3.263,0a.65.65,0,1,1,0-1.3H29.324a.65.65,0,1,1,0,1.3Zm7.487-7.014a.65.65,0,0,1,0-1.3h.249a.65.65,0,0,1,0,1.3Zm3.263,0a.65.65,0,1,1,0-1.3h9.17a.65.65,0,0,1,0,1.3ZM25.425,21.93a.65.65,0,0,1,0-1.3h.249a.65.65,0,0,1,0,1.3Zm3.263,0a.65.65,0,1,1,0-1.3H40.073a.65.65,0,1,1,0,1.3Zm-3.263-6.748a.65.65,0,0,1,0-1.3h.249a.65.65,0,0,1,0,1.3Zm3.263,0a.65.65,0,1,1,0-1.3H40.073a.65.65,0,1,1,0,1.3Zm-3.263-4.208a.65.65,0,0,1,0-1.3h.249a.65.65,0,0,1,0,1.3Zm3.263,0a.65.65,0,1,1,0-1.3H40.073a.65.65,0,1,1,0,1.3ZM19.266,21.941a.65.65,0,1,1,.919.919l-1.969,1.969a.65.65,0,0,1-.919,0l-.984-.984a.65.65,0,0,1,.919-.919l.525.525Zm0-10.957a.65.65,0,0,1,.919.919l-1.969,1.969a.65.65,0,0,1-.919,0l-.984-.984a.65.65,0,1,1,.919-.919l.525.525Zm-4.591,8.177a.65.65,0,0,0-.65.65v7.147a.65.65,0,0,0,.65.65h7.147a.65.65,0,0,0,.65-.65V19.811a.65.65,0,0,0-.65-.65Zm6.5,1.3H15.325v5.847h5.847Zm-6.5-12.256a.65.65,0,0,0-.65.65V16a.65.65,0,0,0,.65.65h7.147a.65.65,0,0,0,.65-.65V8.855a.65.65,0,0,0-.65-.65Zm6.5,1.3H15.325v5.847h5.847Zm19.991,17.22a3.4,3.4,0,0,1-4.721,4.721l-2.3,2.3L41.4,41.008l8.392-8.392-7.259-7.259ZM37.387,30.5l2.831-2.831a2.081,2.081,0,0,1,.227.956A2.108,2.108,0,0,1,37.387,30.5ZM44.74,20.407a.65.65,0,0,0-.919,0l-2.66,2.66a.65.65,0,0,0,0,.919l.452.452L33.22,32.83l-.452-.452a.65.65,0,0,0-.919,0l-2.66,2.66a.65.65,0,0,0,0,.919l10,10a.65.65,0,0,0,.919,0l2.66-2.66a.65.65,0,0,0,0-.919l-.452-.452,1.889-1.889,3.127,3.127v9.474a4,4,0,0,1-1.178,2.831,4.541,4.541,0,0,1-6.168-.066,5.127,5.127,0,0,1-1.718-3.079V49.487a.65.65,0,0,0-.65-.65H35.974V46.606a.65.65,0,0,0-.65-.65H23.48a.65.65,0,0,0-.65.65v2.231H21.186a.65.65,0,0,0-.65.65v2.231H8.243V7.844a4.023,4.023,0,0,1,4.01-4.01H49.184A7.469,7.469,0,0,0,47.333,8.95V23ZM48.632,24.3l6.108,6.108a.65.65,0,0,1,0,.919l-2.66,2.66a.65.65,0,0,1-.919,0l-.452-.452L48.82,35.424,59.051,45.654a.65.65,0,0,1,0,.919l-3.7,3.7a.65.65,0,0,1-.919,0l-5.8-5.8v8.175a5.323,5.323,0,0,1-5.309,5.309H7.593A6.441,6.441,0,0,1,1.253,52.5a.649.649,0,0,1,.636-.782H6.944V7.844a5.323,5.323,0,0,1,5.309-5.309H51.138a.649.649,0,0,1,.259.054,3.488,3.488,0,0,1,.61-.054h2.559a4.172,4.172,0,0,1,3.373,1.973,7.831,7.831,0,0,1,1.3,4.442v6.994a.65.65,0,0,1-.65.65H48.632V24.3Zm4.73,6.567L51.62,32.608l-9.082-9.082,1.741-1.742ZM41.391,42.838l-1.741,1.741L30.568,35.5l1.741-1.741Zm6.51-6.5,3.54,3.54-2.776,2.776-3.54-3.54ZM52.36,40.8l5.313,5.313L54.9,48.89l-5.313-5.313ZM24.13,48.838H34.675V47.256H24.13Zm12.839,2.881V50.137H21.836v1.582ZM7.593,56.648H39.466a6.446,6.446,0,0,1-2.382-3.63H2.7a5.133,5.133,0,0,0,4.895,3.63Z" fill-rule="evenodd"/>
      </g>
    </g>
  </g>
</svg>
