<svg xmlns="http://www.w3.org/2000/svg" xmlns:xlink="http://www.w3.org/1999/xlink" width="108" height="108" viewBox="0 0 108 108">
  <defs>
    <filter id="Ellipse_12740" x="0" y="0" width="108" height="108" filterUnits="userSpaceOnUse">
      <feOffset dy="3" input="SourceAlpha"/>
      <feGaussianBlur stdDeviation="3" result="blur"/>
      <feFlood flood-opacity="0.161"/>
      <feComposite operator="in" in2="blur"/>
      <feComposite in="SourceGraphic"/>
    </filter>
    <clipPath id="clip-path">
      <rect id="Rectangle_411018" data-name="Rectangle 411018" width="58" height="68" transform="translate(-6848 -10740)" fill="#fff" stroke="#707070" stroke-width="1" opacity="0"/>
    </clipPath>
  </defs>
  <g id="Group_1203869" data-name="Group 1203869" transform="translate(6873.153 10761.937)">
    <g id="Group_1203657" data-name="Group 1203657" transform="translate(-6864.153 -10755.937)">
      <g transform="matrix(1, 0, 0, 1, -9, -6)" filter="url(#Ellipse_12740)">
        <g id="Ellipse_12740-2" data-name="Ellipse 12740" transform="translate(9 6)" fill="#5bd4dd" stroke="#3f939a" stroke-width="1">
          <circle cx="45" cy="45" r="45" stroke="none"/>
          <circle cx="45" cy="45" r="44.5" fill="none"/>
        </g>
      </g>
    </g>
    <g id="Mask_Group_1099438" data-name="Mask Group 1099438" clip-path="url(#clip-path)">
      <g id="base-de-datos_1_" data-name="base-de-datos (1)" transform="translate(-6848 -10735)">
        <rect id="Rectangle_411915" data-name="Rectangle 411915" width="27.187" height="5.437" rx="0.906" transform="translate(14.953 43.5)" fill="#ffdb80"/>
        <rect id="Rectangle_411916" data-name="Rectangle 411916" width="27.187" height="5.437" rx="0.906" transform="translate(14.953 50.75)" fill="#81d9e3"/>
        <path id="Path_1245010" data-name="Path 1245010" d="M41.687,1.812h14.5v14.5h-14.5Z" fill="#e1ebf4"/>
        <path id="Path_1245011" data-name="Path 1245011" d="M21.75,1.812h14.5v14.5H21.75Z" fill="#e1ebf4"/>
        <path id="Path_1245012" data-name="Path 1245012" d="M1.812,1.812h14.5v14.5H1.812Z" fill="#e1ebf4"/>
        <path id="Path_1245013" data-name="Path 1245013" d="M24.469,6.344h9.062a.906.906,0,1,0,0-1.812H24.469a.906.906,0,1,0,0,1.812Z" fill="#2d4356"/>
        <path id="Path_1245014" data-name="Path 1245014" d="M24.469,9.969h9.062a.906.906,0,0,0,0-1.812H24.469a.906.906,0,0,0,0,1.813Z" fill="#2d4356"/>
        <path id="Path_1245015" data-name="Path 1245015" d="M34.437,12.687a.906.906,0,0,0-.906-.906H24.469a.906.906,0,0,0,0,1.813h9.062a.906.906,0,0,0,.906-.906Z" fill="#2d4356"/>
        <path id="Path_1245016" data-name="Path 1245016" d="M42.141,37.156v3.625a.909.909,0,0,1-.906.906H15.859a.909.909,0,0,1-.906-.906V37.156a.909.909,0,0,1,.906-.906H26.413l.154.308a2.6,2.6,0,0,0,.412.6,2.706,2.706,0,0,0,4.042,0,2.6,2.6,0,0,0,.412-.6l.154-.308h9.647a.909.909,0,0,1,.906.906Z" fill="#fc785e"/>
        <g id="Group_1204931" data-name="Group 1204931">
          <path id="Path_1245017" data-name="Path 1245017" d="M56.187,0h-14.5a1.812,1.812,0,0,0-1.812,1.813v14.5a1.812,1.812,0,0,0,1.813,1.813h6.344v5.891H29.906V18.125H36.25a1.812,1.812,0,0,0,1.813-1.812V1.812A1.812,1.812,0,0,0,36.25,0H21.75a1.812,1.812,0,0,0-1.812,1.813v14.5a1.812,1.812,0,0,0,1.812,1.813h6.344v5.891H9.969V18.125h6.344a1.812,1.812,0,0,0,1.813-1.812V1.812A1.812,1.812,0,0,0,16.312,0H1.812A1.812,1.812,0,0,0,0,1.813v14.5a1.812,1.812,0,0,0,1.813,1.813H8.156v6.8a.909.909,0,0,0,.906.906H28.094v5.678l-.1-.19a.906.906,0,1,0-1.622.807l1.813,3.625a.905.905,0,0,0,1.622,0l1.813-3.625A.906.906,0,1,0,30,31.315l-.1.19V25.828H48.937a.909.909,0,0,0,.906-.906v-6.8h6.344A1.812,1.812,0,0,0,58,16.312V1.812A1.812,1.812,0,0,0,56.187,0ZM1.812,16.312V1.812h14.5v14.5Zm19.937,0V1.812h14.5v14.5Zm34.437,0h-14.5V1.812h14.5Z" fill="#2d4356"/>
          <path id="Path_1245018" data-name="Path 1245018" d="M53.469,4.531H44.406a.906.906,0,1,0,0,1.812h9.063a.906.906,0,1,0,0-1.812Z" fill="#2d4356"/>
          <path id="Path_1245019" data-name="Path 1245019" d="M53.469,8.156H44.406a.906.906,0,0,0,0,1.813h9.063a.906.906,0,0,0,0-1.812Z" fill="#2d4356"/>
          <path id="Path_1245020" data-name="Path 1245020" d="M53.469,11.781H44.406a.906.906,0,0,0,0,1.813h9.063a.906.906,0,0,0,0-1.812Z" fill="#2d4356"/>
          <path id="Path_1245021" data-name="Path 1245021" d="M13.594,4.531H4.531a.906.906,0,1,0,0,1.812h9.062a.906.906,0,1,0,0-1.812Z" fill="#2d4356"/>
          <path id="Path_1245022" data-name="Path 1245022" d="M13.594,8.156H4.531a.906.906,0,0,0,0,1.813h9.062a.906.906,0,0,0,0-1.812Z" fill="#2d4356"/>
          <path id="Path_1245023" data-name="Path 1245023" d="M13.594,11.781H4.531a.906.906,0,0,0,0,1.813h9.062a.906.906,0,0,0,0-1.812Z" fill="#2d4356"/>
          <circle id="Ellipse_13454" data-name="Ellipse 13454" cx="0.906" cy="0.906" r="0.906" transform="translate(38.516 38.062)" fill="#2d4356"/>
          <circle id="Ellipse_13455" data-name="Ellipse 13455" cx="0.906" cy="0.906" r="0.906" transform="translate(34.891 38.062)" fill="#2d4356"/>
          <circle id="Ellipse_13456" data-name="Ellipse 13456" cx="0.906" cy="0.906" r="0.906" transform="translate(31.266 38.062)" fill="#2d4356"/>
          <circle id="Ellipse_13457" data-name="Ellipse 13457" cx="0.906" cy="0.906" r="0.906" transform="translate(38.516 45.312)" fill="#2d4356"/>
          <circle id="Ellipse_13458" data-name="Ellipse 13458" cx="0.906" cy="0.906" r="0.906" transform="translate(34.891 45.312)" fill="#2d4356"/>
          <circle id="Ellipse_13459" data-name="Ellipse 13459" cx="0.906" cy="0.906" r="0.906" transform="translate(31.266 45.312)" fill="#2d4356"/>
          <circle id="Ellipse_13460" data-name="Ellipse 13460" cx="0.906" cy="0.906" r="0.906" transform="translate(38.516 52.562)" fill="#2d4356"/>
          <circle id="Ellipse_13461" data-name="Ellipse 13461" cx="0.906" cy="0.906" r="0.906" transform="translate(34.891 52.562)" fill="#2d4356"/>
          <circle id="Ellipse_13462" data-name="Ellipse 13462" cx="0.906" cy="0.906" r="0.906" transform="translate(31.266 52.562)" fill="#2d4356"/>
          <path id="Path_1245024" data-name="Path 1245024" d="M43.953,37.156a2.721,2.721,0,0,0-2.719-2.719H32.494l-.906,1.813h9.647a.909.909,0,0,1,.906.906v3.625a.909.909,0,0,1-.906.906H15.859a.909.909,0,0,1-.906-.906V37.156a.909.909,0,0,1,.906-.906H26.413l-.906-1.812H15.859a2.721,2.721,0,0,0-2.719,2.719v3.625a2.709,2.709,0,0,0,.7,1.813,2.709,2.709,0,0,0-.7,1.812v3.625a2.709,2.709,0,0,0,.7,1.813,2.709,2.709,0,0,0-.7,1.813v3.625A2.721,2.721,0,0,0,15.859,58H41.234a2.721,2.721,0,0,0,2.719-2.719V51.656a2.709,2.709,0,0,0-.7-1.812,2.709,2.709,0,0,0,.7-1.813V44.406a2.709,2.709,0,0,0-.7-1.812,2.709,2.709,0,0,0,.7-1.812ZM42.141,55.281a.909.909,0,0,1-.906.906H15.859a.909.909,0,0,1-.906-.906V51.656a.909.909,0,0,1,.906-.906H41.234a.909.909,0,0,1,.906.906Zm0-7.25a.909.909,0,0,1-.906.906H15.859a.909.909,0,0,1-.906-.906V44.406a.909.909,0,0,1,.906-.906H41.234a.909.909,0,0,1,.906.906Z" fill="#2d4356"/>
        </g>
        <path id="Path_1245025" data-name="Path 1245025" d="M41.687,1.812h14.5v.906h-14.5Z" fill="#fff" opacity="0.5"/>
        <path id="Path_1245026" data-name="Path 1245026" d="M41.687,15.406h14.5v.906h-14.5Z" fill="#9fa5aa" opacity="0.5"/>
        <path id="Path_1245027" data-name="Path 1245027" d="M21.75,1.812h14.5v.906H21.75Z" fill="#fff" opacity="0.5"/>
        <path id="Path_1245028" data-name="Path 1245028" d="M21.75,15.406h14.5v.906H21.75Z" fill="#9fa5aa" opacity="0.5"/>
        <path id="Path_1245029" data-name="Path 1245029" d="M1.812,15.406h14.5v.906H1.812Z" fill="#9fa5aa" opacity="0.5"/>
        <path id="Path_1245030" data-name="Path 1245030" d="M1.812,1.812h14.5v.906H1.812Z" fill="#fff" opacity="0.5"/>
        <path id="Path_1245031" data-name="Path 1245031" d="M42.141,39.875v.906a.909.909,0,0,1-.906.906H15.859a.909.909,0,0,1-.906-.906v-.906a.909.909,0,0,0,.906.906H41.234a.909.909,0,0,0,.906-.906Z" fill="#a54b3f" opacity="0.5"/>
        <path id="Path_1245032" data-name="Path 1245032" d="M26.567,36.558a2.6,2.6,0,0,0,.412.6H15.859a.909.909,0,0,0-.906.906v-.906a.909.909,0,0,1,.906-.906H26.413Z" fill="#f9dbd7" opacity="0.3"/>
        <path id="Path_1245033" data-name="Path 1245033" d="M42.141,37.156v.906a.909.909,0,0,0-.906-.906H31.021a2.6,2.6,0,0,0,.412-.6l.154-.308h9.647a.909.909,0,0,1,.906.906Z" fill="#f9dbd7" opacity="0.3"/>
        <path id="Path_1245034" data-name="Path 1245034" d="M42.141,44.406v.906a.909.909,0,0,0-.906-.906H15.859a.909.909,0,0,0-.906.906v-.906a.909.909,0,0,1,.906-.906H41.234a.909.909,0,0,1,.906.906Z" fill="#f9edd2" opacity="0.5"/>
        <path id="Path_1245035" data-name="Path 1245035" d="M42.141,47.125v.906a.909.909,0,0,1-.906.906H15.859a.909.909,0,0,1-.906-.906v-.906a.909.909,0,0,0,.906.906H41.234a.909.909,0,0,0,.906-.906Z" fill="#ad9359" opacity="0.45"/>
        <path id="Path_1245036" data-name="Path 1245036" d="M42.141,51.656v.906a.909.909,0,0,0-.906-.906H15.859a.909.909,0,0,0-.906.906v-.906a.909.909,0,0,1,.906-.906H41.234a.909.909,0,0,1,.906.906Z" fill="#e8fbfc" opacity="0.3"/>
        <path id="Path_1245037" data-name="Path 1245037" d="M42.141,54.375v.906a.909.909,0,0,1-.906.906H15.859a.909.909,0,0,1-.906-.906v-.906a.909.909,0,0,0,.906.906H41.234a.909.909,0,0,0,.906-.906Z" fill="#0f423c" opacity="0.25"/>
      </g>
    </g>
  </g>
</svg>
