<svg xmlns="http://www.w3.org/2000/svg" xmlns:xlink="http://www.w3.org/1999/xlink" width="108" height="108" viewBox="0 0 108 108">
  <defs>
    <filter id="Ellipse_12740" x="0" y="0" width="108" height="108" filterUnits="userSpaceOnUse">
      <feOffset dy="3" input="SourceAlpha"/>
      <feGaussianBlur stdDeviation="3" result="blur"/>
      <feFlood flood-opacity="0.161"/>
      <feComposite operator="in" in2="blur"/>
      <feComposite in="SourceGraphic"/>
    </filter>
    <clipPath id="clip-path">
      <rect id="Rectangle_411018" data-name="Rectangle 411018" width="58" height="68" transform="translate(-6848 -10740)" fill="#fff" stroke="#707070" stroke-width="1" opacity="0"/>
    </clipPath>
  </defs>
  <g id="Group_1203867" data-name="Group 1203867" transform="translate(6873.153 10761.937)">
    <g id="Group_1203657" data-name="Group 1203657" transform="translate(-6864.153 -10755.937)">
      <g transform="matrix(1, 0, 0, 1, -9, -6)" filter="url(#Ellipse_12740)">
        <g id="Ellipse_12740-2" data-name="Ellipse 12740" transform="translate(9 6)" fill="#5bd4dd" stroke="#3f939a" stroke-width="1">
          <circle cx="45" cy="45" r="45" stroke="none"/>
          <circle cx="45" cy="45" r="44.5" fill="none"/>
        </g>
      </g>
    </g>
    <g id="Mask_Group_1099435" data-name="Mask Group 1099435" clip-path="url(#clip-path)">
      <g id="global_1_" data-name="global (1)" transform="translate(-6849.933 -10736.929)">
        <path id="Path_1244960" data-name="Path 1244960" d="M58.967,41.567v17.4h-17.4v-23.2h11.6v5.8Z" fill="#ffeb99"/>
        <path id="Path_1244961" data-name="Path 1244961" d="M58.967,16.433v11.6H43.5v-11.6a1.05,1.05,0,0,1,.01-.174A1.933,1.933,0,0,1,45.433,14.5h11.6A1.939,1.939,0,0,1,58.967,16.433Z" fill="#ff3051"/>
        <path id="Path_1244962" data-name="Path 1244962" d="M58.967,41.567h-5.8v-5.8Z" fill="#ff9811"/>
        <circle id="Ellipse_13452" data-name="Ellipse 13452" cx="5.8" cy="5.8" r="5.8" transform="translate(45.433 2.9)" fill="#ffc477"/>
        <path id="Path_1244963" data-name="Path 1244963" d="M50.267,30.933h-11.6a41.991,41.991,0,0,0-1.315-10.769A19.218,19.218,0,0,0,43.5,16.617V28.033h6.544a19.139,19.139,0,0,1,.222,2.9Z" fill="#2488ff"/>
        <path id="Path_1244964" data-name="Path 1244964" d="M38.667,30.933h11.6a19.478,19.478,0,0,1-.609,4.834H41.567v8.99A19.118,19.118,0,0,0,37.1,42.582a41.17,41.17,0,0,0,1.566-11.648Z" fill="#9bc9ff"/>
        <path id="Path_1244965" data-name="Path 1244965" d="M43.51,16.259a1.05,1.05,0,0,0-.01.174v.184a19.218,19.218,0,0,1-6.148,3.548C35.97,14.993,33.611,11.6,30.933,11.6A19.258,19.258,0,0,1,43.51,16.259Z" fill="#9bc9ff"/>
        <path id="Path_1244966" data-name="Path 1244966" d="M41.567,44.757v2.32a19.2,19.2,0,0,1-10.633,3.19c2.523,0,4.756-3.016,6.167-7.685a19.118,19.118,0,0,1,4.466,2.175Z" fill="#2488ff"/>
        <path id="Path_1244967" data-name="Path 1244967" d="M38.667,30.933H23.2q0-1.479.087-2.9H26.1A1.939,1.939,0,0,0,28.033,26.1V21.054a20.373,20.373,0,0,0,2.9.213,19.043,19.043,0,0,0,6.419-1.1,41.991,41.991,0,0,1,1.315,10.769Z" fill="#9bc9ff"/>
        <path id="Path_1244968" data-name="Path 1244968" d="M23.2,30.933H38.667A41.17,41.17,0,0,1,37.1,42.582a19.14,19.14,0,0,0-6.167-1.015,18.841,18.841,0,0,0-6.167,1.015A41.17,41.17,0,0,1,23.2,30.933Z" fill="#2488ff"/>
        <path id="Path_1244969" data-name="Path 1244969" d="M30.933,41.567A19.14,19.14,0,0,1,37.1,42.582c-1.411,4.669-3.644,7.685-6.167,7.685s-4.756-3.016-6.167-7.685a18.841,18.841,0,0,1,6.167-1.015Z" fill="#9bc9ff"/>
        <path id="Path_1244970" data-name="Path 1244970" d="M30.933,11.6c2.678,0,5.036,3.393,6.419,8.565a19.043,19.043,0,0,1-6.419,1.1,20.373,20.373,0,0,1-2.9-.213V13a4.149,4.149,0,0,1,2.9-1.4Z" fill="#2488ff"/>
        <path id="Path_1244971" data-name="Path 1244971" d="M28.033,21.054V26.1A1.939,1.939,0,0,1,26.1,28.033H8.7A1.939,1.939,0,0,1,6.767,26.1V12.567A1.939,1.939,0,0,1,8.7,10.633H26.1a1.925,1.925,0,0,1,1.788,1.208,1.837,1.837,0,0,1,.145.725Z" fill="#ffc477"/>
        <path id="Path_1244972" data-name="Path 1244972" d="M24.766,42.582c1.411,4.669,3.644,7.685,6.167,7.685a19.186,19.186,0,0,1-12.209-4.35,19.22,19.22,0,0,1,6.042-3.335Z" fill="#2488ff"/>
        <path id="Path_1244973" data-name="Path 1244973" d="M24.766,42.582a19.22,19.22,0,0,0-6.042,3.335,18.92,18.92,0,0,1-3.151-3.248,5.7,5.7,0,0,0,.86-3.035,5.814,5.814,0,0,0-4.592-5.674,18.347,18.347,0,0,1-.242-3.026H23.2a41.17,41.17,0,0,0,1.566,11.648Z" fill="#9bc9ff"/>
        <path id="Path_1244974" data-name="Path 1244974" d="M24.167,8.7v1.933H8.7a1.939,1.939,0,0,0-1.933,1.933V26.1A1.939,1.939,0,0,0,8.7,28.033H4.833A1.939,1.939,0,0,1,2.9,26.1V4.833A1.939,1.939,0,0,1,4.833,2.9H8.7a1.948,1.948,0,0,1,1.933,1.933,1.939,1.939,0,0,0,1.933,1.933h9.667A1.939,1.939,0,0,1,24.167,8.7Z" fill="#ff7956"/>
        <path id="Path_1244975" data-name="Path 1244975" d="M11.822,28.033H23.287q-.087,1.421-.087,2.9H11.6a19.14,19.14,0,0,1,.222-2.9Z" fill="#2488ff"/>
        <path id="Path_1244976" data-name="Path 1244976" d="M18.367,47.367v11.6H2.9v-11.6a1.939,1.939,0,0,1,1.933-1.933h11.6a1.939,1.939,0,0,1,1.933,1.933Z" fill="#b2fa09"/>
        <path id="Path_1244977" data-name="Path 1244977" d="M16.433,39.633a5.7,5.7,0,0,1-.86,3.035,5.8,5.8,0,1,1-4.94-8.835,5.51,5.51,0,0,1,1.208.126,5.815,5.815,0,0,1,4.592,5.674Z" fill="#ffc477"/>
        <path id="Path_1244978" data-name="Path 1244978" d="M59.933,28.033v-11.6a2.9,2.9,0,0,0-2.9-2.9H55.959a6.767,6.767,0,1,0-9.452,0H45.433a2.892,2.892,0,0,0-2.327,1.185,20.285,20.285,0,0,0-12.173-4.085,19.9,19.9,0,0,0-2.543.174A2.888,2.888,0,0,0,26.1,9.667h-.967V8.7a2.9,2.9,0,0,0-2.9-2.9H12.567a.967.967,0,0,1-.967-.967,2.9,2.9,0,0,0-2.9-2.9H4.833a2.9,2.9,0,0,0-2.9,2.9V26.1a2.9,2.9,0,0,0,2.9,2.9H10.74c-.064.646-.106,1.292-.106,1.933,0,.66.042,1.3.1,1.938-.035,0-.068,0-.1,0a6.76,6.76,0,0,0-4.726,11.6H4.833a2.9,2.9,0,0,0-2.9,2.9v11.6a.967.967,0,0,0,.967.967H18.367a.967.967,0,0,0,.967-.967V47.6A20.289,20.289,0,0,0,40.6,48.776V58.967a.967.967,0,0,0,.967.967h17.4a.967.967,0,0,0,.967-.967v-17.4a.967.967,0,0,0-.283-.683l-5.8-5.8a.967.967,0,0,0-.683-.283h-2.3a20.493,20.493,0,0,0,.37-3.867c0-.641-.043-1.288-.106-1.933h7.84a.967.967,0,0,0,.967-.967ZM46.4,8.7a4.833,4.833,0,1,1,4.833,4.833A4.833,4.833,0,0,1,46.4,8.7ZM30.933,49.3c-1.75,0-3.6-2.266-4.93-6.079a18.1,18.1,0,0,1,9.86,0c-1.323,3.811-3.179,6.079-4.93,6.079Zm-4.171-.473a18.111,18.111,0,0,1-6.442-2.9,18.34,18.34,0,0,1,3.852-2.086,16.986,16.986,0,0,0,2.59,4.986ZM30.933,40.6a20.214,20.214,0,0,0-5.5.773A40.043,40.043,0,0,1,24.187,31.9H37.68a40.028,40.028,0,0,1-1.244,9.467A20.28,20.28,0,0,0,30.933,40.6ZM24.2,29.967c.007-.324.015-.646.029-.967H26.1A2.9,2.9,0,0,0,29,26.1V22.131c.652.061,1.3.1,1.933.1a20.236,20.236,0,0,0,5.723-.84,41.038,41.038,0,0,1,1.024,8.573ZM30.933,20.3A19.121,19.121,0,0,1,29,20.188V13.437a3.006,3.006,0,0,1,1.933-.87c1.88,0,3.881,2.618,5.22,6.96a18.322,18.322,0,0,1-5.22.773Zm4.2-7.228a18.377,18.377,0,0,1,7.037,3.361,18.3,18.3,0,0,1-4.2,2.444,18.12,18.12,0,0,0-2.836-5.8ZM3.867,26.1V4.833a.967.967,0,0,1,.967-.967H8.7a.967.967,0,0,1,.967.967,2.9,2.9,0,0,0,2.9,2.9h9.667A.967.967,0,0,1,23.2,8.7v.967H8.7a2.9,2.9,0,0,0-2.9,2.9V26.1a2.867,2.867,0,0,0,.178.967H4.833A.967.967,0,0,1,3.867,26.1Zm3.867,0V12.567A.967.967,0,0,1,8.7,11.6H26.1a.967.967,0,0,1,.967.967V26.1a.967.967,0,0,1-.967.967H8.7A.967.967,0,0,1,7.733,26.1ZM22.291,29c-.013.322-.022.643-.029.967H12.6c.017-.323.044-.644.079-.967ZM12.6,31.9h9.649a41.725,41.725,0,0,0,1.353,10.091,20.282,20.282,0,0,0-4.845,2.693,18.691,18.691,0,0,1-2.03-2.127,6.742,6.742,0,0,0-4-9.356c-.064-.426-.1-.86-.123-1.3Zm2.988,12.322c.072.083.149.162.222.245h-.455C15.441,44.388,15.515,44.3,15.592,44.222ZM5.8,39.633a4.833,4.833,0,1,1,4.833,4.833A4.833,4.833,0,0,1,5.8,39.633ZM17.4,58H3.867V47.367a.967.967,0,0,1,.967-.967h11.6a.967.967,0,0,1,.967.967Zm17.715-9.183A17.039,17.039,0,0,0,37.7,43.831,18.327,18.327,0,0,1,40.6,45.3v1.236A18.2,18.2,0,0,1,35.115,48.817ZM42.533,58V36.733H52.2v4.833a.967.967,0,0,0,.967.967H58V58Zm11.6-19.9,2.5,2.5h-2.5ZM41.567,34.8a.967.967,0,0,0-.967.967v7.292a20.173,20.173,0,0,0-2.334-1.086A41.75,41.75,0,0,0,39.613,31.9H49.27a18.517,18.517,0,0,1-.387,2.9Zm7.7-4.833H39.613a42.727,42.727,0,0,0-1.125-9.213,20.289,20.289,0,0,0,4.045-2.177v9.457A.967.967,0,0,0,43.5,29h5.683C49.218,29.323,49.245,29.644,49.262,29.967ZM58,27.067H44.467V16.433a.967.967,0,0,1,.967-.967h11.6a.967.967,0,0,1,.967.967Z"/>
        <path id="Path_1244979" data-name="Path 1244979" d="M46.4,46.4h7.733v1.933H46.4Z"/>
        <path id="Path_1244980" data-name="Path 1244980" d="M46.4,52.2h7.733v1.933H46.4Z"/>
      </g>
    </g>
  </g>
</svg>
