<svg xmlns="http://www.w3.org/2000/svg" xmlns:xlink="http://www.w3.org/1999/xlink" width="108" height="108" viewBox="0 0 108 108">
  <defs>
    <filter id="Ellipse_12740" x="0" y="0" width="108" height="108" filterUnits="userSpaceOnUse">
      <feOffset dy="3" input="SourceAlpha"/>
      <feGaussianBlur stdDeviation="3" result="blur"/>
      <feFlood flood-opacity="0.161"/>
      <feComposite operator="in" in2="blur"/>
      <feComposite in="SourceGraphic"/>
    </filter>
    <clipPath id="clip-path">
      <rect id="Rectangle_411018" data-name="Rectangle 411018" width="58" height="68" transform="translate(16.153 15.937)" fill="#fff" stroke="#707070" stroke-width="1" opacity="0"/>
    </clipPath>
  </defs>
  <g id="Group_1203872" data-name="Group 1203872" transform="translate(9 6)">
    <g id="Group_1203657" data-name="Group 1203657">
      <g transform="matrix(1, 0, 0, 1, -9, -6)" filter="url(#Ellipse_12740)">
        <g id="Ellipse_12740-2" data-name="Ellipse 12740" transform="translate(9 6)" fill="#5bd4dd" stroke="#3f939a" stroke-width="1">
          <circle cx="45" cy="45" r="45" stroke="none"/>
          <circle cx="45" cy="45" r="44.5" fill="none"/>
        </g>
      </g>
    </g>
    <g id="Mask_Group_1099440" data-name="Mask Group 1099440" clip-path="url(#clip-path)">
      <g id="database" transform="translate(14.22 19.003)">
        <path id="Path_1245051" data-name="Path 1245051" d="M37.7,27.067v9.667c0,2.668-7.791,4.833-17.4,4.833S2.9,39.4,2.9,36.733V27.067c0,2.668,7.791,4.833,17.4,4.833S37.7,29.735,37.7,27.067Z" fill="#c0ab91"/>
        <path id="Path_1245052" data-name="Path 1245052" d="M58.967,29v5.8l-4.408.735a12.649,12.649,0,0,1-.947,2.3L56.2,41.47l-4.1,4.1L49.02,43.374a1.947,1.947,0,0,0,1.247-1.808V33.833a1.9,1.9,0,0,0-.106-.628,8.293,8.293,0,0,0,.106-1.3A7.733,7.733,0,0,0,37.7,25.868V20.3a12.576,12.576,0,0,1,1.2-.425l.735-4.408h5.8l.735,4.408a12.65,12.65,0,0,1,2.3.947L52.1,18.231l4.1,4.1-2.591,3.635a12.65,12.65,0,0,1,.947,2.3Z" fill="#ffeb99"/>
        <rect id="Rectangle_411917" data-name="Rectangle 411917" width="38.667" height="11.6" rx="1.933" transform="translate(11.6 47.367)" fill="#57a4ff"/>
        <path id="Path_1245053" data-name="Path 1245053" d="M50.267,49.3v7.733a1.939,1.939,0,0,1-1.933,1.933H44.467A1.939,1.939,0,0,0,46.4,57.033V49.3a1.939,1.939,0,0,0-1.933-1.933h3.867A1.939,1.939,0,0,1,50.267,49.3Z" fill="#2488ff"/>
        <path id="Path_1245054" data-name="Path 1245054" d="M50.267,31.9a8.294,8.294,0,0,1-.106,1.3,1.946,1.946,0,0,0-1.827-1.3H37.7V25.868A7.733,7.733,0,0,1,50.267,31.9Z" fill="#c6c5ca"/>
        <path id="Path_1245055" data-name="Path 1245055" d="M50.267,31.9a8.294,8.294,0,0,1-.106,1.3,1.946,1.946,0,0,0-1.827-1.3H46.4a7.75,7.75,0,0,0-5.781-7.492A7.733,7.733,0,0,1,50.267,31.9Z" fill="#acabb1"/>
        <path id="Path_1245056" data-name="Path 1245056" d="M40.6,43.5h5.8v3.867H40.6Z" fill="#c6c5ca"/>
        <path id="Path_1245057" data-name="Path 1245057" d="M37.7,17.4v9.667c0,2.668-7.791,4.833-17.4,4.833S2.9,29.735,2.9,27.067V17.4c0,2.668,7.791,4.833,17.4,4.833S37.7,20.068,37.7,17.4Z" fill="#c0ab91"/>
        <path id="Path_1245058" data-name="Path 1245058" d="M37.7,7.733V17.4c0,2.668-7.791,4.833-17.4,4.833S2.9,20.068,2.9,17.4V7.733c0,2.668,7.791,4.833,17.4,4.833S37.7,10.4,37.7,7.733Z" fill="#c0ab91"/>
        <ellipse id="Ellipse_13463" data-name="Ellipse 13463" cx="17.4" cy="4.833" rx="17.4" ry="4.833" transform="translate(2.9 2.9)" fill="#ffcd00"/>
        <g id="Group_1204933" data-name="Group 1204933">
          <path id="Path_1245059" data-name="Path 1245059" d="M37.7,27.067v9.667c0,2.668-7.791,4.833-17.4,4.833-.657,0-1.3-.01-1.933-.039,8.7-.261,15.467-2.31,15.467-4.795V30.1C36.25,29.271,37.7,28.217,37.7,27.067Z" fill="#b39a7c"/>
          <path id="Path_1245060" data-name="Path 1245060" d="M37.7,17.4v9.667c0,1.15-1.45,2.2-3.867,3.035V20.435C36.25,19.6,37.7,18.55,37.7,17.4Z" fill="#b39a7c"/>
          <path id="Path_1245061" data-name="Path 1245061" d="M37.7,7.733V17.4c0,1.15-1.45,2.2-3.867,3.035V10.769C36.25,9.937,37.7,8.884,37.7,7.733Z" fill="#b39a7c"/>
        </g>
        <path id="Path_1245062" data-name="Path 1245062" d="M37.7,7.733c0,2.668-7.791,4.833-17.4,4.833-.657,0-1.3-.01-1.933-.039,8.7-.261,15.467-2.31,15.467-4.795S27.067,3.2,18.367,2.939C19,2.91,19.643,2.9,20.3,2.9,29.909,2.9,37.7,5.065,37.7,7.733Z" fill="#ebbf00"/>
        <path id="Path_1245063" data-name="Path 1245063" d="M23.2,51.233h3.867V55.1H23.2Z" fill="#ffeb99"/>
        <rect id="Rectangle_411918" data-name="Rectangle 411918" width="38.667" height="11.6" rx="1.933" transform="translate(11.6 31.9)" fill="#57a4ff"/>
        <path id="Path_1245064" data-name="Path 1245064" d="M50.267,33.833v7.733A1.939,1.939,0,0,1,48.333,43.5H44.467A1.939,1.939,0,0,0,46.4,41.567V33.833A1.939,1.939,0,0,0,44.467,31.9h3.867A1.939,1.939,0,0,1,50.267,33.833Z" fill="#2488ff"/>
        <path id="Path_1245065" data-name="Path 1245065" d="M23.2,35.767h3.867v3.867H23.2Z" fill="#ffeb99"/>
        <path id="Path_1245066" data-name="Path 1245066" d="M15.467,43.5h5.8v3.867h-5.8Z" fill="#c6c5ca"/>
        <path id="Path_1245067" data-name="Path 1245067" d="M15.467,51.233h3.867V55.1H15.467Z" fill="#ffeb99"/>
        <path id="Path_1245068" data-name="Path 1245068" d="M15.467,35.767h3.867v3.867H15.467Z" fill="#ffeb99"/>
        <path id="Path_1245069" data-name="Path 1245069" d="M19.333,34.8H15.467a.967.967,0,0,0-.967.967v3.867a.967.967,0,0,0,.967.967h3.867a.967.967,0,0,0,.967-.967V35.767A.967.967,0,0,0,19.333,34.8Zm-.967,3.867H16.433V36.733h1.933Z"/>
        <path id="Path_1245070" data-name="Path 1245070" d="M27.067,34.8H23.2a.967.967,0,0,0-.967.967v3.867a.967.967,0,0,0,.967.967h3.867a.967.967,0,0,0,.967-.967V35.767A.967.967,0,0,0,27.067,34.8ZM26.1,38.667H24.167V36.733H26.1Z"/>
        <path id="Path_1245071" data-name="Path 1245071" d="M29.967,34.8H43.5v1.933H29.967Z"/>
        <path id="Path_1245072" data-name="Path 1245072" d="M45.433,34.8h1.933v1.933H45.433Z"/>
        <path id="Path_1245073" data-name="Path 1245073" d="M29.967,38.667H43.5V40.6H29.967Z"/>
        <path id="Path_1245074" data-name="Path 1245074" d="M45.433,38.667h1.933V40.6H45.433Z"/>
        <path id="Path_1245075" data-name="Path 1245075" d="M15.467,56.067h3.867A.967.967,0,0,0,20.3,55.1V51.233a.967.967,0,0,0-.967-.967H15.467a.967.967,0,0,0-.967.967V55.1A.967.967,0,0,0,15.467,56.067Zm.967-3.867h1.933v1.933H16.433Z"/>
        <path id="Path_1245076" data-name="Path 1245076" d="M23.2,56.067h3.867a.967.967,0,0,0,.967-.967V51.233a.967.967,0,0,0-.967-.967H23.2a.967.967,0,0,0-.967.967V55.1A.967.967,0,0,0,23.2,56.067Zm.967-3.867H26.1v1.933H24.167Z"/>
        <path id="Path_1245077" data-name="Path 1245077" d="M29.967,50.267H43.5V52.2H29.967Z"/>
        <path id="Path_1245078" data-name="Path 1245078" d="M45.433,50.267h1.933V52.2H45.433Z"/>
        <path id="Path_1245079" data-name="Path 1245079" d="M29.967,54.133H43.5v1.933H29.967Z"/>
        <path id="Path_1245080" data-name="Path 1245080" d="M45.433,54.133h1.933v1.933H45.433Z"/>
        <path id="Path_1245081" data-name="Path 1245081" d="M59.121,28.043,55.293,27.4a11.07,11.07,0,0,0-.561-1.353l2.252-3.161a.967.967,0,0,0-.1-1.247l-4.1-4.1a.967.967,0,0,0-1.247-.1L48.382,19.7a13.752,13.752,0,0,0-1.353-.561l-.638-3.828a.967.967,0,0,0-.957-.812h-5.8a.967.967,0,0,0-.957.812l-.01.077V7.733c0-3.809-9.241-5.8-18.367-5.8S1.933,3.925,1.933,7.733v29c0,2.929,5.143,4.36,8.719,5.007a2.891,2.891,0,0,0,2.881,2.726H14.5V46.4h-.967a2.909,2.909,0,0,0-2.9,2.9v7.733a2.909,2.909,0,0,0,2.9,2.9h34.8a2.909,2.909,0,0,0,2.9-2.9V49.3a2.909,2.909,0,0,0-2.9-2.9h-.967V44.467h.967a2.643,2.643,0,0,0,.483-.048l2.726,1.943a1.007,1.007,0,0,0,.561.174.99.99,0,0,0,.686-.28l4.1-4.1a.967.967,0,0,0,.1-1.247l-2.252-3.161a11.07,11.07,0,0,0,.561-1.353l3.828-.638a.967.967,0,0,0,.812-.957V29a.967.967,0,0,0-.812-.957ZM38.667,26.38A6.727,6.727,0,0,1,49.252,31.1a2.912,2.912,0,0,0-.918-.164H38.667ZM20.3,3.867c10.633,0,16.433,2.552,16.433,3.867S30.933,11.6,20.3,11.6,3.867,9.048,3.867,7.733,9.667,3.867,20.3,3.867ZM3.867,10.459c3.18,2.02,9.821,3.074,16.433,3.074s13.253-1.054,16.433-3.074V17.4c0,1.315-5.8,3.867-16.433,3.867S3.867,18.715,3.867,17.4Zm6.767,23.374v5.935c-4.9-.928-6.767-2.33-6.767-3.035V29.793a20.766,20.766,0,0,0,7.308,2.359,2.885,2.885,0,0,0-.541,1.682ZM3.867,27.067V20.126C7.047,22.146,13.688,23.2,20.3,23.2s13.253-1.054,16.433-3.074v6.941c0,1.315-5.8,3.867-16.433,3.867S3.867,28.381,3.867,27.067Zm32.867,2.726v1.141h-2.4a12.053,12.053,0,0,0,2.4-1.141Zm11.6,18.541a.967.967,0,0,1,.967.967v7.733a.967.967,0,0,1-.967.967h-34.8a.967.967,0,0,1-.967-.967V49.3a.967.967,0,0,1,.967-.967ZM16.433,46.4V44.467H20.3V46.4Zm5.8,0V44.467h17.4V46.4Zm19.333,0V44.467h3.867V46.4ZM49.3,41.567a.967.967,0,0,1-.967.967h-34.8a.967.967,0,0,1-.967-.967V33.833a.967.967,0,0,1,.967-.967h34.8a.967.967,0,0,1,.967.967ZM58,33.978l-3.6.6a.991.991,0,0,0-.773.677,11.416,11.416,0,0,1-.87,2.127.943.943,0,0,0,.068,1.015l2.107,2.968L52,44.3l-1.373-.976a2.873,2.873,0,0,0,.609-1.759V33.833a2.749,2.749,0,0,0-.1-.7,9.007,9.007,0,0,0,.1-1.237,8.681,8.681,0,0,0-12.567-7.782V20.986a4.764,4.764,0,0,1,.522-.184.994.994,0,0,0,.667-.773l.6-3.6h4.157l.6,3.6a.991.991,0,0,0,.677.773,11.7,11.7,0,0,1,2.127.87.967.967,0,0,0,1.015-.068L52,19.5l2.939,2.939L52.828,25.4a.943.943,0,0,0-.068,1.015,11.416,11.416,0,0,1,.87,2.127.991.991,0,0,0,.773.677l3.6.6Z"/>
        <path id="Path_1245082" data-name="Path 1245082" d="M5.8,46.4H3.867v7.733a.967.967,0,0,0,.967.967H8.7V53.167H5.8Z"/>
        <path id="Path_1245083" data-name="Path 1245083" d="M58.967,3.867H43.5V5.8H58v9.266l-2.617,2.617L56.75,19.05l2.9-2.9a.967.967,0,0,0,.283-.683V4.833A.967.967,0,0,0,58.967,3.867Z"/>
        <path id="Path_1245084" data-name="Path 1245084" d="M39.633,3.867h1.933V5.8H39.633Z"/>
        <path id="Path_1245085" data-name="Path 1245085" d="M3.867,42.533H5.8v1.933H3.867Z"/>
      </g>
    </g>
  </g>
</svg>
