<svg xmlns="http://www.w3.org/2000/svg" xmlns:xlink="http://www.w3.org/1999/xlink" width="72" height="72" viewBox="0 0 72 72">
  <defs>
    <clipPath id="clip-path">
      <rect id="Rectangle_411993" data-name="Rectangle 411993" width="47" height="47" transform="translate(-5411 -7897)" fill="#fff" stroke="#707070" stroke-width="1" opacity="0"/>
    </clipPath>
  </defs>
  <g id="Group_1205024" data-name="Group 1205024" transform="translate(5423.051 7910)">
    <g id="Group_1205025" data-name="Group 1205025" transform="translate(-5644.051 -14755.688)">
      <g id="Group_1203761" data-name="Group 1203761" transform="translate(-198 5724.688)">
        <path id="Path_824488" data-name="Path 824488" d="M36,0A36,36,0,1,1,0,36,36,36,0,0,1,36,0Z" transform="translate(419 1121)" fill="#bdedf1"/>
      </g>
    </g>
    <g id="Mask_Group_1099457" data-name="Mask Group 1099457" clip-path="url(#clip-path)">
      <g id="_19-ZIP" data-name="19-ZIP" transform="translate(-5408.063 -7897)">
        <path id="Path_1245586" data-name="Path 1245586" d="M31.578.734l8.813,8.813H31.578Z" fill="#cdd1d6"/>
        <path id="Path_1245587" data-name="Path 1245587" d="M40.391,9.547V46.266H6.609V.734H31.578V9.547Z" fill="#f2f2f2"/>
        <path id="Path_1245588" data-name="Path 1245588" d="M8.078,6.609v35.25A2.937,2.937,0,0,0,11.016,44.8H35.984a2.938,2.938,0,0,0,2.938-2.937V40.3C8.078,38.4,8.078,6.609,8.078,6.609Z" fill="#e2e2e2"/>
        <path id="Path_1245589" data-name="Path 1245589" d="M32.313,9.547h8.078v1.469H32.313Z" fill="#e2e2e2"/>
        <path id="Path_1245590" data-name="Path 1245590" d="M.734,2.938H27.172v11.75H.734Z" fill="#676bf9"/>
        <path id="Path_1245591" data-name="Path 1245591" d="M6.609,14.688H25.7v2.2H6.609Z" fill="#e2e2e2"/>
        <path id="Path_1245592" data-name="Path 1245592" d="M26.438,31.578v.734H20.563V26.438h5.875v5.141Z" fill="#ffac2b"/>
        <path id="Path_1245593" data-name="Path 1245593" d="M25.7,35.984v.734H21.3V32.313H25.7Z" fill="#ffac2b"/>
        <path id="Path_1245594" data-name="Path 1245594" d="M25.7,22.766v3.672H21.3V22.031H25.7Z" fill="#ffac2b"/>
        <path id="Path_1245595" data-name="Path 1245595" d="M26.438,32.313v-.734h5.875a.734.734,0,0,1,.734.734V35.25a.734.734,0,0,1-.734.734H25.7V32.313Z" fill="#17832f"/>
        <path id="Path_1245596" data-name="Path 1245596" d="M21.3,32.313v3.672H14.688a.734.734,0,0,1-.734-.734V32.313a.734.734,0,0,1,.734-.734h5.875v.734Z" fill="#17832f"/>
        <path id="Path_1245597" data-name="Path 1245597" d="M32.313,33.781H25.7v2.2h6.609a.734.734,0,0,0,.734-.734v-2.2A.734.734,0,0,1,32.313,33.781Z" fill="#116e26"/>
        <path id="Path_1245598" data-name="Path 1245598" d="M13.953,33.047v2.2a.734.734,0,0,0,.734.734H21.3v-2.2H14.688A.734.734,0,0,1,13.953,33.047Z" fill="#116e26"/>
        <path id="Path_1245599" data-name="Path 1245599" d="M33.047,27.906v2.938a.734.734,0,0,1-.734.734H26.438V27.172h5.875A.734.734,0,0,1,33.047,27.906Z" fill="#676bf9"/>
        <path id="Path_1245600" data-name="Path 1245600" d="M20.563,27.172v4.406H14.688a.734.734,0,0,1-.734-.734V27.906a.734.734,0,0,1,.734-.734Z" fill="#676bf9"/>
        <path id="Path_1245601" data-name="Path 1245601" d="M32.313,29.375H26.438v2.2h5.875a.734.734,0,0,0,.734-.734v-2.2A.734.734,0,0,1,32.313,29.375Z" fill="#383a99"/>
        <path id="Path_1245602" data-name="Path 1245602" d="M14.688,29.375a.734.734,0,0,1-.734-.734v2.2a.734.734,0,0,0,.734.734h5.875v-2.2Z" fill="#383a99"/>
        <path id="Path_1245603" data-name="Path 1245603" d="M33.047,23.5v2.938a.734.734,0,0,1-.734.734H26.438v-.734H25.7V22.766h6.609A.734.734,0,0,1,33.047,23.5Z" fill="#e14571"/>
        <path id="Path_1245604" data-name="Path 1245604" d="M21.3,22.766v3.672h-.734v.734H14.688a.734.734,0,0,1-.734-.734V23.5a.734.734,0,0,1,.734-.734Z" fill="#e14571"/>
        <path id="Path_1245605" data-name="Path 1245605" d="M32.313,24.969H25.7v1.469h.734v.734h5.875a.734.734,0,0,0,.734-.734v-2.2A.734.734,0,0,1,32.313,24.969Z" fill="#cd2646"/>
        <path id="Path_1245606" data-name="Path 1245606" d="M13.953,24.234v2.2a.734.734,0,0,0,.734.734h5.875v-.734H21.3V24.969H14.688A.734.734,0,0,1,13.953,24.234Z" fill="#cd2646"/>
        <path id="Path_1245607" data-name="Path 1245607" d="M21.3,32.313H25.7v2.2H21.3Z" fill="#ed9409"/>
        <path id="Path_1245608" data-name="Path 1245608" d="M21.3,24.234H25.7v4.406H21.3Z" fill="#ed9409"/>
        <path id="Path_1245609" data-name="Path 1245609" d="M15.422,23.5h.734v2.938h-.734Z" fill="#ffcb36"/>
        <path id="Path_1245610" data-name="Path 1245610" d="M15.422,27.906h.734v2.938h-.734Z" fill="#ffcb36"/>
        <path id="Path_1245611" data-name="Path 1245611" d="M15.422,32.313h.734V35.25h-.734Z" fill="#ffcb36"/>
        <path id="Path_1245612" data-name="Path 1245612" d="M25.7,36.719H21.3v-.734H14.688a.734.734,0,0,1-.734-.734V32.313a.734.734,0,0,1,.734-.734.734.734,0,0,1-.734-.734V27.906a.734.734,0,0,1,.734-.734.734.734,0,0,1-.734-.734V24.969H12.484a.734.734,0,0,0-.734.734v2.938a.734.734,0,0,0,.734.734.734.734,0,0,0-.734.734v2.938a.734.734,0,0,0,.734.734.734.734,0,0,0-.734.734v2.938a.734.734,0,0,0,.734.734h6.609v.734H23.5v-.734h6.609a.734.734,0,0,0,.734-.734V35.984H25.7Z" fill="#c2c2c2"/>
        <g id="Group_1205026" data-name="Group 1205026">
          <path id="Path_1245613" data-name="Path 1245613" d="M5.952,12.078a.734.734,0,0,1,.07-.769l3.525-4.7H6.609V5.875H5.875V7.344H8.813l-3.525,4.7a.734.734,0,0,0,.588,1.175h4.406v-.734H6.609a.734.734,0,0,1-.657-.406Z" fill="#4a4dd9"/>
          <path id="Path_1245614" data-name="Path 1245614" d="M13.219,5.875h-.734v7.344h1.469v-.734h-.734Z" fill="#4a4dd9"/>
          <path id="Path_1245615" data-name="Path 1245615" d="M16.891,5.875a.734.734,0,0,0-.734.734v6.609h1.469v-.734h-.734Z" fill="#4a4dd9"/>
          <path id="Path_1245616" data-name="Path 1245616" d="M18.359,9.547v.734h.734a2.2,2.2,0,0,0,1.876-1.062,2.186,2.186,0,0,1-1.141.328Z" fill="#4a4dd9"/>
          <path id="Path_1245617" data-name="Path 1245617" d="M19.828,6.609H18.359v.734h.734a.734.734,0,0,1,.734.734.734.734,0,0,0,0-1.469Z" fill="#4a4dd9"/>
        </g>
        <path id="Path_1245618" data-name="Path 1245618" d="M40.91,9.028,32.1.215A.734.734,0,0,0,31.578,0H6.609a.734.734,0,0,0-.734.734V2.2H.734A.734.734,0,0,0,0,2.938v11.75a.734.734,0,0,0,.734.734H27.172a.734.734,0,0,0,.734-.734V2.938a.734.734,0,0,0-.734-.734H7.344V1.469h23.5V9.547a.734.734,0,0,0,.734.734h8.078V11.75h1.469v-2.2a.734.734,0,0,0-.215-.519ZM26.438,13.953H1.469V3.672H26.438ZM32.313,2.507l6.305,6.305H32.313Z"/>
        <path id="Path_1245619" data-name="Path 1245619" d="M5.875,16.891H7.344v1.469H5.875Z"/>
        <path id="Path_1245620" data-name="Path 1245620" d="M5.875,19.828H7.344v21.3H5.875Z"/>
        <path id="Path_1245621" data-name="Path 1245621" d="M39.656,45.531H7.344V42.594H5.875v3.672A.734.734,0,0,0,6.609,47H40.391a.734.734,0,0,0,.734-.734V16.156H39.656Z"/>
        <path id="Path_1245622" data-name="Path 1245622" d="M39.656,13.219h1.469v1.469H39.656Z"/>
        <path id="Path_1245623" data-name="Path 1245623" d="M6.609,12.484h4.406V11.016H8.078l3.525-4.7a.734.734,0,0,0-.588-1.175H6.609V6.609H9.547l-3.525,4.7a.734.734,0,0,0,.588,1.175Z"/>
        <path id="Path_1245624" data-name="Path 1245624" d="M13.219,5.141h1.469v7.344H13.219Z"/>
        <path id="Path_1245625" data-name="Path 1245625" d="M18.359,9.547h1.469a2.2,2.2,0,0,0,0-4.406h-2.2a.734.734,0,0,0-.734.734v6.609h1.469Zm0-2.937h1.469a.734.734,0,0,1,0,1.469H18.359Z"/>
        <path id="Path_1245626" data-name="Path 1245626" d="M13.219,35.25a1.469,1.469,0,0,0,1.469,1.469h5.875a.734.734,0,0,0,.734.734H25.7a.734.734,0,0,0,.734-.734h5.875a1.469,1.469,0,0,0,1.469-1.469V32.313a1.453,1.453,0,0,0-.2-.734,1.453,1.453,0,0,0,.2-.734V27.906a1.453,1.453,0,0,0-.2-.734,1.453,1.453,0,0,0,.2-.734V23.5a1.469,1.469,0,0,0-1.469-1.469H26.438A.734.734,0,0,0,25.7,21.3H21.3a.734.734,0,0,0-.734.734H14.688A1.469,1.469,0,0,0,13.219,23.5v2.938a1.453,1.453,0,0,0,.2.734,1.453,1.453,0,0,0-.2.734v2.937a1.453,1.453,0,0,0,.2.734,1.453,1.453,0,0,0-.2.734Zm1.469,0V32.313h5.141a.734.734,0,0,0,.734.734v2.2Zm0-7.344h5.141v2.938H14.688Zm12.484,0h5.141v2.938H27.172ZM25.7,27.172v4.406H24.234v-2.2H22.766v2.2H21.3V27.172Zm-3.672,8.813V33.047h2.938v2.938Zm10.281-.734H26.438v-2.2a.734.734,0,0,0,.734-.734h5.141Zm0-11.75v2.938H27.172a.734.734,0,0,0-.734-.734V23.5Zm-7.344-.734V25.7H22.031V22.766ZM14.688,23.5h5.875v2.2a.734.734,0,0,0-.734.734H14.688Z"/>
      </g>
    </g>
  </g>
</svg>
