<svg xmlns="http://www.w3.org/2000/svg" xmlns:xlink="http://www.w3.org/1999/xlink" width="108" height="108" viewBox="0 0 108 108">
  <defs>
    <filter id="Ellipse_12740" x="0" y="0" width="108" height="108" filterUnits="userSpaceOnUse">
      <feOffset dy="3" input="SourceAlpha"/>
      <feGaussianBlur stdDeviation="3" result="blur"/>
      <feFlood flood-opacity="0.161"/>
      <feComposite operator="in" in2="blur"/>
      <feComposite in="SourceGraphic"/>
    </filter>
    <clipPath id="clip-path">
      <rect id="Rectangle_411018" data-name="Rectangle 411018" width="58" height="68" transform="translate(16.153 15.937)" fill="#fff" stroke="#707070" stroke-width="1" opacity="0"/>
    </clipPath>
  </defs>
  <g id="Group_1203874" data-name="Group 1203874" transform="translate(9 6)">
    <g id="Group_1203657" data-name="Group 1203657">
      <g transform="matrix(1, 0, 0, 1, -9, -6)" filter="url(#Ellipse_12740)">
        <g id="Ellipse_12740-2" data-name="Ellipse 12740" transform="translate(9 6)" fill="#5bd4dd" stroke="#3f939a" stroke-width="1">
          <circle cx="45" cy="45" r="45" stroke="none"/>
          <circle cx="45" cy="45" r="44.5" fill="none"/>
        </g>
      </g>
    </g>
    <g id="Mask_Group_1099442" data-name="Mask Group 1099442" clip-path="url(#clip-path)">
      <g id="archivo-excel" transform="translate(-734.366 -265.583)">
        <g id="Group_1204934" data-name="Group 1204934" transform="translate(95.12 278.4)">
          <path id="Path_1245099" data-name="Path 1245099" d="M678.6,4.64h33.64V69.6H661.2V22.04" fill="#fff" fill-rule="evenodd"/>
        </g>
        <g id="Group_1204935" data-name="Group 1204935" transform="translate(815.045 278.69) rotate(180)">
          <path id="Path_1245100" data-name="Path 1245100" d="M41.347-4.352V-21.762H58.756Z" fill="#e7e5e5" fill-rule="evenodd"/>
        </g>
        <g id="Group_1204936" data-name="Group 1204936" transform="translate(-830.302 274.92)">
          <path id="Path_1245101" data-name="Path 1245101" d="M1625.976,47.56a2.318,2.318,0,0,0-2.319-2.32h-39.44a2.318,2.318,0,0,0-2.319,2.32V63.8a2.318,2.318,0,0,0,2.319,2.32h39.44a2.318,2.318,0,0,0,2.319-2.32Z" fill="#19a63b" fill-rule="evenodd"/>
        </g>
        <path id="Path_1245102" data-name="Path 1245102" d="M755.16,319V300.44a1.157,1.157,0,0,1,.34-.82l17.4-17.4a1.157,1.157,0,0,1,.82-.34h33.64a1.16,1.16,0,0,1,1.16,1.16V348a1.16,1.16,0,0,1-1.16,1.16H756.32a1.16,1.16,0,0,1-1.16-1.16v-5.8H754a3.481,3.481,0,0,1-3.48-3.48V322.48A3.479,3.479,0,0,1,754,319Zm2.32,23.2v4.64H806.2V284.2H774.88v16.24a1.16,1.16,0,0,1-1.16,1.16H757.48V319h35.96a3.479,3.479,0,0,1,3.48,3.48v16.24a3.481,3.481,0,0,1-3.48,3.48Zm37.12-19.72v16.24a1.161,1.161,0,0,1-1.16,1.16H754a1.161,1.161,0,0,1-1.16-1.16V322.48a1.16,1.16,0,0,1,1.16-1.16h39.44a1.16,1.16,0,0,1,1.16,1.16Zm-3.118,5.8a4.64,4.64,0,0,0-4.64-4.64h-.622a4.016,4.016,0,0,0-4.018,4.018h0a3.63,3.63,0,0,0,2.482,3.444l3.5,1.166a1.434,1.434,0,0,1,.98,1.36h0a1.611,1.611,0,0,1-1.61,1.61h-.71a2.321,2.321,0,0,1-2.32-2.32,1.16,1.16,0,0,0-2.32,0,4.64,4.64,0,0,0,4.64,4.64h.71a3.93,3.93,0,0,0,3.93-3.93h0a3.755,3.755,0,0,0-2.567-3.561l-3.5-1.165a1.311,1.311,0,0,1-.9-1.243h0a1.7,1.7,0,0,1,1.7-1.7h.622a2.32,2.32,0,0,1,2.32,2.32,1.16,1.16,0,1,0,2.32,0ZM772.56,324.8v11.6a1.16,1.16,0,0,0,1.16,1.16h5.819a1.16,1.16,0,0,0,0-2.32H774.88V324.8a1.16,1.16,0,1,0-2.32,0Zm-11.02,5.8-3.828,5.1a1.16,1.16,0,1,0,1.856,1.392l3.422-4.563,3.422,4.563a1.16,1.16,0,1,0,1.856-1.392l-3.828-5.1,3.828-5.1a1.16,1.16,0,1,0-1.856-1.392l-3.422,4.562-3.422-4.562a1.16,1.16,0,1,0-1.856,1.392Zm6.38-16.24H800.4a1.16,1.16,0,0,0,0-2.32H767.92a1.16,1.16,0,1,0,0,2.32Zm0-5.8H800.4a1.16,1.16,0,0,0,0-2.32H767.92a1.16,1.16,0,1,0,0,2.32Zm12.76-5.8H800.4a1.16,1.16,0,0,0,0-2.32H780.68a1.16,1.16,0,0,0,0,2.32Zm-8.12-16.92-13.44,13.44h13.44Zm8.12,11.12H800.4a1.16,1.16,0,0,0,0-2.32H780.68a1.16,1.16,0,0,0,0,2.32Z" fill-rule="evenodd"/>
      </g>
    </g>
  </g>
</svg>
