<svg xmlns="http://www.w3.org/2000/svg" xmlns:xlink="http://www.w3.org/1999/xlink" width="108" height="108" viewBox="0 0 108 108">
  <defs>
    <filter id="Ellipse_12740" x="0" y="0" width="108" height="108" filterUnits="userSpaceOnUse">
      <feOffset dy="3" input="SourceAlpha"/>
      <feGaussianBlur stdDeviation="3" result="blur"/>
      <feFlood flood-opacity="0.161"/>
      <feComposite operator="in" in2="blur"/>
      <feComposite in="SourceGraphic"/>
    </filter>
    <clipPath id="clip-path">
      <rect id="Rectangle_411018" data-name="Rectangle 411018" width="58" height="68" transform="translate(-6848 -10740)" fill="#fff" stroke="#707070" stroke-width="1" opacity="0"/>
    </clipPath>
  </defs>
  <g id="Group_1203660" data-name="Group 1203660" transform="translate(6873.153 10761.937)">
    <g id="Group_1203657" data-name="Group 1203657" transform="translate(-6864.153 -10755.937)">
      <g transform="matrix(1, 0, 0, 1, -9, -6)" filter="url(#Ellipse_12740)">
        <g id="Ellipse_12740-2" data-name="Ellipse 12740" transform="translate(9 6)" fill="#5bd4dd" stroke="#3f939a" stroke-width="1">
          <circle cx="45" cy="45" r="45" stroke="none"/>
          <circle cx="45" cy="45" r="44.5" fill="none"/>
        </g>
      </g>
    </g>
    <g id="Mask_Group_1099434" data-name="Mask Group 1099434" clip-path="url(#clip-path)">
      <g id="signo-de-interrogacion" transform="translate(-6848 -10735)">
        <g id="Group_1204926" data-name="Group 1204926">
          <path id="Path_1244955" data-name="Path 1244955" d="M36.5,56.867V48.053l8.067-1.321,6.221-6.221a2.907,2.907,0,0,0,0-4.111h0a2.907,2.907,0,0,0-4.111,0l-4.518,4.518H15.839L11.321,36.4a2.907,2.907,0,0,0-4.111,0h0a2.907,2.907,0,0,0,0,4.111l6.221,6.221L21.5,48.053v8.814Z" fill="#bc9af4"/>
          <path id="Path_1244956" data-name="Path 1244956" d="M29.951,56.867a14.254,14.254,0,0,1-3.372-15.949H15.839L11.321,36.4a2.907,2.907,0,0,0-4.111,0h0a2.907,2.907,0,0,0,0,4.111l6.221,6.221L21.5,48.053v8.814Z" fill="#6864f7"/>
          <circle id="Ellipse_13450" data-name="Ellipse 13450" cx="4.444" cy="4.444" r="4.444" transform="translate(24.556 32.03)" fill="#fde0be"/>
          <rect id="Rectangle_411911" data-name="Rectangle 411911" width="15.261" height="15.261" transform="translate(41.607 15.284)" fill="#fd6050"/>
          <rect id="Rectangle_411912" data-name="Rectangle 411912" width="15.261" height="15.261" transform="translate(1.133 15.284)" fill="#b1d952"/>
        </g>
        <g id="Group_1204927" data-name="Group 1204927">
          <path id="Path_1244957" data-name="Path 1244957" d="M36.5,56.867V48.053l8.067-1.321,6.221-6.221a2.907,2.907,0,0,0,0-4.111h0a2.907,2.907,0,0,0-4.111,0l-4.518,4.518H15.839L11.321,36.4a2.907,2.907,0,0,0-4.111,0h0a2.907,2.907,0,0,0,0,4.111l6.221,6.221L21.5,48.053v8.814Z" fill="none" stroke="#052a75" stroke-linejoin="round" stroke-miterlimit="10" stroke-width="2.266"/>
          <circle id="Ellipse_13451" data-name="Ellipse 13451" cx="4.444" cy="4.444" r="4.444" transform="translate(24.556 32.03)" fill="none" stroke="#052a75" stroke-linejoin="round" stroke-miterlimit="10" stroke-width="2.266"/>
          <path id="Path_1244958" data-name="Path 1244958" d="M23.115,7.017A5.885,5.885,0,1,1,29,12.9V18.7" fill="none" stroke="#fdcb50" stroke-linecap="round" stroke-linejoin="round" stroke-miterlimit="10" stroke-width="2.266"/>
          <line id="Line_658" data-name="Line 658" transform="translate(29 23.701)" fill="none" stroke="#fdcb50" stroke-linecap="round" stroke-linejoin="round" stroke-miterlimit="10" stroke-width="2.266"/>
          <line id="Line_659" data-name="Line 659" y1="3.645" x2="3.645" transform="translate(47.414 21.092)" fill="none" stroke="#fff" stroke-linecap="round" stroke-linejoin="round" stroke-miterlimit="10" stroke-width="2.266"/>
          <line id="Line_660" data-name="Line 660" x2="3.645" y2="3.645" transform="translate(47.414 21.092)" fill="none" stroke="#fff" stroke-linecap="round" stroke-linejoin="round" stroke-miterlimit="10" stroke-width="2.266"/>
          <rect id="Rectangle_411913" data-name="Rectangle 411913" width="15.261" height="15.261" transform="translate(41.607 15.284)" fill="none" stroke="#052a75" stroke-linecap="round" stroke-linejoin="round" stroke-miterlimit="10" stroke-width="2.266"/>
          <path id="Path_1244959" data-name="Path 1244959" d="M6.608,22.557l1.675,1.675L10.918,21.6" fill="none" stroke="#fff" stroke-linecap="round" stroke-linejoin="round" stroke-miterlimit="10" stroke-width="2.266"/>
          <rect id="Rectangle_411914" data-name="Rectangle 411914" width="15.261" height="15.261" transform="translate(1.133 15.284)" fill="none" stroke="#052a75" stroke-linecap="round" stroke-linejoin="round" stroke-miterlimit="10" stroke-width="2.266"/>
        </g>
      </g>
    </g>
  </g>
</svg>
