<svg xmlns="http://www.w3.org/2000/svg" xmlns:xlink="http://www.w3.org/1999/xlink" width="108" height="108" viewBox="0 0 108 108">
  <defs>
    <filter id="Ellipse_12740" x="0" y="0" width="108" height="108" filterUnits="userSpaceOnUse">
      <feOffset dy="3" input="SourceAlpha"/>
      <feGaussianBlur stdDeviation="3" result="blur"/>
      <feFlood flood-opacity="0.161"/>
      <feComposite operator="in" in2="blur"/>
      <feComposite in="SourceGraphic"/>
    </filter>
    <clipPath id="clip-path">
      <rect id="Rectangle_411018" data-name="Rectangle 411018" width="58" height="68" transform="translate(-6848 -10740)" fill="#fff" stroke="#707070" stroke-width="1" opacity="0"/>
    </clipPath>
  </defs>
  <g id="Group_1204170" data-name="Group 1204170" transform="translate(6873.153 10761.937)">
    <g id="Group_1203657" data-name="Group 1203657" transform="translate(-6864.153 -10755.937)">
      <g transform="matrix(1, 0, 0, 1, -9, -6)" filter="url(#Ellipse_12740)">
        <g id="Ellipse_12740-2" data-name="Ellipse 12740" transform="translate(9 6)" fill="#5bd4dd" stroke="#3f939a" stroke-width="1">
          <circle cx="45" cy="45" r="45" stroke="none"/>
          <circle cx="45" cy="45" r="44.5" fill="none"/>
        </g>
      </g>
    </g>
    <g id="Mask_Group_1099451" data-name="Mask Group 1099451" clip-path="url(#clip-path)">
      <g id="panel-de-proyecto" transform="translate(-6849.934 -10736.934)">
        <path id="Path_1245200" data-name="Path 1245200" d="M50.413,40.708a9.414,9.414,0,0,1-4.972-1.192h-11.6V41.06a.665.665,0,0,1-.5.644q-.5.16-.983.287V46l10.523,2.552a.664.664,0,0,1,.562.656v2.944a.664.664,0,0,1-.664.664.672.672,0,0,1-.154-.018l-13.5-2.274L15.621,52.8a.665.665,0,0,1-.818-.646V49.213a.664.664,0,0,1,.562-.656L25.887,46V42.036q-.509-.144-1-.337a.664.664,0,0,1-.481-.638V39.516H2.6a.664.664,0,0,1-.664-.664V2.965A.664.664,0,0,1,2.6,2.3H55.641a.664.664,0,0,1,.664.664V24.222a9.44,9.44,0,0,1-1.875,15.41,1.489,1.489,0,0,0,.063.527,1.662,1.662,0,0,0,.439.681.66.66,0,0,1,.2.329,1.076,1.076,0,0,1-.427,1.1l4.377,11.083a.658.658,0,0,1,.034.116,1.3,1.3,0,0,1-.057.763,3.121,3.121,0,0,1,.3.371,3.163,3.163,0,0,1,.142,3.387v0h0a3.159,3.159,0,0,1-4.318,1.156h0a3.155,3.155,0,0,1-1.494-3.477,1.307,1.307,0,0,1-.437-.653.657.657,0,0,1-.021-.09h0v-.008l-1.75-11.784a1.078,1.078,0,0,1-.918-.738A.66.66,0,0,1,50.583,42a1.662,1.662,0,0,0,.038-.8,1.477,1.477,0,0,0-.208-.485Z" fill-rule="evenodd"/>
        <g id="Group_1204944" data-name="Group 1204944">
          <g id="Group_1204943" data-name="Group 1204943">
            <path id="Path_1245201" data-name="Path 1245201" d="M50.667,39.363a.663.663,0,0,1,.585.266,2.907,2.907,0,0,1,.66,1.278,2.806,2.806,0,0,1,.045.94,3.706,3.706,0,0,0,1.7-.454,2.8,2.8,0,0,1-.5-2.288.663.663,0,0,1,.372-.51A8.115,8.115,0,0,0,55.26,25.068a8.193,8.193,0,0,0-1.169-.817,8.115,8.115,0,0,0-11.08,2.968,8.583,8.583,0,0,0-.572,1.21,8.111,8.111,0,0,0,8.227,10.935Zm-2.254-14.15a6.277,6.277,0,1,1-3.81,2.927,6.262,6.262,0,0,1,3.81-2.927Z" fill="#204a5d" fill-rule="evenodd"/>
            <path id="Path_1245202" data-name="Path 1245202" d="M41.143,34.434q-.124-.351-.222-.717a9.387,9.387,0,0,1,.257-5.691V19.212a.664.664,0,0,1,.664-.664h5.091a.664.664,0,0,1,.664.664v2.947a9.39,9.39,0,0,1,5.073.053V5.934H5.567v28.5ZM14.174,7.981a5.935,5.935,0,0,1,5.232,5.232h.3a.664.664,0,0,1,.664.664,6.864,6.864,0,1,1-6.864-6.864.664.664,0,0,1,.664.664v.3Zm30.213,4.631a21.262,21.262,0,0,1-10.769,8.28c-4.93,1.712-10.556,1.79-16.407.815a.663.663,0,1,1,.218-1.308c9.979,1.663,17.89-1.467,23.758-9.638L39.351,9.7a.664.664,0,0,1,.134-1.229L45.064,6.98a.663.663,0,0,1,.812.47l1.491,5.579a.664.664,0,0,1-1,.729l-1.98-1.145ZM22.2,34H17.113a.664.664,0,0,1-.664-.664v-5.51a.664.664,0,0,1,.664-.664H22.2a.664.664,0,0,1,.664.664v5.51A.664.664,0,0,1,22.2,34Zm8.243,0H25.356a.664.664,0,0,1-.664-.664V25.423a.664.664,0,0,1,.664-.664h5.091a.664.664,0,0,1,.664.664v7.912A.664.664,0,0,1,30.447,34Zm8.243,0H33.6a.664.664,0,0,1-.664-.664V22.761A.664.664,0,0,1,33.6,22.1H38.69a.664.664,0,0,1,.664.664V33.336A.664.664,0,0,1,38.69,34Z" fill="#e9e5dc" fill-rule="evenodd"/>
            <path id="Path_1245203" data-name="Path 1245203" d="M33.245,19.621a20.05,20.05,0,0,0,10.37-8.235.663.663,0,0,1,.9-.231l1.158.669-.907-3.392-3.392.907L42.518,10a.663.663,0,0,1,.174.921,26.188,26.188,0,0,1-9.448,8.7Z" fill="#f7921e" fill-rule="evenodd"/>
            <path id="Path_1245204" data-name="Path 1245204" d="M54.953,56.128a1.837,1.837,0,1,0,3.251-.873A5.12,5.12,0,0,1,54.953,56.128Z" fill="#24809d" fill-rule="evenodd"/>
            <path id="Path_1245205" data-name="Path 1245205" d="M57.677,53.974c.038-.053.157-.156.152-.2l-4.3-10.88-.712.191,1.719,11.57c.019.044.3.112.364.124a3.588,3.588,0,0,0,2.775-.807Z" fill="#535b63" fill-rule="evenodd"/>
            <path id="Path_1245206" data-name="Path 1245206" d="M29.118,46.582,16.13,49.732v1.64l13-2.179,12.98,2.179v-1.64l-12.989-3.15Z" fill="#535b63" fill-rule="evenodd"/>
            <path id="Path_1245207" data-name="Path 1245207" d="M31.022,42.272a12.138,12.138,0,0,1-3.808.05v3.36c.278-.067,1.742-.446,1.912-.443s1.619.375,1.9.443Z" fill="#425a73" fill-rule="evenodd"/>
            <path id="Path_1245208" data-name="Path 1245208" d="M32.508,39.515H25.729V40.6c.428.147.619.181,1.019.288a10.917,10.917,0,0,0,4.757-.059l1-.258Z" fill="#425a73" fill-rule="evenodd"/>
            <path id="Path_1245209" data-name="Path 1245209" d="M12.845,13.877V8.38a5.536,5.536,0,1,0,6.161,6.161h-5.5a.664.664,0,0,1-.664-.664Z" fill="#fba23d" fill-rule="evenodd"/>
          </g>
          <path id="Path_1245210" data-name="Path 1245210" d="M34.263,23.425h3.763v9.246H34.263Z" fill="#fba23d"/>
          <path id="Path_1245211" data-name="Path 1245211" d="M26.02,26.087h3.763v6.584H26.02Z" fill="#204a5d"/>
          <path id="Path_1245212" data-name="Path 1245212" d="M17.778,28.49H21.54v4.181H17.778Z" fill="#f3585c"/>
          <path id="Path_1245213" data-name="Path 1245213" d="M18.066,13.213A4.607,4.607,0,0,0,14.174,9.32v3.892Z" fill="#f3585c" fill-rule="evenodd"/>
          <path id="Path_1245214" data-name="Path 1245214" d="M52.512,26.987a4.951,4.951,0,1,0,1.814,6.764,4.955,4.955,0,0,0-1.814-6.764Z" fill="#e9e5dc" fill-rule="evenodd"/>
          <path id="Path_1245215" data-name="Path 1245215" d="M42.506,25.591a9.4,9.4,0,0,1,3.763-2.969V19.876H42.506Z" fill="#24809d" fill-rule="evenodd"/>
          <path id="Path_1245216" data-name="Path 1245216" d="M43.612,38.187a9.392,9.392,0,0,1-1.88-2.424H4.9a.664.664,0,0,1-.664-.664V5.27A.664.664,0,0,1,4.9,4.606H53.334A.664.664,0,0,1,54,5.27v17.44l.978.526V3.628H3.261V38.187H43.612Z" fill="#24809d" fill-rule="evenodd"/>
        </g>
      </g>
    </g>
  </g>
</svg>
