<svg xmlns="http://www.w3.org/2000/svg" xmlns:xlink="http://www.w3.org/1999/xlink" width="108" height="108" viewBox="0 0 108 108">
  <defs>
    <filter id="Ellipse_12740" x="0" y="0" width="108" height="108" filterUnits="userSpaceOnUse">
      <feOffset dy="3" input="SourceAlpha"/>
      <feGaussianBlur stdDeviation="3" result="blur"/>
      <feFlood flood-opacity="0.161"/>
      <feComposite operator="in" in2="blur"/>
      <feComposite in="SourceGraphic"/>
    </filter>
    <clipPath id="clip-path">
      <rect id="Rectangle_411018" data-name="Rectangle 411018" width="58" height="68" transform="translate(-6848 -10740)" fill="#fff" stroke="#707070" stroke-width="1" opacity="0"/>
    </clipPath>
  </defs>
  <g id="Group_1204172" data-name="Group 1204172" transform="translate(6873.153 10761.937)">
    <g id="Group_1203657" data-name="Group 1203657" transform="translate(-6864.153 -10755.937)">
      <g transform="matrix(1, 0, 0, 1, -9, -6)" filter="url(#Ellipse_12740)">
        <g id="Ellipse_12740-2" data-name="Ellipse 12740" transform="translate(9 6)" fill="#5bd4dd" stroke="#3f939a" stroke-width="1">
          <circle cx="45" cy="45" r="45" stroke="none"/>
          <circle cx="45" cy="45" r="44.5" fill="none"/>
        </g>
      </g>
    </g>
    <g id="Mask_Group_1099452" data-name="Mask Group 1099452" clip-path="url(#clip-path)">
      <g id="analitica_1_" data-name="analitica (1)" transform="translate(-6848 -10735)">
        <path id="Path_1245217" data-name="Path 1245217" d="M9.289,48.905H5.664a4.531,4.531,0,0,1-4.531-4.531V5.664A4.531,4.531,0,0,1,5.664,1.133H52.336a4.531,4.531,0,0,1,4.531,4.531v38.71a4.531,4.531,0,0,1-4.531,4.531H9.289Z" fill="#fff"/>
        <path id="Path_1245218" data-name="Path 1245218" d="M52.336,1.133H5.664A4.531,4.531,0,0,0,1.133,5.664V9.289H56.867V5.664A4.531,4.531,0,0,0,52.336,1.133Z" fill="#ff5a5a"/>
        <path id="Path_1245219" data-name="Path 1245219" d="M2.379,9.289H56.188" fill="#231f20"/>
        <rect id="Rectangle_411920" data-name="Rectangle 411920" width="7.25" height="12.461" transform="translate(6.344 44.406)" fill="#a5dc69"/>
        <rect id="Rectangle_411921" data-name="Rectangle 411921" width="7.25" height="15.406" transform="translate(31.719 41.461)" fill="#78d2fa"/>
        <rect id="Rectangle_411922" data-name="Rectangle 411922" width="7.25" height="24.986" transform="translate(19.031 31.881)" fill="#f5c86e"/>
        <rect id="Rectangle_411923" data-name="Rectangle 411923" width="7.25" height="26.678" transform="translate(44.406 30.189)" fill="#ff5a5a"/>
        <circle id="Ellipse_13464" data-name="Ellipse 13464" cx="2.945" cy="2.945" r="2.945" transform="translate(19.073 16.532)" fill="#f5c86e"/>
        <circle id="Ellipse_13465" data-name="Ellipse 13465" cx="2.945" cy="2.945" r="2.945" transform="translate(32.293 30.02)" fill="#78d2fa"/>
        <circle id="Ellipse_13466" data-name="Ellipse 13466" cx="2.945" cy="2.945" r="2.945" transform="translate(45.086 16.532)" fill="#ff5a5a"/>
        <circle id="Ellipse_13467" data-name="Ellipse 13467" cx="2.945" cy="2.945" r="2.945" transform="translate(6.949 28.935)" fill="#a5dc69"/>
        <path id="Path_1245220" data-name="Path 1245220" d="M54.045,49.9A3.96,3.96,0,0,0,58,45.945V5.664A5.67,5.67,0,0,0,52.336,0H5.664A5.67,5.67,0,0,0,0,5.664V45.945A3.96,3.96,0,0,0,3.955,49.9H5.211v5.834H1.133a1.133,1.133,0,0,0,0,2.266H56.867a1.133,1.133,0,0,0,0-2.266H52.789V49.9ZM5.664,2.266H52.336a3.4,3.4,0,0,1,3.4,3.4V8.156H2.379c-.038,0-.076,0-.114.006v-2.5A3.4,3.4,0,0,1,5.664,2.266ZM7.477,55.734v-10.2h4.984v10.2Zm12.688,0V33.014h4.984V55.734Zm12.688,0V42.594h4.984V55.734Zm12.688,0V43.528a1.133,1.133,0,0,0-2.266,0V55.734H40.1V41.461a1.133,1.133,0,0,0-1.133-1.133h-7.25a1.133,1.133,0,0,0-1.133,1.133V55.734H27.414V31.881a1.133,1.133,0,0,0-1.133-1.133h-7.25A1.133,1.133,0,0,0,17.9,31.881V55.734H14.727V44.406a1.133,1.133,0,0,0-1.133-1.133H6.344a1.133,1.133,0,0,0-1.133,1.133v3.229H3.955a1.692,1.692,0,0,1-1.69-1.69V10.416c.037,0,.075.006.114.006H55.734V45.945a1.692,1.692,0,0,1-1.69,1.69H52.789V30.189a1.133,1.133,0,0,0-1.133-1.133h-7.25a1.133,1.133,0,0,0-1.133,1.133V35.91a1.133,1.133,0,0,0,2.266,0V31.322h4.984V55.734Z"/>
        <path id="Path_1245221" data-name="Path 1245221" d="M25.156,6.344H50.75a1.133,1.133,0,0,0,0-2.266H25.156a1.133,1.133,0,0,0,0,2.266Z"/>
        <path id="Path_1245222" data-name="Path 1245222" d="M11.781,6.344a1.133,1.133,0,1,0-.8-.332A1.141,1.141,0,0,0,11.781,6.344Z"/>
        <path id="Path_1245223" data-name="Path 1245223" d="M7.25,6.344a1.133,1.133,0,1,0-.8-.332A1.141,1.141,0,0,0,7.25,6.344Z"/>
        <path id="Path_1245224" data-name="Path 1245224" d="M16.313,6.344a1.133,1.133,0,1,0-.8-.332A1.141,1.141,0,0,0,16.313,6.344Z"/>
        <path id="Path_1245225" data-name="Path 1245225" d="M44.406,38.815a1.133,1.133,0,1,0,.8.332A1.137,1.137,0,0,0,44.406,38.815Z"/>
        <path id="Path_1245226" data-name="Path 1245226" d="M48.031,23.556a4.084,4.084,0,1,0-3.3-1.686l-7.525,7.525a4.068,4.068,0,0,0-3.761-.092l-7.857-7.857a4.078,4.078,0,1,0-7.038.175l-6.69,6.689a4.081,4.081,0,1,0,1.6,1.6l6.769-6.769a4.069,4.069,0,0,0,3.753-.1l7.78,7.78A4.078,4.078,0,1,0,38.809,31l7.726-7.726A4.052,4.052,0,0,0,48.031,23.556Zm0-5.891a1.813,1.813,0,1,1-1.812,1.813A1.815,1.815,0,0,1,48.031,17.665ZM9.894,33.693a1.813,1.813,0,1,1,1.812-1.813A1.815,1.815,0,0,1,9.894,33.693Zm12.125-12.4a1.813,1.813,0,1,1,1.813-1.812A1.815,1.815,0,0,1,22.019,21.29Zm13.22,13.487a1.813,1.813,0,1,1,1.813-1.812A1.815,1.815,0,0,1,35.239,34.777Z"/>
        <path id="Path_1245227" data-name="Path 1245227" d="M16,16.541a1.131,1.131,0,1,0-.8-.332A1.143,1.143,0,0,0,16,16.541Z"/>
        <path id="Path_1245228" data-name="Path 1245228" d="M6.344,16.541h5.438a1.133,1.133,0,0,0,0-2.266H6.344a1.133,1.133,0,0,0,0,2.266Z"/>
        <path id="Path_1245229" data-name="Path 1245229" d="M11.781,21.979a1.133,1.133,0,0,0,0-2.266H6.344a1.133,1.133,0,0,0,0,2.266Z"/>
      </g>
    </g>
  </g>
</svg>
